<svg width="64" height="56" viewBox="0 0 64 56" fill="none" xmlns="http://www.w3.org/2000/svg">
<path d="M63.7971 30.7505C63.4066 34.801 62.134 38.717 60.0686 42.2238C58.0044 45.7305 55.1981 48.7431 51.8459 51.0503C48.4938 53.3575 44.6771 54.9035 40.664 55.5798C36.652 56.256 32.5401 56.0463 28.6164 54.9651C24.6938 53.8839 21.0547 51.9575 17.9543 49.3211C14.855 46.6848 12.3686 43.4021 10.6714 39.7035C8.9753 36.0047 8.10728 31.9796 8.13081 27.9104C8.15433 23.841 9.06705 19.826 10.8066 16.147C15.6948 5.83662 26.6557 -0.818216 38.6715 0.328561C54.0137 1.79173 65.2638 15.4131 63.7971 30.7505Z" fill="#C4D0FB"/>
<path d="M8.92465 13.8464L9.6433 12.5396C9.94557 11.8873 10.2137 11.2199 10.4478 10.5401C10.8101 9.47332 10.683 7.95251 12.2697 6.51639C13.8564 5.08028 11.5099 5.47665 10.7171 6.13884C10.0561 6.69047 9.51862 8.25597 8.86114 8.60882C8.71058 8.39629 8.59179 8.1634 8.50828 7.91723L7.07099 1.18241C7.04982 1.07455 6.99101 0.977754 6.90515 0.909888C6.81811 0.84214 6.7099 0.807678 6.60051 0.813088L6.33705 0.821322C6.27354 0.824733 6.2112 0.841434 6.15357 0.870368C6.09711 0.899303 6.04653 0.939763 6.00654 0.98928C5.96538 1.0388 5.93597 1.0962 5.91951 1.15783C5.90186 1.21946 5.89833 1.28391 5.90774 1.34707C6.12887 2.7879 6.89691 7.07508 6.81928 7.07743L6.6605 7.15271L4.45634 0.330854C4.42575 0.223116 4.35636 0.13055 4.26227 0.0705648C4.167 0.0106972 4.05408 -0.0122384 3.94352 0.0062277L3.59067 0.0650368C3.5295 0.0746815 3.4707 0.0966761 3.41894 0.129844C3.36601 0.162895 3.32132 0.206296 3.28603 0.25746C3.25193 0.308506 3.22723 0.366257 3.21546 0.427066C3.2037 0.487757 3.20488 0.550329 3.21782 0.610785C3.55656 2.17981 5.14087 7.40088 5.06089 7.40559L4.86682 7.47145L2.47565 1.82578C2.44271 1.71334 2.36744 1.61795 2.26511 1.55926C2.16396 1.50057 2.04399 1.48316 1.9299 1.51056L1.64879 1.57996C1.58998 1.59431 1.5347 1.62007 1.48648 1.6557C1.43825 1.69134 1.39709 1.73627 1.36533 1.78779C1.33475 1.83942 1.31358 1.89659 1.30417 1.95622C1.29476 2.01573 1.29829 2.07654 1.3124 2.13512L3.46364 7.68905L3.26604 7.81372L1.01248 3.80177C0.968957 3.6985 0.888977 3.61475 0.787825 3.56618C0.68785 3.5176 0.572584 3.50772 0.464375 3.5383L0.33029 3.57829C0.215025 3.61205 0.118578 3.68909 0.0597686 3.79318C0.000959497 3.89727 -0.015507 4.02018 0.0150737 4.1358C0.231491 4.95913 1.30887 6.68694 1.93578 8.48767C2.42625 9.88263 2.46036 11 3.26957 12.689C3.61066 13.4053 4.25991 14.2557 4.61394 14.7297" fill="#FFCCD7"/>
<path d="M49.7899 52.3699C44.5594 55.3357 38.5103 56.5324 32.5435 55.7816C26.5779 55.031 21.0134 52.373 16.6804 48.2038L17.0168 39.5789L6.21942 37.7958C4.62569 37.358 3.24015 36.3666 2.31214 34.9994C1.38413 33.6322 0.973645 31.979 1.15478 30.3365L2.03809 13.4065L10.5689 13.9946L10.8042 16.1493L12.1227 27.5207C12.1227 27.5207 21.0475 28.6369 33.2269 31.7549C45.0828 34.7907 48.5749 45.3187 49.7899 52.3699Z" fill="#6A5AE0"/>
<path d="M16.8991 39.4696L16.9991 36.5303" stroke="#C4D0FB" stroke-linecap="square"/>
<path d="M40.5005 21.1977C43.7703 17.0291 43.3045 11.2051 39.4596 8.18951C35.6158 5.1739 29.8478 6.10861 26.5781 10.2772C23.3083 14.4459 23.774 20.2698 27.619 23.2855C31.4639 26.3011 37.2307 25.3664 40.5005 21.1977Z" fill="#001833"/>
<path d="M27.6108 35.126C26.9686 34.6612 26.4958 33.9998 26.264 33.2423C26.0312 32.4846 26.0523 31.6718 26.3229 30.9271L30.5689 19.2688C30.7135 18.7958 30.9535 18.3573 31.2734 17.9799C31.5922 17.6026 31.9862 17.2942 32.4284 17.0735C32.8718 16.8529 33.3541 16.7247 33.8481 16.6966C34.3421 16.6685 34.8361 16.7411 35.3007 16.9102C35.7664 17.0792 36.191 17.3411 36.5521 17.6797C36.912 18.0185 37.2002 18.427 37.3978 18.8805C37.5954 19.3339 37.6989 19.8229 37.7012 20.3174C37.7036 20.812 37.606 21.302 37.4131 21.7576L33.1659 33.417C32.9718 33.9456 32.6589 34.4222 32.2508 34.8095C31.8427 35.1968 31.3499 35.4843 30.8123 35.6496C30.2737 35.8147 29.7044 35.853 29.1492 35.7616C28.5941 35.6703 28.0671 35.4515 27.6108 35.1225V35.126Z" fill="#FFCCD7"/>
<path d="M28.3317 28.6251L27.626 28.3628C26.8051 28.0582 26.0617 27.5764 25.4489 26.9518C24.835 26.3271 24.368 25.575 24.0775 24.7489C23.7882 23.9228 23.6847 23.0431 23.774 22.1723C23.8634 21.3015 24.1434 20.4611 24.5938 19.7108L26.8286 15.9941C27.5496 14.7938 28.6705 13.8859 29.9949 13.4299C31.3181 12.9739 32.7601 12.9989 34.068 13.5006C35.5429 14.0667 36.732 15.1955 37.3754 16.6386C38.0176 18.0819 38.0611 19.7213 37.4954 21.1963L35.9663 25.1754C35.4041 26.6398 34.2879 27.8235 32.8577 28.4694C31.4286 29.1152 29.802 29.1712 28.3317 28.6251Z" fill="#FFCCD7"/>
<path d="M28.8952 18.1028L25.8359 20.5869L27.0368 21.489" stroke="#24272D" stroke-linecap="square"/>
<path d="M29.6725 19.8576C30.0289 19.8576 30.3182 19.5685 30.3182 19.2119C30.3182 18.8553 30.0289 18.5662 29.6725 18.5662C29.3161 18.5662 29.0268 18.8553 29.0268 19.2119C29.0268 19.5685 29.3161 19.8576 29.6725 19.8576Z" fill="#24272D"/>
<path d="M26.987 18.4992C27.3434 18.4992 27.6327 18.2101 27.6327 17.8535C27.6327 17.4969 27.3434 17.2078 26.987 17.2078C26.6306 17.2078 26.3413 17.4969 26.3413 17.8535C26.3413 18.2101 26.6306 18.4992 26.987 18.4992Z" fill="#24272D"/>
<path d="M46.5625 38.525C46.5625 38.525 43.5845 45.9808 37.7835 42.6687C28.18 37.1842 30.1525 29.9718 32.86 26.6726C33.9386 25.3588 35.4476 24.7766 37.0225 24.2991C32.4437 20.2612 34.6949 17.0456 34.6949 17.0456C34.6949 17.0456 22.4485 16.2587 26.4087 10.4495C30.3689 4.64038 37.4424 5.40137 41.1921 7.92428C49.9076 13.7911 46.9413 19.7708 48.9302 21.9726C60.2063 34.4672 46.5625 38.525 46.5625 38.525Z" fill="#001833"/>
<path d="M38.3093 24.8107C39.5761 24.0408 39.9783 22.3904 39.2079 21.1244C38.4387 19.8583 36.7885 19.4561 35.5218 20.2258L33.4376 21.4931C32.172 22.2629 31.7697 23.9132 32.539 25.1794C33.3094 26.4454 34.9595 26.8477 36.2251 26.078L38.3093 24.8107Z" fill="#FFCCD7"/>
<path d="M37.7401 22.1326L34.7832 23.9286" stroke="#24272D" stroke-linecap="square"/>
<path d="M28.8187 23.3087C28.8492 23.7196 28.7163 24.1262 28.4482 24.4388C28.1788 24.7515 27.7977 24.9447 27.3861 24.9759C26.9756 25.0071 26.5686 24.8738 26.2569 24.6052C25.9441 24.3366 25.75 23.9548 25.7194 23.5439C25.6535 22.6876 26.5204 22.6959 27.3755 22.63C28.2306 22.5641 28.7528 22.4524 28.8187 23.3087Z" fill="#24272D"/>
</svg>
