<svg width="48" height="48" viewBox="0 0 48 48" fill="none" xmlns="http://www.w3.org/2000/svg">
<circle cx="24" cy="24" r="24" fill="#FFB3C0"/>
<mask id="path-2-inside-1_290_7793" fill="white">
<path d="M24 0C28.1064 4.89682e-08 32.1441 1.05363 35.7269 3.0601C39.3097 5.06657 42.3178 7.95876 44.4634 11.46C46.6089 14.9613 47.8203 18.9545 47.9815 23.0578C48.1427 27.161 47.2484 31.2369 45.3842 34.8958C43.5199 38.5546 40.748 41.6739 37.3337 43.9553C33.9193 46.2367 29.9768 47.6038 25.883 47.926C21.7893 48.2482 17.6814 47.5146 13.9522 45.7954C10.223 44.0763 6.99727 41.429 4.5836 38.1069L24 24L24 0Z"/>
</mask>
<path d="M24 0C28.1064 4.89682e-08 32.1441 1.05363 35.7269 3.0601C39.3097 5.06657 42.3178 7.95876 44.4634 11.46C46.6089 14.9613 47.8203 18.9545 47.9815 23.0578C48.1427 27.161 47.2484 31.2369 45.3842 34.8958C43.5199 38.5546 40.748 41.6739 37.3337 43.9553C33.9193 46.2367 29.9768 47.6038 25.883 47.926C21.7893 48.2482 17.6814 47.5146 13.9522 45.7954C10.223 44.0763 6.99727 41.429 4.5836 38.1069L24 24L24 0Z" fill="#FF8FA2" stroke="#FF8FA2" stroke-width="6" mask="url(#path-2-inside-1_290_7793)"/>
<path d="M13.7473 29.14C12.9446 29.14 12.2539 28.9907 11.6753 28.692C11.0966 28.384 10.6486 27.9733 10.3313 27.46C10.0139 26.9373 9.85525 26.354 9.85525 25.71C9.85525 25.4207 9.89258 25.1407 9.96725 24.87C10.0419 24.5993 10.1399 24.3427 10.2613 24.1C10.3826 23.8573 10.4993 23.6427 10.6113 23.456C10.7326 23.26 10.8399 23.106 10.9333 22.994L13.4953 19.48C13.5326 19.4333 13.5886 19.3773 13.6633 19.312C13.7379 19.2373 13.8406 19.2 13.9713 19.2H15.2733C15.3573 19.2 15.4273 19.2327 15.4833 19.298C15.5393 19.354 15.5673 19.424 15.5673 19.508C15.5673 19.5453 15.5579 19.5827 15.5393 19.62C15.5299 19.648 15.5159 19.6713 15.4973 19.69L13.5373 22.406C13.6213 22.378 13.7193 22.3593 13.8313 22.35C13.9433 22.3407 14.0459 22.336 14.1393 22.336C14.6059 22.3453 15.0493 22.4387 15.4693 22.616C15.8893 22.784 16.2579 23.0173 16.5753 23.316C16.8926 23.6147 17.1399 23.9647 17.3173 24.366C17.5039 24.7673 17.5973 25.206 17.5973 25.682C17.5973 26.298 17.4433 26.872 17.1353 27.404C16.8273 27.9267 16.3839 28.3467 15.8053 28.664C15.2359 28.9813 14.5499 29.14 13.7473 29.14ZM13.7333 27.53C14.0693 27.53 14.3773 27.46 14.6573 27.32C14.9466 27.18 15.1799 26.9747 15.3573 26.704C15.5346 26.4333 15.6233 26.0973 15.6233 25.696C15.6233 25.304 15.5346 24.9727 15.3573 24.702C15.1799 24.4313 14.9466 24.226 14.6573 24.086C14.3773 23.946 14.0693 23.876 13.7333 23.876C13.3973 23.876 13.0846 23.946 12.7953 24.086C12.5153 24.226 12.2866 24.4313 12.1093 24.702C11.9319 24.9727 11.8433 25.304 11.8433 25.696C11.8433 26.0973 11.9319 26.4333 12.1093 26.704C12.2866 26.9747 12.5153 27.18 12.7953 27.32C13.0846 27.46 13.3973 27.53 13.7333 27.53ZM22.3426 29.154C21.5399 29.154 20.8633 29.0233 20.3126 28.762C19.7619 28.4913 19.3419 28.1413 19.0526 27.712C18.7726 27.2827 18.6233 26.8253 18.6046 26.34C18.5953 26.256 18.6186 26.1907 18.6746 26.144C18.7399 26.088 18.8146 26.06 18.8986 26.06H20.2006C20.3033 26.06 20.3873 26.0833 20.4526 26.13C20.5273 26.1673 20.5833 26.2373 20.6206 26.34C20.7139 26.62 20.8446 26.8487 21.0126 27.026C21.1899 27.2033 21.3906 27.334 21.6146 27.418C21.8479 27.502 22.0906 27.544 22.3426 27.544C22.6786 27.544 22.9819 27.4787 23.2526 27.348C23.5326 27.208 23.7566 27.0027 23.9246 26.732C24.0926 26.4613 24.1766 26.13 24.1766 25.738C24.1766 25.3927 24.0973 25.094 23.9386 24.842C23.7799 24.59 23.5606 24.394 23.2806 24.254C23.0099 24.1047 22.6973 24.03 22.3426 24.03C22.0813 24.03 21.8666 24.0627 21.6986 24.128C21.5306 24.1933 21.3859 24.268 21.2646 24.352C21.1526 24.436 21.0499 24.5107 20.9566 24.576C20.8726 24.6413 20.7746 24.674 20.6626 24.674H19.3746C19.2906 24.674 19.2159 24.646 19.1506 24.59C19.0946 24.5247 19.0666 24.45 19.0666 24.366L19.5566 19.578C19.5659 19.4567 19.6079 19.3633 19.6826 19.298C19.7573 19.2327 19.8459 19.2 19.9486 19.2H25.2126C25.3059 19.2 25.3853 19.2327 25.4506 19.298C25.5159 19.3633 25.5486 19.4427 25.5486 19.536V20.474C25.5486 20.5673 25.5159 20.6467 25.4506 20.712C25.3853 20.7773 25.3059 20.81 25.2126 20.81H21.1666L20.9426 23.092C21.1106 22.98 21.3346 22.8727 21.6146 22.77C21.8946 22.6673 22.2819 22.616 22.7766 22.616C23.2246 22.616 23.6493 22.6907 24.0506 22.84C24.4613 22.98 24.8253 23.19 25.1426 23.47C25.4599 23.7407 25.7073 24.072 25.8846 24.464C26.0713 24.8467 26.1646 25.2853 26.1646 25.78C26.1646 26.4613 26.0059 27.054 25.6886 27.558C25.3713 28.062 24.9279 28.454 24.3586 28.734C23.7893 29.014 23.1173 29.154 22.3426 29.154ZM28.2802 29C28.0842 29 27.9862 28.9067 27.9862 28.72C27.9862 28.664 28.0049 28.6127 28.0422 28.566L34.9442 19.466C35.0096 19.382 35.0749 19.3167 35.1402 19.27C35.2056 19.2233 35.2989 19.2 35.4202 19.2H36.1622C36.3582 19.2 36.4562 19.2933 36.4562 19.48C36.4562 19.536 36.4376 19.5873 36.4002 19.634L29.4982 28.734C29.4329 28.818 29.3676 28.8833 29.3022 28.93C29.2462 28.9767 29.1529 29 29.0222 29H28.2802ZM35.0142 29.084C34.3889 29.084 33.8942 28.9113 33.5302 28.566C33.1662 28.2207 32.9656 27.768 32.9282 27.208C32.9189 26.9653 32.9142 26.7553 32.9142 26.578C32.9142 26.4007 32.9189 26.1813 32.9282 25.92C32.9656 25.36 33.1569 24.9073 33.5022 24.562C33.8569 24.2167 34.3609 24.044 35.0142 24.044C35.6769 24.044 36.1809 24.2167 36.5262 24.562C36.8809 24.9073 37.0722 25.36 37.1002 25.92C37.1189 26.1813 37.1282 26.4007 37.1282 26.578C37.1282 26.7553 37.1189 26.9653 37.1002 27.208C37.0722 27.768 36.8716 28.2207 36.4982 28.566C36.1342 28.9113 35.6396 29.084 35.0142 29.084ZM35.0142 27.992C35.2196 27.992 35.3782 27.95 35.4902 27.866C35.6116 27.782 35.7002 27.6747 35.7562 27.544C35.8122 27.4133 35.8402 27.2827 35.8402 27.152C35.8589 26.9187 35.8682 26.7227 35.8682 26.564C35.8682 26.396 35.8589 26.2047 35.8402 25.99C35.8309 25.7753 35.7656 25.5793 35.6442 25.402C35.5229 25.2153 35.3129 25.122 35.0142 25.122C34.7249 25.122 34.5196 25.2153 34.3982 25.402C34.2769 25.5793 34.2069 25.7753 34.1882 25.99C34.1789 26.2047 34.1742 26.396 34.1742 26.564C34.1742 26.7227 34.1789 26.9187 34.1882 27.152C34.2069 27.2827 34.2396 27.4133 34.2862 27.544C34.3422 27.6747 34.4262 27.782 34.5382 27.866C34.6596 27.95 34.8182 27.992 35.0142 27.992ZM29.4282 24.128C28.8029 24.128 28.3082 23.9647 27.9442 23.638C27.5802 23.3113 27.3796 22.868 27.3422 22.308C27.3329 22.0653 27.3282 21.8553 27.3282 21.678C27.3282 21.4913 27.3329 21.2673 27.3422 21.006C27.3796 20.446 27.5709 19.9933 27.9162 19.648C28.2709 19.3027 28.7749 19.13 29.4282 19.13C30.0909 19.13 30.5949 19.3027 30.9402 19.648C31.2949 19.9933 31.4862 20.446 31.5142 21.006C31.5329 21.2673 31.5422 21.4913 31.5422 21.678C31.5422 21.8553 31.5329 22.0653 31.5142 22.308C31.4862 22.868 31.2856 23.3113 30.9122 23.638C30.5482 23.9647 30.0536 24.128 29.4282 24.128ZM29.4282 23.092C29.6336 23.092 29.7922 23.05 29.9042 22.966C30.0256 22.882 30.1142 22.7747 30.1702 22.644C30.2262 22.5133 30.2542 22.378 30.2542 22.238C30.2729 22.0047 30.2822 21.8087 30.2822 21.65C30.2822 21.482 30.2729 21.2907 30.2542 21.076C30.2449 20.8613 30.1796 20.6653 30.0582 20.488C29.9369 20.3107 29.7269 20.222 29.4282 20.222C29.1389 20.222 28.9336 20.3107 28.8122 20.488C28.6909 20.6653 28.6256 20.8613 28.6162 21.076C28.6069 21.2907 28.6022 21.482 28.6022 21.65C28.6022 21.8087 28.6069 22.0047 28.6162 22.238C28.6256 22.378 28.6536 22.5133 28.7002 22.644C28.7562 22.7747 28.8402 22.882 28.9522 22.966C29.0736 23.05 29.2322 23.092 29.4282 23.092Z" fill="white"/>
</svg>
