<svg width="48" height="49" viewBox="0 0 48 49" fill="none" xmlns="http://www.w3.org/2000/svg">
<path d="M47.8897 26.2817C47.5544 29.7671 46.4606 33.1369 44.6848 36.1549C42.9091 39.1727 40.4944 41.7654 37.6105 43.7511C34.7264 45.7368 31.4429 47.0674 27.99 47.6496C24.5372 48.2318 20.9989 48.0513 17.6233 47.1209C14.2475 46.1906 11.1164 44.5328 8.44925 42.2641C5.78222 39.9952 3.64389 37.1703 2.1844 33.9875C0.724814 30.8047 -0.0206128 27.3411 0.000433566 23.8396C0.02148 20.3381 0.808393 16.8836 2.30603 13.7186C6.51126 4.84671 15.9396 -0.876298 26.2777 0.110252C39.4732 1.36899 49.1494 13.0872 47.8897 26.2817Z" fill="#C4D0FB"/>
<path d="M39.3871 42.4185L38.5534 43.0853C37.6901 43.7439 36.7835 44.3436 35.8396 44.8803C33.0442 46.4647 29.9592 47.4718 26.7673 47.842C23.5755 48.2121 20.3419 47.9378 17.2581 47.0352C14.1742 46.1327 11.3029 44.6204 8.81431 42.5877C6.32577 40.5551 4.27051 38.0436 2.77045 35.202C6.58106 32.4012 12.9607 29.055 21.1213 29.738C34.7711 30.8865 39.3871 42.4185 39.3871 42.4185Z" fill="#6A5AE0"/>
<path d="M23.1238 35.4276C22.9702 35.428 22.8168 35.4189 22.6644 35.4003C21.6519 35.2797 20.7287 34.7619 20.0981 33.9607C19.4673 33.1596 19.1806 32.1408 19.301 31.1283L21.1224 15.8079C21.2431 14.7952 21.7611 13.872 22.5626 13.2413C22.9595 12.9291 23.4139 12.6981 23.9 12.5614C24.3862 12.4248 24.8944 12.3852 25.3959 12.445C25.8973 12.5048 26.382 12.6628 26.8224 12.91C27.2627 13.1571 27.6501 13.4885 27.9623 13.8853C28.2746 14.2821 28.5057 14.7367 28.6423 15.2227C28.779 15.7088 28.8186 16.2172 28.7588 16.7186L26.9374 32.0389C26.8258 32.9724 26.3763 33.8324 25.6735 34.4568C24.9708 35.0812 24.0638 35.4266 23.1238 35.4276Z" fill="#FFCCD7"/>
<path d="M26.3423 27.6011L27.1578 27.6922C28.1061 27.7991 29.0665 27.6957 29.9704 27.3893C30.8742 27.0829 31.6994 26.5811 32.3873 25.9195C33.0751 25.258 33.6088 24.4529 33.9501 23.5616C34.2914 22.6704 34.4321 21.7149 34.3622 20.763L34.0161 16.0478C33.9042 14.525 33.2595 13.0902 32.1949 11.9955C31.1304 10.9008 29.7141 10.2161 28.195 10.0617C26.4812 9.88791 24.7687 10.4019 23.4338 11.4908C22.0991 12.5796 21.2516 14.1541 21.0777 15.8677L20.6082 20.4908C20.4353 22.1923 20.9406 23.8931 22.0141 25.2243C23.0877 26.5554 24.6429 27.4094 26.3423 27.6011Z" fill="#FFCCD7"/>
<path d="M22.5647 22.5894L22.5655 22.5888C23.6888 21.8978 24.0392 20.427 23.3481 19.3036L22.6382 18.1497C21.9471 17.0265 20.4763 16.6761 19.3531 17.3671L19.3521 17.3676C18.2289 18.0587 17.8785 19.5295 18.5696 20.6527L19.2795 21.8067C19.9706 22.93 21.4413 23.2804 22.5647 22.5894Z" fill="#FFCCD7"/>
<path d="M19.6218 19.2329L21.5362 21.2566" stroke="#001833" stroke-width="0.5" stroke-linecap="square"/>
<path d="M31.005 16.647L31.1396 20.4363L29.7918 20.491" stroke="#001833" stroke-width="0.5" stroke-linecap="square"/>
<path d="M26.99 21.6676C26.8786 21.8735 26.8089 22.0995 26.7847 22.3324C26.7606 22.5653 26.7826 22.8007 26.8494 23.0251C26.9162 23.2495 27.0267 23.4586 27.1743 23.6403C27.322 23.8221 27.504 23.973 27.7099 24.0844C27.9159 24.1958 28.1418 24.2656 28.3747 24.2897C28.6076 24.3138 28.843 24.2918 29.0674 24.225C29.2918 24.1582 29.5009 24.0477 29.6826 23.9001C29.8644 23.7524 30.0153 23.5705 30.1267 23.3645C30.5952 22.4973 29.6835 22.1017 28.8113 21.6332C27.9391 21.1647 27.4585 20.8015 26.99 21.6676Z" fill="#001833"/>
<path d="M23.0661 20.9827L24.8874 14.1416L25.3195 12.5227C25.7255 12.9578 26.2007 13.3226 26.726 13.6023C28.6323 14.6283 34.3796 14.2195 35.1759 10.1894C35.8255 6.90288 32.3356 8.792 30.5487 8.58659C27.7409 8.2628 25.793 6.61046 21.948 8.68778C17.3492 11.1759 19.5277 17.2753 19.5277 17.2753C19.5277 17.2753 21.5514 16.483 23.0661 20.9827Z" fill="#001833"/>
<path opacity="0.4" d="M27.3613 27.7123L24.9258 27.4907L27.1498 29.6611L27.3613 27.7123Z" fill="#24272D"/>
<path d="M28.4096 18.6939C28.7789 18.6939 29.0784 18.3945 29.0784 18.025C29.0784 17.6556 28.7789 17.3562 28.4096 17.3562C28.0402 17.3562 27.7408 17.6556 27.7408 18.025C27.7408 18.3945 28.0402 18.6939 28.4096 18.6939Z" fill="#001833"/>
<path d="M32.3995 18.6939C32.769 18.6939 33.0684 18.3945 33.0684 18.025C33.0684 17.6556 32.769 17.3562 32.3995 17.3562C32.0301 17.3562 31.7307 17.6556 31.7307 18.025C31.7307 18.3945 32.0301 18.6939 32.3995 18.6939Z" fill="#001833"/>
</svg>
