<svg width="20" height="20" viewBox="0 0 20 20" fill="none" xmlns="http://www.w3.org/2000/svg">
<path d="M10 13.3334C11.841 13.3334 13.3334 11.841 13.3334 10.0001C13.3334 8.15913 11.841 6.66675 10 6.66675C8.15907 6.66675 6.66669 8.15913 6.66669 10.0001C6.66669 11.841 8.15907 13.3334 10 13.3334Z" stroke="#FFD6DD" stroke-width="1.5" stroke-linecap="round" stroke-linejoin="round"/>
<path d="M5.25 14.75L4.66667 15.3333M2.5 10H3.33333H2.5ZM10 2.5V3.33333V2.5ZM16.6667 10H17.5H16.6667ZM10 16.6667V17.5V16.6667ZM4.66667 4.66667L5.25 5.25L4.66667 4.66667ZM15.3333 4.66667L14.75 5.25L15.3333 4.66667ZM14.75 14.75L15.3333 15.3333L14.75 14.75Z" stroke="#FFD6DD" stroke-width="1.5" stroke-linecap="round" stroke-linejoin="round"/>
</svg>
