<svg width="370" height="202" viewBox="0 0 370 202" fill="none" xmlns="http://www.w3.org/2000/svg">
<path d="M41.4346 190.921L88.227 144.154C92.4361 139.944 95.1983 134.505 96.1151 128.623L100.118 102.956L117.628 128.487L90.1542 181.158L120.008 190L148.244 144.513C150.825 140.354 152.122 135.526 151.973 130.633C151.824 125.74 150.236 121 147.407 117.005L123.706 83.5806L81.3715 57.7085L72.2507 72.0125C68.8048 77.4192 66.7892 83.6128 66.3939 90.0122L64.4251 121.861L11.4456 176.383L41.4346 190.921Z" fill="#09074A"/>
<path fill-rule="evenodd" clip-rule="evenodd" d="M142.965 27.1419C156.98 34.1639 166.852 66.3844 166.852 66.3844L196.202 79.7287L188.873 99.3643L149.766 82.743L146.841 77.6474L140.107 96.5087L110.458 85.4477C108.149 84.5861 106.12 83.1102 104.589 81.1791C103.058 79.2481 102.084 76.9353 101.772 74.4908L101.171 69.802L81.2987 57.6563C81.2987 57.6563 92.0137 42.9413 96.0761 38.4447C104.159 29.4981 121.171 16.2188 142.965 27.1419ZM133.994 70.8835L145.424 75.1778L139.267 64.4496L133.994 70.8835Z" fill="#9087E5"/>
<path d="M98.2035 66.4579L83.2493 57.8755" stroke="#6A5AE0" stroke-linecap="square"/>
<path d="M430 110.558L335.39 198.882H299.126L393.738 110.558H430Z" fill="#7F75E1"/>
<path d="M394.248 109.388L295.204 3.29639H328.267L427.306 109.388H394.248Z" fill="#7F75E1"/>
<path fill-rule="evenodd" clip-rule="evenodd" d="M292.51 2.12598H328.774L430 110.558H393.738L292.51 2.12598ZM424.611 108.218L327.757 4.46733H297.898L394.755 108.218H424.611Z" fill="#9087E5"/>
<path d="M194.051 82.6836C194.051 82.6836 202.059 86.0411 205.572 90.0021C209.086 93.963 211.294 102.486 211.294 102.486C211.294 102.486 189.968 105.177 187.916 85.8409" fill="#FFCCD7"/>
<path d="M18.6129 177.491L5.01642 191.309L17.6533 198.882H56.6096L35.8688 187.845L18.6129 177.491Z" fill="#162C56"/>
<path d="M95.2803 181.538L86.5809 198.882H136.375L115.634 187.844L95.2803 181.538Z" fill="#162C56"/>
<path d="M162.462 13.0986L141.407 30.716" stroke="#FFCCD7" stroke-width="10" stroke-linecap="round" stroke-linejoin="round"/>
<path d="M148.187 34.8379L149.459 35.5557C150.939 36.3895 152.584 36.8868 154.277 37.0127C155.971 37.1383 157.672 36.8891 159.259 36.2831C160.845 35.6769 162.279 34.7287 163.457 33.5058C164.636 32.283 165.53 30.8154 166.077 29.2073L168.785 21.2439C169.66 18.6715 169.601 15.8728 168.618 13.3397C167.634 10.8066 165.79 8.70106 163.409 7.39237C160.722 5.91698 157.559 5.56874 154.616 6.42464C151.673 7.2808 149.19 9.27062 147.714 11.9567L143.732 19.2049C142.267 21.8725 141.913 25.01 142.747 27.9369C143.581 30.8637 145.536 33.3435 148.187 34.8379Z" fill="#FFCCD7"/>
<path d="M145.277 24.0485L145.673 23.9884C147.885 23.6532 149.405 21.5889 149.07 19.3778L148.649 16.5984C148.313 14.3873 146.249 12.8663 144.038 13.2016L143.642 13.2617C141.431 13.5969 139.91 15.6611 140.245 17.8722L140.667 20.6519C141.002 22.863 143.066 24.3837 145.277 24.0485Z" fill="#FFCCD7"/>
<path fill-rule="evenodd" clip-rule="evenodd" d="M142.991 16.4585L144.723 21.1034L142.991 16.4585Z" fill="#0C092A"/>
<path d="M142.991 16.4585L144.723 21.1034" stroke="#0C092A" stroke-linecap="square"/>
<path d="M162.621 21.9673L160.751 28.4483L158.442 27.7955" stroke="#0C092A" stroke-linecap="square"/>
<path d="M147.417 21.7329L155.157 11.7929L156.993 9.43146C157.358 10.4268 157.885 11.355 158.554 12.1778C160.964 15.1843 170.665 18.508 174.769 12.4587C178.116 7.51732 171.087 8.19611 168.301 6.61747C163.927 4.13637 161.877 0.0740204 154.14 0.807427C144.869 1.67347 144.195 13.1791 144.195 13.1791C144.195 13.1791 148.062 13.3014 147.417 21.7329Z" fill="#24272D"/>
<path d="M146.952 33.0962L144 29.8999L144.127 35.4161L146.952 33.0962Z" fill="black" fill-opacity="0.3"/>
<path d="M158.943 22.6378C159.6 22.6378 160.132 22.1057 160.132 21.4493C160.132 20.7929 159.6 20.2607 158.943 20.2607C158.287 20.2607 157.755 20.7929 157.755 21.4493C157.755 22.1057 158.287 22.6378 158.943 22.6378Z" fill="#0C092A"/>
<path d="M165.469 25.5167C166.125 25.5167 166.657 24.9846 166.657 24.3282C166.657 23.6718 166.125 23.1396 165.469 23.1396C164.812 23.1396 164.28 23.6718 164.28 24.3282C164.28 24.9846 164.812 25.5167 165.469 25.5167Z" fill="#0C092A"/>
<path d="M393.738 110.558L299.126 198.882L197.9 90.4521L292.51 2.12598L393.738 110.558Z" fill="#9087E5"/>
<path d="M158.655 76.4106L154.608 82.1687" stroke="#C4D0FB" stroke-width="4" stroke-linecap="round"/>
<path d="M167.118 48.2842L170.267 60.0915L180.727 61.2931L176.688 69.9691L167.583 77.4878L158.421 76.744L155.763 69.2851L157.238 60.0577L167.118 48.2842Z" fill="#9087E5"/>
<path fill-rule="evenodd" clip-rule="evenodd" d="M178.073 67.3098C183.561 58.866 184.004 49.4178 179.062 46.2062C174.121 42.9948 165.666 47.2363 160.179 55.6801C154.691 64.1237 154.248 73.5721 159.19 76.7835C164.131 79.9949 172.586 75.7534 178.073 67.3098Z" stroke="#C4D0FB" stroke-width="4"/>
<path d="M189.081 198.882L179.952 185.191L170.821 198.882H189.081Z" fill="#C4D0FB"/>
<path d="M294.127 106.55L297.651 91.9131L282.785 94.285L294.127 106.55Z" fill="#C4D0FB"/>
<path d="M271.891 198.882L247.943 162.974L223.993 198.882H271.891Z" fill="#C4D0FB"/>
<path d="M225.918 152.131H206.371V198.882H225.918V152.131Z" fill="#9087E5"/>
<path d="M307.994 103.088L298.798 111.592L319.136 133.585L328.332 125.082L307.994 103.088Z" fill="#C4D0FB"/>
<path d="M200.724 198.882C200.724 191.77 203.55 184.948 208.579 179.918C213.609 174.889 220.43 172.063 227.543 172.063C234.656 172.063 241.477 174.889 246.507 179.918C251.538 184.948 254.362 191.77 254.362 198.882" fill="#FFD6DD"/>
<path d="M278.013 89.1257C279.22 88.0092 280.195 86.6659 280.884 85.1723C281.573 83.6787 281.961 82.0642 282.026 80.4208C282.088 78.7776 281.828 77.1376 281.259 75.5948C280.689 74.0521 279.823 72.6365 278.705 71.429C277.589 70.2215 276.247 69.2457 274.752 68.5575C273.259 67.8691 271.644 67.4816 270 67.4173C268.359 67.3528 266.718 67.6129 265.176 68.1822C263.634 68.7518 262.216 69.6194 261.009 70.7359L278.013 89.1257Z" fill="#C4D0FB"/>
<path d="M153.737 27.0645C153.737 27.0645 153.126 29.4649 155.638 30.6483L153.737 27.0645Z" fill="#0C092A" stroke="#0C092A"/>
<path d="M134.148 70.5354L124.385 66.7227L124.117 45.3291" stroke="#6A5AE0" stroke-linecap="square"/>
<path d="M100.521 66.3769L99.5272 51.3862" stroke="#6A5AE0" stroke-linecap="square"/>
<path d="M65.7669 127.664L63.512 121.581L69.0542 120.72" stroke="#6A5AE0" stroke-linecap="square"/>
<path d="M121.665 132.906L116.497 128.277L123.657 124.696" stroke="#6A5AE0" stroke-linecap="square"/>
<path d="M100.903 95.5156L99.2438 113.645" stroke="#6A5AE0" stroke-linecap="square"/>
<path d="M145.989 80.6161C145.989 80.6161 149.24 78.9179 154.265 79.3158L159.664 81.3469C159.664 81.3469 164.457 85.1908 157.885 91.9892C151.313 98.7875 140.465 94.6757 140.465 94.6757" fill="#FFCCD7"/>
</svg>
