<svg width="375" height="552" viewBox="0 0 375 552" fill="none" xmlns="http://www.w3.org/2000/svg">
<path opacity="0.1" fill-rule="evenodd" clip-rule="evenodd" d="M24 462C90.2742 462 144 408.274 144 342C144 275.726 90.2742 222 24 222C-42.2742 222 -96 275.726 -96 342C-96 408.274 -42.2742 462 24 462Z" fill="#C4D0FB"/>
<path opacity="0.2" fill-rule="evenodd" clip-rule="evenodd" d="M24 551C139.428 551 233 457.428 233 342C233 226.572 139.428 133 24 133C-91.4275 133 -185 226.572 -185 342C-185 457.428 -91.4275 551 24 551Z" stroke="#C4D0FB"/>
<path opacity="0.2" fill-rule="evenodd" clip-rule="evenodd" d="M336 45C341.523 45 346 40.5228 346 35C346 29.4772 341.523 25 336 25C330.477 25 326 29.4772 326 35C326 40.5228 330.477 45 336 45Z" fill="#C4D0FB"/>
<path opacity="0.2" fill-rule="evenodd" clip-rule="evenodd" d="M58.5 49C72.031 49 83 38.031 83 24.5C83 10.969 72.031 0 58.5 0C44.969 0 34 10.969 34 24.5C34 38.031 44.969 49 58.5 49Z" fill="#C4D0FB"/>
<path opacity="0.1" fill-rule="evenodd" clip-rule="evenodd" d="M386.5 292C422.122 292 451 263.122 451 227.5C451 191.878 422.122 163 386.5 163C350.878 163 322 191.878 322 227.5C322 263.122 350.878 292 386.5 292Z" fill="#C4D0FB"/>
<path fill-rule="evenodd" clip-rule="evenodd" d="M171 237C174.866 237 178 233.866 178 230C178 226.134 174.866 223 171 223C167.134 223 164 226.134 164 230C164 233.866 167.134 237 171 237Z" fill="#7C72E5"/>
</svg>
