<svg width="375" height="812" viewBox="0 0 375 812" fill="none" xmlns="http://www.w3.org/2000/svg">
<path opacity="0.1" fill-rule="evenodd" clip-rule="evenodd" d="M-5.26562 814.562C61.4659 814.562 115.562 760.466 115.562 693.734C115.562 627.003 61.4659 572.906 -5.26562 572.906C-71.9972 572.906 -126.094 627.003 -126.094 693.734C-126.094 760.466 -71.9972 814.562 -5.26562 814.562Z" fill="#C4D0FB"/>
<path opacity="0.2" fill-rule="evenodd" clip-rule="evenodd" d="M-2 906C113.428 906 207 812.428 207 697C207 581.572 113.428 488 -2 488C-117.428 488 -211 581.572 -211 697C-211 812.428 -117.428 906 -2 906Z" stroke="#C4D0FB"/>
<path opacity="0.1" fill-rule="evenodd" clip-rule="evenodd" d="M396.734 260.562C463.466 260.562 517.562 206.466 517.562 139.734C517.562 73.0028 463.466 18.9062 396.734 18.9062C330.003 18.9062 275.906 73.0028 275.906 139.734C275.906 206.466 330.003 260.562 396.734 260.562Z" fill="#C4D0FB"/>
<path opacity="0.2" fill-rule="evenodd" clip-rule="evenodd" d="M400 352C515.428 352 609 258.428 609 143C609 27.5725 515.428 -66 400 -66C284.572 -66 191 27.5725 191 143C191 258.428 284.572 352 400 352Z" stroke="#C4D0FB"/>
<path opacity="0.1" fill-rule="evenodd" clip-rule="evenodd" d="M80 266C93.2548 266 104 255.255 104 242C104 228.745 93.2548 218 80 218C66.7452 218 56 228.745 56 242C56 255.255 66.7452 266 80 266Z" fill="#C4D0FB"/>
<path opacity="0.2" fill-rule="evenodd" clip-rule="evenodd" d="M287 612C292.523 612 297 607.523 297 602C297 596.477 292.523 592 287 592C281.477 592 277 596.477 277 602C277 607.523 281.477 612 287 612Z" fill="#C4D0FB"/>
</svg>
