<svg width="702" height="760" viewBox="0 0 702 760" fill="none" xmlns="http://www.w3.org/2000/svg">
<g id="Illustration">
<g id="Person / Man / 2">
<g id="Man / Legs / 1">
<g id="Group 21">
<g id="Shoes">
<path id="Shoes_2" fill-rule="evenodd" clip-rule="evenodd" d="M193.614 586.045L213.525 567.995L206.608 549.737L163.995 581.016L198.514 640.583C198.514 640.583 199.623 625.78 197.819 609.382C196.572 598.055 193.614 586.045 193.614 586.045ZM384.061 625.972L379.514 611.481L360.261 612.487L376.285 652.284L437.835 617.033C419.57 611.567 384.061 625.972 384.061 625.972Z" fill="#001833"/>
</g>
<g id="Legs skin">
<path id="Skin" fill-rule="evenodd" clip-rule="evenodd" d="M208.505 572.595L206.317 549.72L181.791 568.069L193.614 586.045L208.505 572.595ZM380.315 613.93L361.28 615.625L368.307 632.468L384.061 625.972L380.315 613.93Z" fill="#FFCCD7"/>
</g>
<g id="Pants">
<path id="Pants_2" d="M283.595 399.106L259.838 317.351L323.194 317.766L357.344 317.766C357.408 337.663 355.04 370.435 342.502 407.752L382.309 593.255C382.804 595.584 381.967 597.91 380.268 599.416L386.318 620.665L361.594 627.787L355.705 607.985L355.551 608.035C352.045 609.181 348.271 607.256 347.191 603.78L307.861 477.224C303.426 483.693 298.593 490.15 293.34 496.561C260.081 537.155 239.352 559.047 228.691 569.579C224.886 573.346 218.965 573.529 214.95 570.452L199.747 582.838L184.652 562.294L199.676 550.053C197.268 546.233 197.665 541.266 200.742 537.876C216.061 520.964 259.172 469.318 283.595 399.106Z" fill="#09074A"/>
<mask id="mask0_175_6292" style="mask-type:alpha" maskUnits="userSpaceOnUse" x="184" y="317" width="203" height="311">
<path id="Pants_3" d="M283.595 399.106L258.314 317.766H323.194L357.344 317.766C357.408 337.663 355.04 370.435 342.502 407.752L382.309 593.255C382.804 595.584 381.967 597.91 380.268 599.416L386.318 620.665L361.594 627.787L355.705 607.985L355.551 608.035C352.045 609.181 348.271 607.256 347.191 603.78L307.861 477.224C303.426 483.693 298.593 490.15 293.34 496.561C260.081 537.155 239.352 559.047 228.691 569.579C224.886 573.346 218.965 573.53 214.95 570.452L199.747 582.838L184.652 562.294L199.676 550.053C197.268 546.233 197.665 541.266 200.742 537.876C216.061 520.964 259.172 469.319 283.595 399.107L283.595 399.106Z" fill="white"/>
</mask>
<g mask="url(#mask0_175_6292)">
</g>
</g>
<g id="Overlay">
<path id="Path" opacity="0.0987491" fill-rule="evenodd" clip-rule="evenodd" d="M355.705 607.985L355.55 608.035C352.045 609.181 348.271 607.256 347.191 603.78L307.861 477.223L283.595 399.107L260.368 317.766H323.194L342.502 407.752L382.309 593.255C382.804 595.584 381.967 597.91 380.268 599.416L386.317 620.665L361.594 627.787L355.705 607.985Z" fill="white"/>
</g>
<g id="Pants line">
<path id="Pants line_2" d="M368.966 603.065L358.553 606.722L316.77 463.39L290.992 374.967L274.32 317.766H295.453L299.169 332.191L327.798 443.293L368.966 603.065Z" fill="#EFEFEF"/>
</g>
</g>
</g>
<g id="Man / Body / 5">
<g id="Group 36">
<g id="Skin color">
<path id="Mask" fill-rule="evenodd" clip-rule="evenodd" d="M415.811 245.046C418.334 241.506 420.679 238.218 422.796 235.413C423.083 235.343 423.387 235.268 423.707 235.19C429.456 233.786 440.303 231.136 443.303 228.088C447.756 223.566 453.268 199.799 450.934 197.749C450.921 197.74 450.856 197.689 450.746 197.602C449.4 196.532 441.258 190.066 438.368 190.656C436.425 189.782 435.099 189.199 435.099 189.199L431.06 205.212C430.528 205.67 430.148 206.105 429.974 206.502C429.759 206.991 429.963 207.345 430.459 207.593L429.276 212.283L429.259 212.321C429.201 212.453 429.173 212.575 429.174 212.688L428.663 214.715L425.737 190.678C425.737 190.678 411.72 204.865 408.544 209.469C406.678 212.174 405.373 219.848 406.309 225.718L378.747 257.397L365.249 219.594L335.209 237.282C335.209 237.282 353.615 281.849 369.052 288.123C385.097 288.123 402.827 263.256 415.811 245.046ZM242.653 347.422L238.759 343.966L239.695 285.146L256.752 254.398L229.915 237.282C229.915 237.282 214.672 268.879 214.033 283.113C213.505 294.847 217.813 333.072 219.342 346.131C218.843 347.203 218.395 348.246 218.062 349.155C215.835 355.226 215.592 357.774 215.217 361.715C215.123 362.705 215.021 363.782 214.876 365.025C214.28 370.151 214.239 375.306 216.265 382.165C217.567 386.573 218.957 390.32 219.681 390.162C221.505 389.765 221.575 387.518 221.575 387.518L220.715 383.345L220.325 379.27C220.325 379.27 226.803 397.312 227.352 397.213C229.293 396.861 229.602 393.699 229.602 393.699C229.602 393.699 231.632 399.926 232.653 399.7C235.252 399.126 235.006 396.242 235.006 396.242C235.006 396.242 235.826 396.931 236.456 396.757C238.81 396.106 238.74 392.109 238.699 389.765C238.695 389.577 238.692 389.399 238.691 389.234C238.691 389.234 237.648 381.858 237.861 379.584C238.017 377.919 238.154 376.437 238.276 375.114C239.082 366.364 239.244 364.611 240.052 363.334C241.661 364.384 242.257 366.182 242.889 368.092C243.349 369.48 243.829 370.927 244.731 372.188C247.476 376.024 255.134 379.647 250.853 370.86C248.476 365.98 247.885 362.978 247.336 360.191C247.014 358.557 246.707 356.996 246.063 355.175C244.319 350.246 242.653 347.422 242.653 347.422Z" fill="#FFCCD7"/>
</g>
<g id="T-Shirt">
<path id="T-Shirt_2" fill-rule="evenodd" clip-rule="evenodd" d="M359.204 317.657H259.926L258.262 257.867L228.925 236.697C228.925 236.697 241.351 216.703 267.003 193.583C279.606 187.751 282.122 187.546 287.236 187.128C287.966 187.068 288.749 187.004 289.622 186.919H290.649H291.676L294.757 186.919L300.919 186.919L308.108 186.919L312.216 186.919L319.405 186.919L324.54 188.973L328.649 191.027H330.703L332.024 191.278C345.738 194.971 358.698 202.585 366.274 216.088C366.885 217.176 367.443 218.224 367.951 219.233L368.059 219.212L368.39 220.118C370.221 223.884 371.345 227.095 371.941 229.83L378.213 246.981L362.889 256.257L359.204 317.657Z" fill="#9087E5"/>
</g>
<path id="Stroke 16" opacity="0.200521" d="M258.26 257.864L266.223 263.195L285.364 241.206" stroke="#0C092A" stroke-width="5"/>
<path id="Phone" d="M440.056 218.994L438.669 225.708H416.208L426.803 172.261H449.264C448.682 175.198 447.311 182.116 445.15 193.014L440.734 190.994L439.358 190.618L438.275 190.678L437.806 190.994V192.293L442.607 199.106L438.934 200.684L433.283 203.609L431.65 204.725L431.018 205.303L430.501 205.759L430.172 206.151L429.974 206.502L429.889 206.957L429.974 207.159L430.072 207.314L430.215 207.454L432.067 208.099L436.293 206.957H440.469L434.895 208.099L431.222 210.268L429.974 211.428L429.269 212.281V213.062L430.501 213.609L438.275 212.728L435.701 214.11L433.995 215.154L432.431 215.949L431.222 217.489V218.249L431.65 218.695L432.736 219.265H434.392H437.727L440.056 218.994Z" fill="#5E93D1"/>
<path id="Fill 23" fill-rule="evenodd" clip-rule="evenodd" d="M416.205 225.708H412.488L423.083 172.261H426.799L416.205 225.708Z" fill="#020101"/>
<path id="Fill 34" fill-rule="evenodd" clip-rule="evenodd" d="M430.668 178.467C430.357 180.028 429.437 181.165 428.612 181.006C427.787 180.847 427.37 179.453 427.681 177.892C427.991 176.33 428.912 175.194 429.737 175.352C430.562 175.512 430.978 176.906 430.668 178.467Z" fill="#020101"/>
</g>
</g>
<g id="Group 782">
<path id="Path_2" d="M316.57 206C315.989 206.001 315.408 205.971 314.832 205.91C310.999 205.511 307.506 203.801 305.119 201.155C302.731 198.509 301.646 195.144 302.102 191.799L308.995 141.197C309.452 137.852 311.413 134.803 314.446 132.72C315.948 131.688 317.668 130.925 319.508 130.474C321.348 130.023 323.272 129.892 325.17 130.089C327.067 130.287 328.902 130.809 330.569 131.625C332.235 132.441 333.701 133.536 334.883 134.846C336.065 136.157 336.94 137.659 337.457 139.264C337.974 140.87 338.124 142.549 337.898 144.205L331.004 194.807C330.582 197.89 328.88 200.731 326.221 202.794C323.561 204.856 320.128 205.997 316.57 206Z" fill="#FFCCD7"/>
<path id="Path_3" d="M330.167 182.036L333.411 182.398C337.183 182.823 341.003 182.412 344.599 181.193C348.194 179.974 351.477 177.978 354.213 175.346C356.949 172.715 359.072 169.513 360.429 165.967C361.787 162.422 362.347 158.621 362.069 154.835L360.692 136.079C360.247 130.021 357.682 124.314 353.448 119.959C349.213 115.604 343.579 112.881 337.537 112.267C330.72 111.575 323.907 113.62 318.598 117.951C313.288 122.283 309.917 128.545 309.225 135.362L307.358 153.752C306.67 160.52 308.68 167.286 312.95 172.581C317.221 177.876 323.407 181.273 330.167 182.036Z" fill="#FFCCD7"/>
<path id="Path_4" d="M315.139 162.1L315.143 162.097C319.611 159.349 321.005 153.498 318.256 149.029L315.432 144.439C312.683 139.971 306.832 138.577 302.364 141.326L302.361 141.328C297.892 144.077 296.499 149.928 299.248 154.396L302.072 158.986C304.821 163.454 310.671 164.848 315.139 162.1Z" fill="#FFCCD7"/>
<path id="Path_5" d="M303.433 148.749L311.049 156.799" stroke="#001833" stroke-linecap="square"/>
<path id="Path_6" d="M348.714 138.461L349.25 153.535L343.888 153.752" stroke="#001833" stroke-linecap="square"/>
<path id="Path_7" d="M332.743 158.433C332.3 159.252 332.023 160.151 331.927 161.078C331.831 162.004 331.918 162.94 332.184 163.833C332.45 164.726 332.889 165.557 333.477 166.28C334.064 167.004 334.788 167.604 335.607 168.047C336.426 168.49 337.325 168.768 338.251 168.863C339.178 168.959 340.114 168.872 341.007 168.606C341.9 168.34 342.731 167.901 343.454 167.313C344.177 166.726 344.777 166.003 345.221 165.183C347.084 161.734 343.458 160.16 339.988 158.296C336.519 156.433 334.607 154.988 332.743 158.433Z" fill="#001833"/>
<path id="Path_8" d="M317.135 155.708L324.379 128.496L326.098 122.056C327.713 123.786 329.603 125.238 331.693 126.35C339.276 130.432 362.138 128.806 365.305 112.774C367.889 99.7011 354.007 107.216 346.899 106.399C335.73 105.111 327.982 98.5378 312.687 106.801C294.394 116.698 303.059 140.961 303.059 140.961C303.059 140.961 311.109 137.809 317.135 155.708Z" fill="#001833"/>
<path id="Path_9" opacity="0.4" d="M332.166 182.478L322.478 181.597L331.325 190.23L332.166 182.478Z" fill="#0C092A"/>
<path id="Path_10" d="M338.39 146.604C339.859 146.604 341.051 145.413 341.051 143.943C341.051 142.474 339.859 141.283 338.39 141.283C336.921 141.283 335.73 142.474 335.73 143.943C335.73 145.413 336.921 146.604 338.39 146.604Z" fill="#001833"/>
<path id="Path_11" d="M354.261 146.604C355.73 146.604 356.921 145.413 356.921 143.943C356.921 142.474 355.73 141.283 354.261 141.283C352.791 141.283 351.6 142.474 351.6 143.943C351.6 145.413 352.791 146.604 354.261 146.604Z" fill="#001833"/>
</g>
<g id="Group 235">
<path id="Path_12" d="M581.07 32H453.07V136H581.07V32Z" fill="#C4D0FB"/>
<path id="Path_13" d="M517.07 120.679C522.372 120.679 526.67 117.135 526.67 112.762C526.67 108.389 522.372 104.844 517.07 104.844C511.768 104.844 507.47 108.389 507.47 112.762C507.47 117.135 511.768 120.679 517.07 120.679Z" fill="white"/>
<path id="Path_14" d="M514.216 86.4708C515.84 83.6971 517.772 81.112 519.976 78.7643C521.595 77.0634 523.048 75.2141 524.314 73.2415C525.263 71.6243 525.743 69.7795 525.703 67.9096C525.703 65.1287 524.789 62.8765 522.961 61.153C521.133 59.4296 518.687 58.5664 515.624 58.563C509.82 58.563 505.439 61.1173 502.481 66.2254L494.67 59.9682C496.799 56.2393 499.886 53.1342 503.618 50.9691C507.274 48.88 511.574 47.8356 516.518 47.8356C522.539 47.8356 527.336 49.443 530.91 52.6583C534.484 55.8736 536.269 60.3045 536.266 65.9512C536.312 68.3758 535.946 70.7905 535.184 73.0946C534.56 74.9478 533.679 76.706 532.566 78.3188C531.309 80.0192 529.963 81.6535 528.534 83.2149C526.81 85.0416 525.283 87.0421 523.978 89.1832C522.944 91.0706 522.433 93.1956 522.496 95.3425H512.239C512.239 91.7845 512.898 88.8273 514.216 86.4708Z" fill="white"/>
</g>
</g>
</g>
</svg>
