<svg width="360" height="242" viewBox="0 0 360 242" fill="none" xmlns="http://www.w3.org/2000/svg">
<g filter="url(#filter0_d_127_3269)">
<path d="M267.17 13.5275H219.13V81.4684H267.17V13.5275Z" fill="#B9B2F0"/>
<path d="M242.304 62.8684C244.549 62.8684 246.368 61.0528 246.368 58.813C246.368 56.5732 244.549 54.7576 242.304 54.7576C240.06 54.7576 238.24 56.5732 238.24 58.813C238.24 61.0528 240.06 62.8684 242.304 62.8684Z" fill="white"/>
<path d="M240.982 47.4484C241.757 46.1166 242.678 44.8753 243.729 43.748C244.501 42.9313 245.194 42.0433 245.798 41.0961C246.25 40.3196 246.479 39.4337 246.46 38.5359C246.46 37.2005 246.024 36.1191 245.152 35.2915C244.281 34.464 243.114 34.0495 241.654 34.0479C238.886 34.0479 236.797 35.2744 235.387 37.7271L231.662 34.7226C232.678 32.9321 234.15 31.4411 235.929 30.4015C237.672 29.3983 239.723 28.8969 242.08 28.8969C244.951 28.8969 247.239 29.6687 248.943 31.2126C250.647 32.7565 251.498 34.8841 251.497 37.5955C251.519 38.7597 251.344 39.9192 250.981 41.0256C250.683 41.9154 250.263 42.7596 249.732 43.534C249.133 44.3505 248.491 45.1353 247.81 45.885C246.988 46.7622 246.26 47.7228 245.638 48.7509C245.145 49.6572 244.901 50.6775 244.931 51.7084H240.04C240.04 49.9999 240.354 48.5799 240.982 47.4484Z" fill="white"/>
<path d="M219.099 48.5171L210.059 48.9003C210.059 48.9003 213.829 30.3276 219.099 28.3104L219.144 38.6007C220.958 37.089 222.894 35.7231 223.585 36.0992C224.873 36.7904 219.099 48.5171 219.099 48.5171Z" fill="#FFCCD7"/>
<path d="M256.196 212.942L255.904 230.008L296.037 219.67L275.453 214.266L256.196 212.942Z" fill="#0D0B6D"/>
<path d="M286.085 99.5897L299.451 100.572L292.128 63.7209L283.751 87.3529L286.085 99.5897Z" fill="#0D0B6D"/>
<path d="M209.032 151.466C209.426 151.09 213.817 126.024 216.604 109.915C217.292 105.948 219.101 102.26 221.82 99.2862C224.539 96.312 228.053 94.1756 231.948 93.1292L282.394 79.5852L290.512 104.759L245.278 120.095L242.524 152.503" fill="#09074A"/>
<path d="M174.673 154.819L176.506 158.992C178.385 163.264 181.553 166.844 185.568 169.235C189.582 171.626 194.244 172.707 198.904 172.329L230.926 169.722L250.786 220.646C250.786 220.646 280.653 213.269 279.783 212.112C279.175 211.301 265.445 173.902 257.246 151.492C255.536 146.814 252.275 142.857 248.009 140.276C243.74 137.694 238.717 136.642 233.77 137.292L188.352 143.261" fill="#09074A"/>
<path d="M177.776 167.834L205.699 156.265L200.033 138.907L169.453 146.282L177.776 167.834Z" fill="#3361C2"/>
<path d="M171.627 128.963L175.854 143.677L199.465 137.168L205.699 156.265L168.873 171.518C167.235 172.198 165.467 172.508 163.694 172.428C161.922 172.347 160.189 171.878 158.619 171.052C157.05 170.226 155.683 169.065 154.614 167.652C153.546 166.238 152.804 164.606 152.441 162.873C148.508 143.974 145.794 111.481 171.403 105.933C178.151 104.47 195.559 76.6935 195.559 76.6935L200.153 49.6573L220.178 47.6166L217.822 80.8171C217.568 84.3659 216.326 87.7732 214.237 90.6559L197.427 113.839L212.505 139.342L173.799 161.329" fill="#9087E5"/>
<mask id="mask0_127_3269" style="mask-type:alpha" maskUnits="userSpaceOnUse" x="149" y="47" width="72" height="126">
<path fill-rule="evenodd" clip-rule="evenodd" d="M171.627 128.963L175.854 143.677L199.465 137.168L205.699 156.265L168.873 171.518C167.235 172.198 165.467 172.508 163.694 172.428C161.922 172.347 160.189 171.878 158.619 171.052C157.05 170.226 155.683 169.065 154.614 167.652C153.546 166.238 152.804 164.606 152.441 162.873C148.508 143.974 145.794 111.481 171.403 105.933C178.151 104.47 195.559 76.6935 195.559 76.6935L200.153 49.6573L220.178 47.6166L217.822 80.8171C217.568 84.3659 216.326 87.7732 214.237 90.6559L197.427 113.839L212.505 139.342L173.799 161.329" fill="white"/>
</mask>
<g mask="url(#mask0_127_3269)">
<path d="M211.068 150.653C214.243 150.653 216.816 148.085 216.816 144.916C216.816 141.748 214.243 139.18 211.068 139.18C207.893 139.18 205.319 141.748 205.319 144.916C205.319 148.085 207.893 150.653 211.068 150.653Z" fill="#EFEFEF"/>
<path d="M223.939 135.633C227.113 135.633 229.687 133.064 229.687 129.896C229.687 126.728 227.113 124.16 223.939 124.16C220.764 124.16 218.19 126.728 218.19 129.896C218.19 133.064 220.764 135.633 223.939 135.633Z" fill="#EFEFEF"/>
<path d="M221.281 167.545C224.455 167.545 227.029 164.976 227.029 161.808C227.029 158.64 224.455 156.072 221.281 156.072C218.106 156.072 215.532 158.64 215.532 161.808C215.532 164.976 218.106 167.545 221.281 167.545Z" fill="#EFEFEF"/>
<path d="M170.077 83.0718C173.252 83.0718 175.825 80.5035 175.825 77.3354C175.825 74.1672 173.252 71.599 170.077 71.599C166.902 71.599 164.329 74.1672 164.329 77.3354C164.329 80.5035 166.902 83.0718 170.077 83.0718Z" fill="#EFEFEF"/>
<path d="M146.939 81.1957C150.114 81.1957 152.688 78.6274 152.688 75.4593C152.688 72.2911 150.114 69.7229 146.939 69.7229C143.765 69.7229 141.191 72.2911 141.191 75.4593C141.191 78.6274 143.765 81.1957 146.939 81.1957Z" fill="#EFEFEF"/>
<path d="M180.29 99.9635C183.465 99.9635 186.038 97.3953 186.038 94.2271C186.038 91.0589 183.465 88.4907 180.29 88.4907C177.115 88.4907 174.541 91.0589 174.541 94.2271C174.541 97.3953 177.115 99.9635 180.29 99.9635Z" fill="#EFEFEF"/>
<path d="M157.152 98.0874C160.327 98.0874 162.901 95.5192 162.901 92.351C162.901 89.1829 160.327 86.6146 157.152 86.6146C153.978 86.6146 151.404 89.1829 151.404 92.351C151.404 95.5192 153.978 98.0874 157.152 98.0874Z" fill="#EFEFEF"/>
<path d="M182.973 68.056C186.148 68.056 188.722 65.4878 188.722 62.3196C188.722 59.1515 186.148 56.5833 182.973 56.5833C179.799 56.5833 177.225 59.1515 177.225 62.3196C177.225 65.4878 179.799 68.056 182.973 68.056Z" fill="#EFEFEF"/>
<path d="M159.836 66.1776C163.011 66.1776 165.584 63.6094 165.584 60.4412C165.584 57.2731 163.011 54.7049 159.836 54.7049C156.661 54.7049 154.087 57.2731 154.087 60.4412C154.087 63.6094 156.661 66.1776 159.836 66.1776Z" fill="#EFEFEF"/>
<path d="M213.723 118.741C216.898 118.741 219.471 116.173 219.471 113.004C219.471 109.836 216.898 107.268 213.723 107.268C210.548 107.268 207.975 109.836 207.975 113.004C207.975 116.173 210.548 118.741 213.723 118.741Z" fill="#EFEFEF"/>
<path d="M144.31 113.108C147.485 113.108 150.059 110.54 150.059 107.371C150.059 104.203 147.485 101.635 144.31 101.635C141.136 101.635 138.562 104.203 138.562 107.371C138.562 110.54 141.136 113.108 144.31 113.108Z" fill="#EFEFEF"/>
</g>
<path fill-rule="evenodd" clip-rule="evenodd" d="M171.514 108.382L174.129 86.1562L171.514 108.382Z" fill="#FFCCD7"/>
<path d="M171.514 108.382L174.129 86.1562" stroke="#FFCCD7" stroke-width="12" stroke-linecap="round"/>
<path d="M234.615 169.969L230.236 169.505L231.675 164.004" stroke="#6A5AE0" stroke-linecap="square"/>
<path d="M170.042 145.422L173.981 144.442" stroke="#6A5AE0" stroke-linecap="square"/>
<path d="M202.909 147.963C202.909 147.933 211.117 140.464 211.117 140.464L220.835 138.428C220.835 138.428 212.856 130.757 200.574 140.593" fill="#FFCCD7"/>
<path d="M245.568 115.572L246.195 120.636L239.69 120.539" stroke="#6A5AE0" stroke-linecap="square"/>
<path d="M170.419 128.958L173.953 144.51L199.465 137.168L203.051 148.151L211.341 140.038L233.993 137.062C233.993 137.062 240.555 136.03 243.768 138.089" stroke="#6A5AE0" stroke-linecap="square"/>
<path d="M149.927 59.3983H44.1879V111.661H149.927V59.3983Z" fill="#9087E5"/>
<path d="M356 114.396H262.09V155.392H356V114.396Z" fill="#9087E5"/>
<path d="M231.795 172.446H114.651V221.006H231.795V172.446Z" fill="#9087E5"/>
<path d="M150.999 208.13H125.578L138.288 186.816L150.999 208.13Z" fill="#ECF6FF"/>
<path d="M185.932 208.13H160.514L173.222 186.816L185.932 208.13Z" fill="#ECF6FF"/>
<path d="M220.866 208.13H195.448L208.156 186.816L220.866 208.13Z" fill="#ECF6FF"/>
<path d="M292.826 148.128C294.527 148.128 295.907 146.751 295.907 145.053C295.907 143.354 294.527 141.978 292.826 141.978C291.125 141.978 289.744 143.354 289.744 145.053C289.744 146.751 291.125 148.128 292.826 148.128Z" fill="#ECF6FF"/>
<path d="M294.963 122.808H290.687V139.735H294.963V122.808Z" fill="#ECF6FF"/>
<path d="M307.866 148.128C309.567 148.128 310.948 146.751 310.948 145.053C310.948 143.354 309.567 141.978 307.866 141.978C306.165 141.978 304.784 143.354 304.784 145.053C304.784 146.751 306.165 148.128 307.866 148.128Z" fill="#ECF6FF"/>
<path d="M310.005 122.808H305.729V139.735H310.005V122.808Z" fill="#ECF6FF"/>
<path d="M322.909 148.128C324.61 148.128 325.99 146.751 325.99 145.053C325.99 143.354 324.61 141.978 322.909 141.978C321.208 141.978 319.827 143.354 319.827 145.053C319.827 146.751 321.208 148.128 322.909 148.128Z" fill="#ECF6FF"/>
<path d="M325.045 122.808H320.769V139.735H325.045V122.808Z" fill="#ECF6FF"/>
<path d="M77.2157 102.228C79.4601 102.228 81.2796 100.413 81.2796 98.1729C81.2796 95.9331 79.4601 94.1174 77.2157 94.1174C74.9712 94.1174 73.1517 95.9331 73.1517 98.1729C73.1517 100.413 74.9712 102.228 77.2157 102.228Z" fill="#ECF6FF"/>
<path d="M80.038 68.828H74.3956V91.1576H80.038V68.828Z" fill="#ECF6FF"/>
<path d="M97.0573 102.228C99.3018 102.228 101.121 100.413 101.121 98.1729C101.121 95.9331 99.3018 94.1174 97.0573 94.1174C94.8128 94.1174 92.9933 95.9331 92.9933 98.1729C92.9933 100.413 94.8128 102.228 97.0573 102.228Z" fill="#ECF6FF"/>
<path d="M116.901 102.228C119.146 102.228 120.965 100.413 120.965 98.1729C120.965 95.9331 119.146 94.1174 116.901 94.1174C114.657 94.1174 112.837 95.9331 112.837 98.1729C112.837 100.413 114.657 102.228 116.901 102.228Z" fill="#ECF6FF"/>
<path d="M119.721 68.828H114.079V91.1576H119.721V68.828Z" fill="#ECF6FF"/>
<path d="M343.69 119.519L350.666 126.48" stroke="#ECF6FF" stroke-width="5"/>
<path d="M350.666 119.519L343.69 126.48" stroke="#ECF6FF" stroke-width="5"/>
<path d="M120.534 178.286L127.941 185.68" stroke="#ECF6FF" stroke-width="5"/>
<path d="M127.941 178.286L120.534 185.68" stroke="#ECF6FF" stroke-width="5"/>
<path d="M49.8185 99.4942L57.2256 106.888" stroke="#ECF6FF" stroke-width="5"/>
<path d="M57.2256 99.4942L49.8185 106.888" stroke="#ECF6FF" stroke-width="5"/>
<path d="M141.377 63.9169L145.698 68.2286" stroke="#ECF6FF" stroke-width="5"/>
<path d="M145.698 63.9169L141.377 68.2286" stroke="#ECF6FF" stroke-width="5"/>
<path d="M256.427 71.378L261.544 76.4843" stroke="white"/>
<path d="M261.544 71.378L256.427 76.4843" stroke="white"/>
<path d="M95.7356 86.8083C96.51 85.4765 97.4314 84.2352 98.4826 83.1079C99.2544 82.2911 99.9471 81.4032 100.551 80.456C101.003 79.6794 101.232 78.7936 101.213 77.8958C101.213 76.5604 100.777 75.479 99.9056 74.6514C99.0339 73.8239 97.8677 73.4094 96.407 73.4077C93.6395 73.4077 91.5505 74.6343 90.1403 77.087L86.4155 74.0825C87.4309 72.292 88.9029 70.801 90.6821 69.7614C92.4255 68.7582 94.4759 68.2568 96.8335 68.2568C99.7044 68.2568 101.992 69.0286 103.696 70.5725C105.4 72.1164 106.252 74.244 106.25 76.9554C106.272 78.1196 106.098 79.2791 105.734 80.3854C105.437 81.2753 105.016 82.1195 104.486 82.8939C103.886 83.7104 103.244 84.4952 102.563 85.2449C101.741 86.1221 101.013 87.0827 100.391 88.1107C99.8978 89.017 99.654 90.0374 99.6841 91.0683H94.7932C94.7932 89.3598 95.1073 87.9398 95.7356 86.8083Z" fill="#ECF6FF"/>
<path d="M175.182 106.821L176.513 106.805C183.11 106.732 187.984 100.316 186.684 93.4513L185.171 85.458C184.163 80.1354 179.708 76.3409 174.605 76.4585C168.798 76.5901 164.204 81.7011 164.345 87.8724L164.529 95.8658C164.668 101.995 169.42 106.873 175.182 106.821Z" fill="#FFCCD7"/>
<path d="M179.378 89.5769L180.961 95.9104L178.707 96.4841" stroke="#0C092A"/>
<path d="M168.842 96.1878L170.492 84.1156L170.885 81.2497C171.672 81.9066 172.563 82.4285 173.521 82.7943C177.003 84.1414 186.755 82.2183 187.256 75.1654C187.666 69.4126 182.097 73.3834 178.994 73.4116C174.12 73.4586 170.428 71.0606 164.296 75.4169C156.952 80.6455 161.982 90.5995 161.982 90.5995C161.982 90.5995 165.29 88.8293 168.842 96.1878Z" fill="#001833"/>
<path d="M174.673 92.0783C175.31 92.0783 175.825 91.5637 175.825 90.9287C175.825 90.2937 175.31 89.7791 174.673 89.7791C174.037 89.7791 173.521 90.2937 173.521 90.9287C173.521 91.5637 174.037 92.0783 174.673 92.0783Z" fill="#0C092A"/>
<path d="M181.762 91.3213C182.399 91.3213 182.914 90.8067 182.914 90.1717C182.914 89.5367 182.399 89.022 181.762 89.022C181.126 89.022 180.61 89.5367 180.61 90.1717C180.61 90.8067 181.126 91.3213 181.762 91.3213Z" fill="#0C092A"/>
<path d="M176.591 98.7856C176.591 98.7856 176.259 96.4135 173.571 96.2724" stroke="#0C092A"/>
<path d="M163.761 99.5619C165.184 101.334 167.777 101.619 169.552 100.2C171.328 98.78 171.613 96.1925 170.19 94.4203L167.695 91.3145C166.272 89.5425 163.679 89.2569 161.904 90.6766C160.129 92.0966 159.843 94.6839 161.267 96.456L163.761 99.5619Z" fill="#FFCCD7"/>
<path d="M162.807 93.2256L166.517 96.2748" stroke="#0C092A"/>
<path opacity="0.4" d="M177.551 107L174.757 107.649L177.34 109.402L177.551 107Z" fill="#0C092A"/>
<path d="M210.408 135.776C210.408 135.776 216.788 134.086 220.836 138.423" stroke="#6A5AE0" stroke-linecap="square"/>
</g>
<defs>
<filter id="filter0_d_127_3269" x="40.1879" y="13.5275" width="319.812" height="224.48" filterUnits="userSpaceOnUse" color-interpolation-filters="sRGB">
<feFlood flood-opacity="0" result="BackgroundImageFix"/>
<feColorMatrix in="SourceAlpha" type="matrix" values="0 0 0 0 0 0 0 0 0 0 0 0 0 0 0 0 0 0 127 0" result="hardAlpha"/>
<feOffset dy="4"/>
<feGaussianBlur stdDeviation="2"/>
<feComposite in2="hardAlpha" operator="out"/>
<feColorMatrix type="matrix" values="0 0 0 0 0 0 0 0 0 0 0 0 0 0 0 0 0 0 0.25 0"/>
<feBlend mode="normal" in2="BackgroundImageFix" result="effect1_dropShadow_127_3269"/>
<feBlend mode="normal" in="SourceGraphic" in2="effect1_dropShadow_127_3269" result="shape"/>
</filter>
</defs>
</svg>
