<svg width="343" height="264" viewBox="0 0 343 264" fill="none" xmlns="http://www.w3.org/2000/svg">
<path d="M176.604 139.674C176.523 140.548 176.262 141.395 175.839 142.162C175.415 142.93 174.839 143.6 174.145 144.132C172.88 145.106 171.297 145.561 169.712 145.407C168.468 145.287 167.287 144.799 166.319 144.003C165.351 143.207 164.639 142.139 164.272 140.936C163.906 139.732 163.902 138.446 164.262 137.24C164.621 136.034 165.327 134.962 166.29 134.161C167.254 133.359 168.432 132.863 169.675 132.736C170.919 132.609 172.172 132.856 173.275 133.446C174.379 134.036 175.285 134.943 175.877 136.051C176.47 137.16 176.723 138.42 176.604 139.674Z" fill="#7C72E5"/>
<path d="M181.555 243.798L95.4958 179.046" stroke="#C4D0FB" stroke-width="4"/>
<path fill-rule="evenodd" clip-rule="evenodd" d="M162.486 69.9247L254.384 125.567L162.486 69.9247Z" fill="#C4D0FB"/>
<path d="M162.486 69.9247L254.384 125.567" stroke="#C4D0FB" stroke-width="4"/>
<path d="M183.85 239.721L278.16 177.711" stroke="#C4D0FB" stroke-width="4"/>
<path d="M110.387 92.6969L79.6119 150.706" stroke="#C4D0FB" stroke-width="4"/>
<path fill-rule="evenodd" clip-rule="evenodd" d="M325.829 69.9247L308.383 113.418L325.829 69.9247Z" fill="#C4D0FB"/>
<path d="M325.829 69.9247L308.383 113.418" stroke="#C4D0FB" stroke-width="4"/>
<path fill-rule="evenodd" clip-rule="evenodd" d="M257.975 25.0885L324.868 65.7426L257.975 25.0885Z" fill="#70D6F5"/>
<path d="M257.975 25.0885L324.868 65.7426" stroke="#C4D0FB" stroke-width="4"/>
<path d="M46.1534 23.0075L110.136 45.0208" stroke="#C4D0FB" stroke-width="4"/>
<path d="M332.818 150.913C332.164 157.745 330.034 164.351 326.576 170.266C323.12 176.18 318.421 181.262 312.809 185.154C307.197 189.045 300.807 191.653 294.088 192.794C287.371 193.934 280.487 193.58 273.918 191.757C267.351 189.933 261.258 186.684 256.067 182.237C250.879 177.79 246.716 172.253 243.874 166.015C241.035 159.776 239.581 152.987 239.621 146.123C239.66 139.259 241.188 132.487 244.101 126.281C252.285 108.89 270.635 97.6655 290.752 99.5998C316.438 102.068 335.273 125.043 332.818 150.913Z" fill="#C4D0FB"/>
<path d="M60.8532 24.5489C60.5947 27.2776 59.4693 29.8495 57.644 31.8822C55.8188 33.9151 53.3912 35.3003 50.722 35.832C48.053 36.3636 45.2849 36.0135 42.8292 34.8335C40.3734 33.6536 38.3609 31.7068 37.0912 29.2825C36.8175 28.7623 36.5806 28.2233 36.3823 27.6696C35.7382 25.874 35.503 23.9553 35.6944 22.0557C35.8858 20.1562 36.4987 18.3243 37.4878 16.6956C38.4769 15.0669 39.8167 13.6831 41.4084 12.6466C42.9999 11.6102 44.8025 10.9475 46.6826 10.7078C48.5628 10.468 50.4725 10.6572 52.2702 11.2615C54.068 11.8657 55.7078 12.8695 57.0685 14.1985C58.4292 15.5276 59.4758 17.1479 60.1309 18.9395C60.7861 20.7311 61.0328 22.6482 60.8532 24.5489Z" fill="#C4D0FB"/>
<path d="M194.711 242.952C194.482 245.386 193.575 247.708 192.097 249.646C190.617 251.586 188.625 253.065 186.349 253.914C184.071 254.764 181.605 254.949 179.228 254.448C176.852 253.948 174.663 252.783 172.916 251.086C171.492 249.705 170.4 248.013 169.727 246.14C169.07 244.307 168.828 242.348 169.025 240.408C169.22 238.469 169.846 236.599 170.855 234.936C171.864 233.273 173.233 231.86 174.858 230.802C176.482 229.744 178.322 229.067 180.242 228.822C182.162 228.577 184.112 228.77 185.947 229.387C187.783 230.004 189.455 231.028 190.845 232.385C192.234 233.742 193.303 235.396 193.973 237.225C194.642 239.055 194.894 241.011 194.711 242.952Z" fill="#C4D0FB"/>
<path d="M339.397 67.3654C339.139 70.0943 338.013 72.6664 336.189 74.6995C334.364 76.7324 331.936 78.1179 329.267 78.6498C326.597 79.1819 323.829 78.8317 321.373 77.6519C318.917 76.4721 316.905 74.5253 315.635 72.101C315.361 71.5804 315.125 71.0414 314.924 70.4881C314.278 68.692 314.044 66.7728 314.235 64.8726C314.426 62.9725 315.038 61.1397 316.027 59.5104C317.015 57.881 318.356 56.4964 319.947 55.4594C321.54 54.4223 323.342 53.7592 325.223 53.5194C327.105 53.2793 329.015 53.4686 330.813 54.0731C332.611 54.6774 334.251 55.6816 335.612 57.0112C336.973 58.3409 338.02 59.9617 338.676 61.754C339.33 63.5464 339.576 65.464 339.397 67.3654Z" fill="#C4D0FB"/>
<path d="M266.967 23.6225C266.803 25.3707 266.281 27.0657 265.433 28.6003C264.586 30.135 263.432 31.4757 262.044 32.5381C261.589 32.8884 261.112 33.2067 260.614 33.4904C258.245 34.8466 255.504 35.3943 252.8 35.0517C250.097 34.7093 247.574 33.4947 245.613 31.5898C244.219 30.2366 243.15 28.5792 242.49 26.7451C241.846 24.9495 241.612 23.031 241.803 21.1314C241.994 19.2319 242.606 17.4 243.595 15.7713C244.583 14.1426 245.924 12.7587 247.515 11.7222C249.106 10.6856 250.91 10.0229 252.789 9.78298C254.669 9.54306 256.579 9.73213 258.377 10.3362C260.175 10.9403 261.813 11.9439 263.176 13.2727C264.537 14.6016 265.582 16.2217 266.238 18.0132C266.894 19.8047 267.14 21.7217 266.961 23.6225H266.967Z" fill="#C4D0FB"/>
<path d="M240.95 122.401L242.153 120.197C242.659 119.096 243.108 117.971 243.5 116.824C244.107 115.025 243.894 112.459 246.55 110.037C249.207 107.615 245.278 108.283 243.951 109.4C242.844 110.331 241.944 112.971 240.844 113.566C240.592 113.208 240.393 112.815 240.253 112.4L237.847 101.04C237.811 100.858 237.713 100.695 237.569 100.58C237.423 100.466 237.242 100.408 237.059 100.417L236.618 100.431C236.512 100.437 236.407 100.465 236.311 100.514C236.216 100.563 236.131 100.631 236.065 100.714C235.996 100.798 235.946 100.895 235.919 100.999C235.889 101.103 235.883 101.211 235.899 101.318C236.269 103.748 237.555 110.979 237.425 110.983L237.159 111.11L233.469 99.6038C233.418 99.422 233.302 99.2659 233.144 99.1647C232.985 99.0638 232.796 99.0251 232.611 99.0562L232.02 99.1554C231.917 99.1717 231.819 99.2088 231.732 99.2647C231.644 99.3205 231.569 99.3937 231.51 99.48C231.453 99.5661 231.411 99.6635 231.392 99.7661C231.372 99.8684 231.374 99.974 231.396 100.076C231.963 102.722 234.615 111.529 234.481 111.537L234.156 111.648L230.153 102.125C230.098 101.936 229.972 101.775 229.801 101.676C229.631 101.577 229.43 101.547 229.239 101.594L228.769 101.711C228.67 101.735 228.578 101.778 228.497 101.838C228.416 101.899 228.347 101.974 228.294 102.061C228.243 102.148 228.208 102.245 228.192 102.345C228.176 102.446 228.182 102.548 228.206 102.647L231.807 112.015L231.476 112.225L227.703 105.458C227.631 105.284 227.497 105.143 227.327 105.061C227.16 104.979 226.967 104.962 226.786 105.014L226.561 105.081C226.368 105.138 226.207 105.268 226.108 105.444C226.01 105.619 225.982 105.827 226.034 106.022C226.396 107.41 228.2 110.325 229.249 113.362C230.07 115.715 230.127 117.6 231.482 120.449C232.053 121.657 233.14 123.091 233.733 123.891" fill="#FFCCD7"/>
<path d="M309.367 187.379C300.61 192.382 290.483 194.4 280.493 193.134C270.505 191.868 261.189 187.385 253.935 180.352L254.498 165.804L236.421 162.797C233.753 162.058 231.433 160.386 229.879 158.08C228.326 155.774 227.638 152.986 227.942 150.215L229.421 121.659L243.703 122.651L244.097 126.285L246.304 145.466C246.304 145.466 261.246 147.348 281.637 152.608C301.486 157.728 307.333 175.486 309.367 187.379Z" fill="#9087E5"/>
<path d="M254.301 165.619L254.468 160.662" stroke="#C4D0FB" stroke-linecap="square"/>
<path d="M293.814 134.801C299.289 127.77 298.509 117.946 292.072 112.86C285.636 107.773 275.98 109.35 270.505 116.381C265.031 123.412 265.811 133.236 272.248 138.322C278.685 143.409 288.34 141.832 293.814 134.801Z" fill="#001833"/>
<path d="M272.234 158.293C271.159 157.509 270.368 156.394 269.98 155.116C269.59 153.838 269.625 152.467 270.078 151.211L277.187 131.547C277.429 130.749 277.831 130.009 278.366 129.373C278.9 128.736 279.56 128.216 280.3 127.844C281.042 127.472 281.85 127.255 282.677 127.208C283.504 127.161 284.331 127.283 285.109 127.568C285.889 127.853 286.599 128.295 287.204 128.866C287.807 129.438 288.289 130.127 288.62 130.892C288.951 131.656 289.124 132.481 289.128 133.315C289.132 134.15 288.968 134.976 288.645 135.744L281.535 155.411C281.21 156.302 280.686 157.106 280.003 157.76C279.319 158.413 278.494 158.898 277.594 159.176C276.693 159.455 275.739 159.52 274.81 159.366C273.881 159.211 272.998 158.842 272.234 158.287V158.293Z" fill="#FFCCD7"/>
<path d="M273.441 147.328L272.26 146.886C270.885 146.372 269.641 145.56 268.615 144.506C267.587 143.452 266.805 142.184 266.319 140.79C265.834 139.397 265.661 137.913 265.811 136.444C265.96 134.975 266.429 133.558 267.183 132.292L270.925 126.023C272.132 123.999 274.009 122.467 276.226 121.698C278.441 120.929 280.855 120.971 283.045 121.817C285.514 122.772 287.505 124.676 288.582 127.111C289.658 129.545 289.73 132.31 288.783 134.798L286.223 141.51C285.282 143.98 283.413 145.976 281.019 147.066C278.626 148.155 275.903 148.25 273.441 147.328Z" fill="#FFCCD7"/>
<path d="M274.385 129.58L269.263 133.77L271.273 135.291" stroke="#0C092A" stroke-linecap="square"/>
<path d="M275.686 132.54C276.283 132.54 276.767 132.053 276.767 131.451C276.767 130.85 276.283 130.362 275.686 130.362C275.09 130.362 274.605 130.85 274.605 131.451C274.605 132.053 275.09 132.54 275.686 132.54Z" fill="#0C092A"/>
<path d="M271.191 130.249C271.787 130.249 272.272 129.761 272.272 129.16C272.272 128.558 271.787 128.071 271.191 128.071C270.594 128.071 270.109 128.558 270.109 129.16C270.109 129.761 270.594 130.249 271.191 130.249Z" fill="#0C092A"/>
<path d="M303.964 164.027C303.964 164.027 298.978 176.603 289.266 171.016C273.187 161.765 276.49 149.6 281.023 144.035C282.828 141.819 285.355 140.837 287.992 140.032C280.326 133.221 284.095 127.797 284.095 127.797C284.095 127.797 263.592 126.47 270.222 116.671C276.852 106.873 288.695 108.156 294.972 112.412C309.564 122.308 304.598 132.394 307.927 136.108C326.806 157.182 303.964 164.027 303.964 164.027Z" fill="#001833"/>
<path d="M290.146 140.894C292.267 139.596 292.94 136.812 291.65 134.677C290.362 132.541 287.6 131.863 285.479 133.161L281.99 135.299C279.871 136.597 279.197 139.381 280.485 141.516C281.775 143.652 284.538 144.33 286.656 143.032L290.146 140.894Z" fill="#FFCCD7"/>
<path fill-rule="evenodd" clip-rule="evenodd" d="M289.193 136.377L284.242 139.406L289.193 136.377Z" fill="#0C092A"/>
<path d="M289.193 136.377L284.242 139.406" stroke="#0C092A" stroke-linecap="square"/>
<path d="M274.257 138.361C274.308 139.054 274.085 139.74 273.636 140.267C273.185 140.794 272.547 141.12 271.858 141.173C271.171 141.225 270.49 141.001 269.968 140.548C269.444 140.095 269.119 139.451 269.068 138.758C268.958 137.314 270.409 137.328 271.84 137.216C273.272 137.105 274.146 136.917 274.257 138.361Z" fill="#0C092A"/>
<path d="M183.535 54.7603C182.842 62.0224 180.579 69.0438 176.907 75.332C173.235 81.6199 168.241 87.0221 162.276 91.1594C156.312 95.2969 149.521 98.0693 142.38 99.2824C135.239 100.495 127.921 100.119 120.94 98.1808C113.959 96.2423 107.483 92.7883 101.967 88.0611C96.4514 83.3337 92.0291 77.4478 89.0107 70.816C85.9921 64.1845 84.4504 56.9676 84.4939 49.6719C84.5375 42.3762 86.1649 35.1786 89.2622 28.5839C97.9592 10.0986 117.458 -1.82585 138.839 0.229721C166.129 2.85241 186.14 27.2684 183.535 54.7603Z" fill="#9087E5"/>
<path d="M165.951 88.383L164.227 89.7724C162.441 91.1447 160.566 92.3942 158.614 93.5125C152.833 96.8136 146.453 98.912 139.851 99.6834C133.25 100.455 126.563 99.883 120.185 98.0025C113.807 96.1219 107.869 92.9708 102.722 88.7355C97.5758 84.5004 93.3252 79.2675 90.2229 73.3468C98.1037 67.5111 111.298 60.539 128.175 61.9621C156.404 64.355 165.951 88.383 165.951 88.383Z" fill="#C4D0FB"/>
<path d="M132.316 73.8169C131.998 73.8178 131.681 73.7988 131.366 73.76C129.272 73.5087 127.363 72.4299 126.058 70.7606C124.754 69.0915 124.161 66.9686 124.41 64.8589L128.177 32.9375C128.426 30.8275 129.498 28.9039 131.155 27.5899C131.976 26.9392 132.916 26.4579 133.921 26.1731C134.927 25.8885 135.978 25.806 137.015 25.9306C138.052 26.0552 139.054 26.3843 139.965 26.8994C140.876 27.4142 141.677 28.1049 142.323 28.9316C142.969 29.7584 143.446 30.7055 143.729 31.7183C144.012 32.7311 144.094 33.7903 143.97 34.8349L140.203 66.7563C139.972 68.7012 139.043 70.4932 137.589 71.7943C136.136 73.0953 134.26 73.8148 132.316 73.8169Z" fill="#FFCCD7"/>
<path d="M138.973 57.5094L140.659 57.6992C142.621 57.922 144.607 57.7066 146.476 57.0682C148.345 56.4298 150.052 55.3843 151.474 54.0057C152.897 52.6273 154.001 50.95 154.706 49.0928C155.412 47.2358 155.703 45.245 155.559 43.2617L154.843 33.4372C154.612 30.2642 153.278 27.2747 151.077 24.9937C148.875 22.7128 145.946 21.2861 142.804 20.9646C139.26 20.6024 135.718 21.6734 132.958 23.9421C130.197 26.2108 128.444 29.4913 128.085 33.0619L127.114 42.6946C126.756 46.2397 127.801 49.7835 130.021 52.5571C132.242 55.3308 135.458 57.1101 138.973 57.5094Z" fill="#FFCCD7"/>
<path d="M131.16 47.067L131.161 47.0657C133.484 45.626 134.209 42.5614 132.78 40.2208L131.312 37.8165C129.882 35.4761 126.841 34.746 124.518 36.1857L124.516 36.1868C122.193 37.6267 121.468 40.6913 122.897 43.0317L124.365 45.4362C125.795 47.7766 128.836 48.5067 131.16 47.067Z" fill="#FFCCD7"/>
<path d="M125.073 40.074L129.033 44.2899" stroke="#001833" stroke-linecap="square"/>
<path d="M148.616 34.6853L148.894 42.5807L146.106 42.6946" stroke="#001833" stroke-linecap="square"/>
<path d="M140.312 45.1465C140.082 45.5756 139.937 46.0463 139.887 46.5317C139.838 47.017 139.883 47.5074 140.021 47.975C140.159 48.4426 140.388 48.8782 140.693 49.2568C140.999 49.6357 141.375 49.95 141.801 50.1821C142.227 50.4143 142.694 50.5597 143.176 50.6099C143.657 50.6601 144.144 50.6143 144.608 50.475C145.072 50.3358 145.505 50.1056 145.881 49.798C146.257 49.4904 146.569 49.1113 146.799 48.6821C147.768 46.8753 145.882 46.051 144.079 45.0748C142.275 44.0987 141.281 43.3418 140.312 45.1465Z" fill="#001833"/>
<path d="M132.197 43.7192L135.964 29.4652L136.857 26.0919C137.697 26.9985 138.68 27.7587 139.766 28.3415C143.708 30.4793 155.595 29.6275 157.241 21.2302C158.585 14.3826 151.367 18.3187 147.672 17.8907C141.865 17.2161 137.837 13.7733 129.885 18.1016C120.374 23.2858 124.879 35.9945 124.879 35.9945C124.879 35.9945 129.064 34.3437 132.197 43.7192Z" fill="#001833"/>
<path opacity="0.4" d="M141.08 57.7413L136.043 57.2796L140.643 61.8012L141.08 57.7413Z" fill="black"/>
<path d="M143.248 38.9498C144.012 38.9498 144.631 38.3261 144.631 37.5565C144.631 36.7869 144.012 36.1632 143.248 36.1632C142.484 36.1632 141.865 36.7869 141.865 37.5565C141.865 38.3261 142.484 38.9498 143.248 38.9498Z" fill="#001833"/>
<path d="M151.499 38.9498C152.263 38.9498 152.882 38.3261 152.882 37.5565C152.882 36.7869 152.263 36.1632 151.499 36.1632C150.735 36.1632 150.116 36.7869 150.116 37.5565C150.116 38.3261 150.735 38.9498 151.499 38.9498Z" fill="#001833"/>
<path d="M121.079 201.466C119.903 214.03 114.043 225.678 104.681 234.063C103.74 234.906 102.77 235.711 101.77 236.479C99.9846 237.851 98.1096 239.101 96.1576 240.219C87.4049 245.237 77.3387 247.44 67.3084 246.531L66.9548 246.499C59.3005 245.764 51.9204 243.247 45.3966 239.147C38.8728 235.048 33.3838 229.476 29.3625 222.874C28.8044 221.955 28.2723 221.017 27.7658 220.059C24.1701 213.183 22.2113 205.559 22.0446 197.789C21.878 190.019 23.5077 182.316 26.8053 175.29C35.5023 156.809 55.0037 144.88 76.3821 146.935C103.679 149.558 123.684 173.974 121.079 201.466Z" fill="#C4D0FB"/>
<path d="M112.518 225.14C110.266 228.417 107.635 231.412 104.681 234.063C103.741 234.906 102.77 235.711 101.77 236.479C99.9846 237.851 98.1096 239.101 96.1576 240.219C93.2472 241.887 90.1762 243.253 86.9918 244.296L67.3084 246.531L66.9548 246.499C59.3005 245.764 51.9204 243.247 45.3966 239.147C38.8728 235.047 33.3838 229.477 29.3625 222.874C36.8019 209.13 50.0923 194.977 73.6889 191.56C96.1848 188.302 108.548 214.709 112.518 225.14Z" fill="#9087E5"/>
<path d="M76.6982 203.383L76.4471 203.4C74.0514 203.51 71.7104 202.658 69.9388 201.03C68.1669 199.401 67.1095 197.131 66.9988 194.718L65.5339 162.705C65.4789 161.51 65.658 160.316 66.0613 159.191C66.4645 158.066 67.0838 157.031 67.8836 156.147C69.4991 154.361 71.7527 153.295 74.1483 153.183C76.544 153.072 78.8856 153.923 80.6581 155.551C82.4306 157.178 83.4886 159.449 83.5997 161.862L85.0646 193.872C85.1744 196.243 84.3617 198.564 82.7991 200.34C81.2365 202.116 79.0476 203.208 76.6982 203.383Z" fill="#FFCCD7"/>
<path d="M82.049 186.642L83.6876 186.221C85.5912 185.721 87.3625 184.806 88.8752 183.539C90.388 182.272 91.6053 180.685 92.4403 178.89C93.2754 177.096 93.7078 175.138 93.7067 173.156C93.7059 171.174 93.2715 169.217 92.4348 167.423L88.2851 158.537C86.9441 155.668 84.6435 153.367 81.7864 152.037C78.9295 150.707 75.6989 150.433 72.6614 151.263C69.2343 152.201 66.3172 154.471 64.5512 157.575C62.7854 160.679 62.3152 164.362 63.2445 167.815L65.7557 177.13C66.6821 180.557 68.9125 183.477 71.9627 185.258C75.0129 187.039 78.6372 187.536 82.049 186.642Z" fill="#FFCCD7"/>
<path d="M64.177 180.65C66.3373 182.314 69.4277 181.899 71.0796 179.723C72.7318 177.547 72.3199 174.433 70.1599 172.769L67.9425 171.06C65.7825 169.396 62.6921 169.811 61.04 171.987C59.3878 174.163 59.7996 177.276 61.9597 178.941L64.177 180.65Z" fill="#FFCCD7"/>
<path d="M94.9335 176.671C96.21 182.015 95.352 189.854 88.9276 191.492C82.5032 193.13 74.5281 187.954 73.1888 182.62C71.8495 177.286 73.3165 174.307 79.7451 172.667C86.1737 171.027 93.2656 169.699 94.9335 176.671Z" fill="#001833"/>
<path fill-rule="evenodd" clip-rule="evenodd" d="M62.9327 175.416L67.1535 177.925L62.9327 175.416Z" fill="#001833"/>
<path d="M62.9327 175.416L67.1535 177.925" stroke="#001833" stroke-linecap="square"/>
<path d="M78.9854 177.495C78.8799 178.459 79.1541 179.426 79.7488 180.188C80.3433 180.951 81.2113 181.448 82.166 181.573C83.1207 181.698 84.0858 181.441 84.8544 180.857C85.6228 180.273 86.1332 179.409 86.2762 178.45C86.5377 176.422 84.489 176.342 82.4759 176.068C80.4628 175.794 79.247 175.467 78.9854 177.495Z" fill="white"/>
<path opacity="0.4" d="M84.3746 192.198L79.346 192.573L84.6027 196.262L84.3746 192.198Z" fill="black"/>
<path d="M78.366 169.471C79.1264 169.471 79.7429 168.85 79.7429 168.083C79.7429 167.317 79.1264 166.696 78.366 166.696C77.6055 166.696 76.989 167.317 76.989 168.083C76.989 168.85 77.6055 169.471 78.366 169.471Z" fill="#001833"/>
<path d="M87.9985 166.73C88.759 166.73 89.3755 166.109 89.3755 165.343C89.3755 164.577 88.759 163.956 87.9985 163.956C87.2381 163.956 86.6216 164.577 86.6216 165.343C86.6216 166.109 87.2381 166.73 87.9985 166.73Z" fill="#001833"/>
<path d="M63.3513 245.452L68.8591 249.173C68.8591 249.173 68.6143 262.409 74.392 261.702C74.392 261.702 74.4151 263.794 75.589 263.994C76.763 264.194 79.9627 259.257 79.9627 259.257C79.9627 259.257 84.3572 257.587 85.2257 253.311C86.0941 249.036 86.2531 238.937 84.8971 238.176C83.5411 237.415 70.1628 237.082 70.1628 237.082C70.1628 237.082 64.6089 237.761 63.3513 245.452Z" fill="#FFCCD7"/>
<path d="M72.6427 235.391L50.4335 227.131" stroke="#CCE3FF" stroke-linecap="square"/>
<path d="M54.8425 228.366L67.3042 213.085" stroke="#CCE3FF" stroke-linecap="square"/>
<path d="M63.3179 246.025C63.3179 246.025 62.7382 237.99 73.0466 235.515" stroke="#CCE3FF" stroke-linecap="square"/>
<path d="M84.0873 163.214L87.1426 170.46L84.5896 171.569" stroke="#001833" stroke-linecap="square"/>
</svg>
