<svg width="100" height="100" viewBox="0 0 100 100" fill="none" xmlns="http://www.w3.org/2000/svg">
<mask id="mask0_221_7052" style="mask-type:alpha" maskUnits="userSpaceOnUse" x="0" y="0" width="100" height="100">
<rect width="100" height="100" rx="24" fill="#6A5AE0"/>
</mask>
<g mask="url(#mask0_221_7052)">
<path d="M103.216 72.2475C103.216 86.2713 97.6005 99.7208 87.6048 109.637C77.6092 119.554 64.0524 125.125 49.9164 125.125C49.1874 125.125 48.4721 125.111 47.7431 125.084C43.8495 124.926 39.9848 124.35 36.2165 123.365C36.9455 122.996 37.6608 122.628 38.376 122.232C38.3898 122.232 38.4035 122.218 38.4311 122.205L38.4448 122.191C39.2013 121.782 39.9441 121.372 40.6731 120.949C40.8519 120.84 41.0307 120.745 41.2095 120.649C41.8973 120.24 42.585 119.83 43.259 119.394C43.4583 119.287 43.6512 119.168 43.8367 119.039C44.3594 118.725 44.8821 118.384 45.391 118.043C45.7486 117.811 46.12 117.565 46.4639 117.333C46.9866 116.978 47.4955 116.624 48.0044 116.255C48.3483 116.023 48.6647 115.791 48.9948 115.532C49.4349 115.232 49.8613 114.904 50.2877 114.577C50.6729 114.304 51.0443 114.017 51.4156 113.717C51.9383 113.321 52.4473 112.912 52.9562 112.475C53.1763 112.312 53.3963 112.134 53.6164 111.943C54.1666 111.493 54.7031 111.029 55.2395 110.551C55.5283 110.306 55.8172 110.06 56.1061 109.787C56.4224 109.514 56.725 109.241 57.0276 108.955C57.6053 108.436 58.1693 107.89 58.7332 107.345C58.8087 107.283 58.8779 107.215 58.9396 107.14C59.4897 106.621 60.0262 106.075 60.5489 105.53C60.9203 105.175 61.2641 104.806 61.5942 104.438C61.9931 104.042 62.3645 103.633 62.7359 103.224C62.956 102.992 63.1623 102.76 63.3549 102.528C63.85 101.982 64.3315 101.422 64.8129 100.863C65.0605 100.576 65.3081 100.276 65.5419 99.9758C65.8995 99.5664 66.2434 99.1571 66.5597 98.734C66.8899 98.3383 67.2062 97.9289 67.5088 97.5196C67.7977 97.1648 68.0728 96.7963 68.3341 96.4415C68.6918 95.9776 69.0356 95.5136 69.3657 95.036C69.6959 94.5584 70.0535 94.0808 70.3836 93.5896C70.5474 93.3753 70.699 93.1521 70.8375 92.9209C71.3052 92.2386 71.7591 91.5427 72.1992 90.8468C72.7632 89.9871 73.2996 89.1137 73.8086 88.2268C74.0424 87.8447 74.2625 87.4626 74.4825 87.0805C76.2663 83.9596 77.8558 80.733 79.2417 77.4193C79.4481 76.9553 79.6406 76.4914 79.8194 76.0138C80.0395 75.5089 80.2321 74.9903 80.4246 74.4718C80.5897 74.0488 80.7548 73.6121 80.9061 73.1754C81.0849 72.6978 81.2499 72.2066 81.415 71.729C82.0202 69.9823 82.5704 68.222 83.0518 66.4344C83.1756 65.9841 83.2994 65.5474 83.4094 65.0971C83.492 64.8106 83.5608 64.5376 83.6295 64.2511L83.9596 62.8592C84.3998 60.9625 84.7712 59.052 85.0875 57.1143L85.2939 55.8043C85.3214 55.5997 85.3489 55.4086 85.3764 55.2039C85.4589 54.6854 85.5277 54.1668 85.5827 53.6483C85.679 52.8705 85.7753 52.0927 85.8441 51.3149C85.8716 51.1102 85.8853 50.9055 85.8991 50.7008C85.9541 50.1686 85.9954 49.6228 86.0366 49.0906C86.0779 48.5584 86.1054 47.9989 86.1329 47.4531C86.1604 47.071 86.1742 46.6889 86.1879 46.2932C86.243 45.0378 86.2705 43.7824 86.2705 42.527C86.2705 41.8856 86.2705 41.2579 86.243 40.6302C86.243 40.3027 86.243 39.9889 86.2292 39.6614C86.1879 38.5288 86.1329 37.4098 86.0504 36.2908L86.0504 36.2499C86.0366 35.977 86.0229 35.7041 85.9954 35.4312C85.9403 34.6806 85.8716 33.9438 85.8028 33.1932C85.8032 33.1698 85.7985 33.1464 85.789 33.125C87.6422 34.7995 89.3751 36.6006 90.9746 38.5151L91.0159 38.556C91.0234 38.5634 91.0283 38.573 91.0296 38.5833C98.9258 48.0509 103.237 59.9593 103.216 72.2475Z" fill="#FF8FA2"/>
<path d="M86.2165 42.2831C86.2239 58.6065 81.7876 74.6283 73.377 88.6527C64.9665 102.677 52.8945 114.183 38.4389 121.951C38.421 121.972 38.3969 121.987 38.3701 121.992L38.3565 122.006C37.6419 122.388 36.9274 122.757 36.2129 123.125C31.7285 121.951 27.4216 120.189 23.4062 117.885C20.5013 116.223 17.7594 114.295 15.2165 112.126C15.6974 111.621 16.1646 111.116 16.6318 110.597L16.6454 110.584C16.6454 110.57 16.6593 110.557 16.673 110.543L16.6867 110.543C31.7231 93.9463 40.0268 72.4011 39.9916 50.0752C39.9938 40.458 38.4634 30.9009 35.457 21.7588L35.4433 21.7588C35.4433 21.7315 35.4296 21.7042 35.4296 21.6769L35.4157 21.6769C35.4079 21.655 35.4032 21.6319 35.4021 21.6087C35.1273 20.7762 34.8387 19.9438 34.5364 19.125L49.899 19.125C63.1547 19.1068 75.9379 24.0135 85.7355 32.8807C85.8455 33.9178 85.9279 34.9549 85.9966 36.0057C86.1478 38.08 86.2165 40.1679 86.2165 42.2831Z" fill="#9087E5"/>
<path d="M40 49.95C40 50.8643 39.9864 51.7786 39.9591 52.6792C39.9455 53.266 39.9182 53.8392 39.8909 54.426C39.7819 56.7731 39.5774 59.1067 39.2774 61.4266C39.2093 62.027 39.1275 62.6138 39.032 63.2006C38.9366 63.9238 38.8139 64.6335 38.6912 65.3567C38.5821 66.039 38.4594 66.7077 38.3231 67.39C38.2958 67.5538 38.2549 67.7175 38.2276 67.8813C38.1186 68.4408 37.9959 69.0139 37.8732 69.5734C37.2328 72.4818 36.4456 75.3557 35.5146 78.1843C35.3374 78.7438 35.1465 79.2897 34.9556 79.8219C34.939 79.8875 34.9162 79.9515 34.8874 80.0129C34.6966 80.5724 34.5057 81.1046 34.3012 81.6505C34.2467 81.8142 34.1785 81.9916 34.1103 82.169C33.8922 82.7558 33.6604 83.329 33.4287 83.9021C33.1696 84.5572 32.897 85.2122 32.6107 85.8536C32.3244 86.5222 32.0244 87.1909 31.7245 87.8596C31.4382 88.4737 31.1382 89.0877 30.8519 89.6882C30.5384 90.3296 30.2248 90.9573 29.8976 91.5714C29.5704 92.1855 29.2432 92.8132 28.9023 93.4273C28.5615 94.0414 28.2207 94.6555 27.8798 95.2559C27.539 95.8563 27.1709 96.4704 26.8028 97.0709C26.4347 97.6713 26.0666 98.2581 25.6848 98.8449C24.935 100.018 24.1579 101.178 23.3535 102.311C22.5491 103.444 21.7039 104.563 20.8586 105.668C19.577 107.292 18.2501 108.875 16.8776 110.417L16.864 110.417C16.8503 110.431 16.8504 110.431 16.8504 110.444C16.8504 110.448 16.849 110.451 16.8464 110.454C16.8438 110.456 16.8404 110.458 16.8367 110.458C16.3732 110.977 15.896 111.495 15.4188 112C13.2707 110.152 11.2738 108.135 9.44741 105.968C9.43356 105.942 9.41506 105.919 9.39288 105.9C1.37516 96.3821 -3.01538 84.3294 -2.99996 71.8797L-2.99996 19L34.5875 19C34.8874 19.8188 35.1737 20.6376 35.4328 21.47L35.4464 21.4836C35.4476 21.5069 35.4523 21.5299 35.46 21.5519L35.4737 21.5519L35.4737 21.5928C35.4729 21.6002 35.4735 21.6077 35.4759 21.6148C35.4783 21.6219 35.4823 21.6283 35.4873 21.6337L35.5009 21.6337C35.5131 21.6858 35.5314 21.7362 35.5555 21.7838L35.7191 22.3161C36.1826 23.7626 36.6053 25.2227 36.987 26.7102C37.2597 27.7064 37.5051 28.7298 37.7368 29.7533C38.1595 31.6092 38.5276 33.5061 38.8412 35.4302C38.9093 35.8942 38.9911 36.3445 39.0457 36.8085C39.2093 37.9412 39.3592 39.0738 39.4819 40.2201C39.5365 40.6431 39.5774 41.0798 39.6046 41.5029C39.6864 42.2943 39.741 43.0995 39.7955 43.891C39.9318 45.897 40 47.9167 40 49.95Z" fill="#C4D0FB"/>
</g>
<rect width="100" height="90" rx="24" fill="white"/>
<mask id="mask1_221_7052" style="mask-type:alpha" maskUnits="userSpaceOnUse" x="23" y="14" width="54" height="62">
<path fill-rule="evenodd" clip-rule="evenodd" d="M48.3881 61.5758C50.2584 61.4892 52.0977 61.1912 53.8726 60.6961L56.3771 63.177C58.7337 65.5115 62.563 65.5201 64.9302 63.1964C67.2973 60.8727 67.3059 57.0965 64.9493 54.7621L62.1056 51.9451C61.5754 51.4199 60.9707 51.0124 60.3248 50.7228C58.4574 49.3959 55.821 49.57 53.6936 50.6026C51.9109 51.4678 49.9513 51.9724 47.9312 52.0659C44.314 52.2334 40.7632 51.0705 37.973 48.8046C35.1828 46.5386 33.3538 43.3326 32.8435 39.8133C32.3333 36.2939 33.1785 32.7143 35.214 29.7742C37.2494 26.8341 40.3287 24.7449 43.8499 23.915C47.3711 23.0852 51.081 23.5743 54.2543 25.2869C57.4276 26.9994 59.8362 29.8122 61.0091 33.1754C61.6378 34.9778 61.8873 36.8689 61.7621 38.738C61.582 41.4277 62.6263 44.3347 65.1074 45.3887C67.5416 46.4227 70.4108 45.3097 70.9675 42.7242C71.8666 38.5496 71.6118 34.1835 70.1846 30.0915C68.2296 24.4863 64.2153 19.7983 58.9265 16.944C53.6376 14.0898 47.4545 13.2745 41.5859 14.6576C35.7172 16.0407 30.585 19.5227 27.1927 24.4229C23.8003 29.3231 22.3916 35.2892 23.242 41.1547C24.0923 47.0203 27.1407 52.3637 31.791 56.1402C36.4414 59.9167 42.3594 61.8549 48.3881 61.5758ZM66.6856 65.8097C64.3187 68.1332 64.3098 71.9095 66.6662 74.2437C69.0226 76.5779 72.852 76.5863 75.2189 74.2627C77.5859 71.9392 77.5948 68.163 75.2384 65.8287C72.882 63.4945 69.0526 63.4862 66.6856 65.8097Z" fill="#6A5AE0"/>
</mask>
<g mask="url(#mask1_221_7052)">
<path fill-rule="evenodd" clip-rule="evenodd" d="M55.8162 95.3205L104.83 46.9278L94.2323 36.8094L38.1537 92.6809L55.8162 95.3205Z" fill="#6A5AE0"/>
<path fill-rule="evenodd" clip-rule="evenodd" d="M46.1888 82.4282L93.7171 36.4962L83.4407 26.8923L29.0615 79.9228L46.1888 82.4282Z" fill="#6A5AE0"/>
<path fill-rule="evenodd" clip-rule="evenodd" d="M31.8935 80.472L87.7438 25.247L77.9547 14.9235L22.1043 70.1484L31.8935 80.472Z" fill="#6A5AE0"/>
<path fill-rule="evenodd" clip-rule="evenodd" d="M21.8086 71.5194L77.5532 16.1382L63.0684 10.0331L13.9078 58.8733L21.8086 71.5194Z" fill="#6A5AE0"/>
<path fill-rule="evenodd" clip-rule="evenodd" d="M13.9078 59.6188L64.42 10.0331L37.3599 12.6895L13.9078 37.9251V59.6188Z" fill="#6A5AE0"/>
</g>
</svg>
