<svg width="327" height="101" viewBox="0 0 327 101" fill="none" xmlns="http://www.w3.org/2000/svg">
<rect width="327" height="101" rx="20" fill="#6A5AE0"/>
<path d="M268 33.6L266 32.5V30" stroke="white" stroke-width="2" stroke-linecap="round" stroke-linejoin="round"/>
<path d="M266 25.9999V23.4999L268 22.3999" stroke="white" stroke-width="2" stroke-linecap="round" stroke-linejoin="round"/>
<path d="M272 20.1L274 19L276 20.1" stroke="white" stroke-width="2" stroke-linecap="round" stroke-linejoin="round"/>
<path d="M280 22.3999L282 23.4999V25.9999" stroke="white" stroke-width="2" stroke-linecap="round" stroke-linejoin="round"/>
<path d="M282 30V32.5L280 33.62" stroke="white" stroke-width="2" stroke-linecap="round" stroke-linejoin="round"/>
<path d="M276 35.8999L274 36.9999L272 35.8999" stroke="white" stroke-width="2" stroke-linecap="round" stroke-linejoin="round"/>
<path d="M274 27.9999L276 26.8999" stroke="white" stroke-width="2" stroke-linecap="round" stroke-linejoin="round"/>
<path d="M280 24.6L282 23.5" stroke="white" stroke-width="2" stroke-linecap="round" stroke-linejoin="round"/>
<path d="M274 28V30.5" stroke="white" stroke-width="2" stroke-linecap="round" stroke-linejoin="round"/>
<path d="M274 34.5V37" stroke="white" stroke-width="2" stroke-linecap="round" stroke-linejoin="round"/>
<path d="M274 27.9999L272 26.8799" stroke="white" stroke-width="2" stroke-linecap="round" stroke-linejoin="round"/>
<path d="M268 24.6L266 23.5" stroke="white" stroke-width="2" stroke-linecap="round" stroke-linejoin="round"/>
<path opacity="0.5" d="M238.785 56C238.705 56 238.637 55.972 238.581 55.916C238.525 55.86 238.497 55.792 238.497 55.712V47.888C238.497 47.8 238.525 47.732 238.581 47.684C238.637 47.628 238.705 47.6 238.785 47.6H239.913C240.001 47.6 240.069 47.628 240.117 47.684C240.173 47.732 240.201 47.8 240.201 47.888V54.56H244.005C244.093 54.56 244.165 54.588 244.221 54.644C244.277 54.7 244.305 54.768 244.305 54.848V55.712C244.305 55.792 244.277 55.86 244.221 55.916C244.165 55.972 244.093 56 244.005 56H238.785ZM249.084 56.12C247.988 56.12 247.136 55.844 246.528 55.292C245.92 54.74 245.6 53.92 245.568 52.832C245.56 52.6 245.556 52.26 245.556 51.812C245.556 51.356 245.56 51.012 245.568 50.78C245.6 49.716 245.928 48.9 246.552 48.332C247.176 47.764 248.02 47.48 249.084 47.48C250.14 47.48 250.98 47.764 251.604 48.332C252.236 48.9 252.568 49.716 252.6 50.78C252.616 51.244 252.624 51.588 252.624 51.812C252.624 52.028 252.616 52.368 252.6 52.832C252.568 53.92 252.244 54.74 251.628 55.292C251.02 55.844 250.172 56.12 249.084 56.12ZM249.084 54.728C249.62 54.728 250.044 54.568 250.356 54.248C250.668 53.928 250.836 53.436 250.86 52.772C250.876 52.292 250.884 51.968 250.884 51.8C250.884 51.616 250.876 51.292 250.86 50.828C250.836 50.172 250.664 49.684 250.344 49.364C250.024 49.036 249.604 48.872 249.084 48.872C248.556 48.872 248.132 49.036 247.812 49.364C247.492 49.684 247.324 50.172 247.308 50.828C247.3 51.06 247.296 51.384 247.296 51.8C247.296 52.208 247.3 52.532 247.308 52.772C247.324 53.428 247.488 53.92 247.8 54.248C248.12 54.568 248.548 54.728 249.084 54.728ZM257.908 56.12C256.804 56.12 255.948 55.84 255.34 55.28C254.74 54.712 254.42 53.908 254.38 52.868C254.372 52.652 254.368 52.3 254.368 51.812C254.368 51.316 254.372 50.956 254.38 50.732C254.42 49.708 254.744 48.912 255.352 48.344C255.96 47.768 256.812 47.48 257.908 47.48C258.62 47.48 259.24 47.604 259.768 47.852C260.296 48.092 260.704 48.424 260.992 48.848C261.288 49.272 261.444 49.748 261.46 50.276V50.3C261.46 50.364 261.432 50.42 261.376 50.468C261.328 50.508 261.272 50.528 261.208 50.528H260.044C259.948 50.528 259.876 50.508 259.828 50.468C259.78 50.42 259.74 50.34 259.708 50.228C259.588 49.732 259.38 49.384 259.084 49.184C258.788 48.976 258.396 48.872 257.908 48.872C256.764 48.872 256.168 49.512 256.12 50.792C256.112 51.008 256.108 51.34 256.108 51.788C256.108 52.236 256.112 52.576 256.12 52.808C256.168 54.088 256.764 54.728 257.908 54.728C258.388 54.728 258.776 54.628 259.072 54.428C259.376 54.22 259.588 53.868 259.708 53.372C259.74 53.26 259.78 53.184 259.828 53.144C259.876 53.096 259.948 53.072 260.044 53.072H261.208C261.28 53.072 261.34 53.096 261.388 53.144C261.444 53.192 261.468 53.252 261.46 53.324C261.444 53.852 261.288 54.328 260.992 54.752C260.704 55.176 260.296 55.512 259.768 55.76C259.24 56 258.62 56.12 257.908 56.12ZM262.753 56C262.681 56 262.621 55.976 262.573 55.928C262.525 55.88 262.501 55.82 262.501 55.748L262.525 55.64L265.405 47.9C265.485 47.7 265.629 47.6 265.837 47.6H267.157C267.365 47.6 267.509 47.7 267.589 47.9L270.469 55.64L270.493 55.748C270.493 55.82 270.465 55.88 270.409 55.928C270.361 55.976 270.305 56 270.241 56H269.173C269.005 56 268.889 55.924 268.825 55.772L268.273 54.32H264.721L264.169 55.772C264.105 55.924 263.989 56 263.821 56H262.753ZM265.141 52.928H267.853L266.497 49.232L265.141 52.928ZM272.369 56C272.289 56 272.221 55.972 272.165 55.916C272.109 55.86 272.081 55.792 272.081 55.712V47.888C272.081 47.8 272.109 47.732 272.165 47.684C272.221 47.628 272.289 47.6 272.369 47.6H273.497C273.585 47.6 273.653 47.628 273.701 47.684C273.757 47.732 273.785 47.8 273.785 47.888V54.56H277.589C277.677 54.56 277.749 54.588 277.805 54.644C277.861 54.7 277.889 54.768 277.889 54.848V55.712C277.889 55.792 277.861 55.86 277.805 55.916C277.749 55.972 277.677 56 277.589 56H272.369ZM282.727 56C282.647 56 282.579 55.972 282.523 55.916C282.467 55.86 282.439 55.792 282.439 55.712V47.9C282.439 47.812 282.463 47.74 282.511 47.684C282.567 47.628 282.639 47.6 282.727 47.6H285.835C286.819 47.6 287.587 47.828 288.139 48.284C288.699 48.74 288.979 49.388 288.979 50.228C288.979 50.812 288.839 51.304 288.559 51.704C288.279 52.096 287.887 52.38 287.383 52.556L289.123 55.616C289.147 55.664 289.159 55.708 289.159 55.748C289.159 55.82 289.131 55.88 289.075 55.928C289.027 55.976 288.971 56 288.907 56H287.803C287.675 56 287.575 55.972 287.503 55.916C287.431 55.852 287.367 55.772 287.311 55.676L285.775 52.832H284.131V55.712C284.131 55.792 284.103 55.86 284.047 55.916C283.991 55.972 283.919 56 283.831 56H282.727ZM285.799 51.464C286.279 51.464 286.639 51.36 286.879 51.152C287.119 50.936 287.239 50.624 287.239 50.216C287.239 49.808 287.119 49.496 286.879 49.28C286.639 49.056 286.279 48.944 285.799 48.944H284.131V51.464H285.799ZM290.489 56C290.417 56 290.357 55.976 290.309 55.928C290.261 55.88 290.237 55.82 290.237 55.748L290.261 55.64L293.141 47.9C293.221 47.7 293.365 47.6 293.573 47.6H294.893C295.101 47.6 295.245 47.7 295.325 47.9L298.205 55.64L298.229 55.748C298.229 55.82 298.201 55.88 298.145 55.928C298.097 55.976 298.041 56 297.977 56H296.909C296.741 56 296.625 55.924 296.561 55.772L296.009 54.32H292.457L291.905 55.772C291.841 55.924 291.725 56 291.557 56H290.489ZM292.877 52.928H295.589L294.233 49.232L292.877 52.928ZM300.105 56C300.025 56 299.957 55.972 299.901 55.916C299.845 55.86 299.817 55.792 299.817 55.712V47.9C299.817 47.812 299.841 47.74 299.889 47.684C299.945 47.628 300.017 47.6 300.105 47.6H301.041C301.193 47.6 301.309 47.668 301.389 47.804L304.821 53.132V47.9C304.821 47.812 304.845 47.74 304.893 47.684C304.949 47.628 305.021 47.6 305.109 47.6H306.141C306.229 47.6 306.301 47.628 306.357 47.684C306.413 47.74 306.441 47.812 306.441 47.9V55.7C306.441 55.788 306.413 55.86 306.357 55.916C306.301 55.972 306.233 56 306.153 56H305.205C305.045 56 304.925 55.932 304.845 55.796L301.425 50.588V55.712C301.425 55.792 301.397 55.86 301.341 55.916C301.293 55.972 301.225 56 301.137 56H300.105ZM309.07 56C308.99 56 308.922 55.972 308.866 55.916C308.81 55.86 308.782 55.792 308.782 55.712V47.9C308.782 47.812 308.806 47.74 308.854 47.684C308.91 47.628 308.982 47.6 309.07 47.6H310.15C310.238 47.6 310.31 47.628 310.366 47.684C310.422 47.74 310.45 47.812 310.45 47.9V50.708L313.126 47.816C313.246 47.672 313.402 47.6 313.594 47.6H314.818C314.882 47.6 314.938 47.624 314.986 47.672C315.042 47.72 315.07 47.78 315.07 47.852C315.07 47.908 315.05 47.956 315.01 47.996L311.746 51.62L315.25 55.592C315.282 55.648 315.298 55.7 315.298 55.748C315.298 55.82 315.274 55.88 315.226 55.928C315.178 55.976 315.122 56 315.058 56H313.798C313.63 56 313.51 55.968 313.438 55.904C313.366 55.832 313.326 55.792 313.318 55.784L310.45 52.616V55.712C310.45 55.792 310.422 55.86 310.366 55.916C310.31 55.972 310.238 56 310.15 56H309.07Z" fill="white"/>
<path d="M260.374 77.376C260.278 77.376 260.193 77.344 260.118 77.28C260.044 77.2053 260.012 77.12 260.022 77.024L260.246 75.536H259.158C259.052 75.536 258.961 75.4987 258.886 75.424C258.812 75.3493 258.774 75.2587 258.774 75.152V73.808C258.774 73.7013 258.812 73.6107 258.886 73.536C258.961 73.4613 259.052 73.424 259.158 73.424H260.566L260.854 71.472H259.574C259.468 71.472 259.377 71.4347 259.302 71.36C259.228 71.2853 259.19 71.1947 259.19 71.088V69.744C259.19 69.6373 259.228 69.5467 259.302 69.472C259.377 69.3973 259.468 69.36 259.574 69.36H261.174L261.398 67.856C261.42 67.76 261.462 67.68 261.526 67.616C261.601 67.552 261.686 67.52 261.782 67.52H263.11C263.206 67.52 263.286 67.5573 263.35 67.632C263.425 67.696 263.457 67.776 263.446 67.872L263.222 69.36H264.806L265.03 67.856C265.052 67.76 265.094 67.68 265.158 67.616C265.233 67.552 265.318 67.52 265.414 67.52H266.742C266.838 67.52 266.918 67.5573 266.982 67.632C267.057 67.696 267.089 67.776 267.078 67.872L266.854 69.36H267.942C268.049 69.36 268.14 69.3973 268.214 69.472C268.289 69.5467 268.326 69.6373 268.326 69.744V71.088C268.326 71.1947 268.289 71.2853 268.214 71.36C268.14 71.4347 268.049 71.472 267.942 71.472H266.55L266.262 73.424H267.526C267.633 73.424 267.724 73.4613 267.798 73.536C267.873 73.6107 267.91 73.7013 267.91 73.808V75.152C267.91 75.2587 267.873 75.3493 267.798 75.424C267.724 75.4987 267.633 75.536 267.526 75.536H265.942L265.718 77.04C265.697 77.136 265.654 77.216 265.59 77.28C265.526 77.344 265.441 77.376 265.334 77.376H264.006C263.91 77.376 263.825 77.344 263.75 77.28C263.686 77.2053 263.654 77.12 263.654 77.024L263.878 75.536H262.31L262.086 77.04C262.065 77.136 262.022 77.216 261.958 77.28C261.894 77.344 261.809 77.376 261.702 77.376H260.374ZM262.63 73.424H264.198L264.486 71.472H262.918L262.63 73.424ZM274.191 78.176C273.221 78.176 272.383 78.0213 271.679 77.712C270.986 77.4027 270.458 76.992 270.095 76.48C269.743 75.968 269.557 75.408 269.535 74.8C269.535 74.704 269.567 74.624 269.631 74.56C269.695 74.496 269.775 74.464 269.871 74.464H272.127C272.383 74.464 272.559 74.5653 272.655 74.768C272.805 75.12 273.002 75.376 273.247 75.536C273.503 75.696 273.818 75.776 274.191 75.776C274.65 75.776 275.029 75.6373 275.327 75.36C275.637 75.0827 275.791 74.6933 275.791 74.192C275.791 73.7547 275.642 73.392 275.343 73.104C275.045 72.816 274.661 72.672 274.191 72.672C273.925 72.672 273.711 72.7093 273.551 72.784C273.391 72.848 273.237 72.9387 273.087 73.056C272.927 73.184 272.789 73.248 272.671 73.248H270.447C270.351 73.248 270.266 73.216 270.191 73.152C270.127 73.0773 270.095 72.992 270.095 72.896L270.687 67.28C270.698 67.1307 270.751 67.0133 270.847 66.928C270.954 66.8427 271.077 66.8 271.215 66.8H277.727C277.845 66.8 277.941 66.8373 278.015 66.912C278.09 66.9867 278.127 67.0827 278.127 67.2V68.8C278.127 68.9067 278.09 69.0027 278.015 69.088C277.941 69.1627 277.845 69.2 277.727 69.2H273.071L272.879 71.168C273.135 70.9867 273.423 70.8533 273.743 70.768C274.063 70.672 274.479 70.624 274.991 70.624C275.674 70.624 276.314 70.7787 276.911 71.088C277.509 71.3867 277.983 71.8133 278.335 72.368C278.698 72.9227 278.879 73.5573 278.879 74.272C278.879 75.0187 278.693 75.6907 278.319 76.288C277.946 76.8747 277.402 77.3387 276.687 77.68C275.983 78.0107 275.151 78.176 274.191 78.176ZM284.773 78.16C283.824 78.16 282.987 77.9947 282.261 77.664C281.536 77.3227 280.971 76.848 280.565 76.24C280.16 75.632 279.957 74.9333 279.957 74.144C279.957 73.2267 280.411 72.1333 281.317 70.864L284.117 67.12C284.267 66.9067 284.459 66.8 284.693 66.8H286.933C287.029 66.8 287.109 66.8373 287.173 66.912C287.248 66.976 287.285 67.056 287.285 67.152C287.285 67.2053 287.259 67.2747 287.205 67.36L285.061 70.272C285.189 70.24 285.339 70.224 285.509 70.224C286.16 70.256 286.789 70.4373 287.397 70.768C288.016 71.0987 288.517 71.552 288.901 72.128C289.296 72.6933 289.493 73.344 289.493 74.08C289.493 74.8267 289.296 75.5147 288.901 76.144C288.507 76.7627 287.952 77.2533 287.237 77.616C286.523 77.9787 285.701 78.16 284.773 78.16ZM284.741 75.76C285.211 75.76 285.611 75.616 285.941 75.328C286.272 75.0293 286.437 74.6293 286.437 74.128C286.437 73.616 286.272 73.216 285.941 72.928C285.621 72.64 285.221 72.496 284.741 72.496C284.261 72.496 283.856 72.64 283.525 72.928C283.205 73.216 283.045 73.616 283.045 74.128C283.045 74.64 283.205 75.04 283.525 75.328C283.856 75.616 284.261 75.76 284.741 75.76Z" fill="white"/>
<rect x="217" y="16" width="1" height="69" fill="url(#paint0_linear_178_6759)"/>
<path d="M163 37C167.971 37 172 32.9706 172 28C172 23.0294 167.971 19 163 19C158.029 19 154 23.0294 154 28C154 32.9706 158.029 37 163 37Z" stroke="white" stroke-width="2" stroke-linecap="round" stroke-linejoin="round"/>
<path d="M154.6 25H171.4" stroke="white" stroke-width="2" stroke-linecap="round" stroke-linejoin="round"/>
<path d="M154.6 31H171.4" stroke="white" stroke-width="2" stroke-linecap="round" stroke-linejoin="round"/>
<path d="M162.5 19C160.815 21.6996 159.922 24.8179 159.922 28C159.922 31.1821 160.815 34.3004 162.5 37" stroke="white" stroke-width="2" stroke-linecap="round" stroke-linejoin="round"/>
<path d="M163.5 19C165.185 21.6996 166.078 24.8179 166.078 28C166.078 31.1821 165.185 34.3004 163.5 37" stroke="white" stroke-width="2" stroke-linecap="round" stroke-linejoin="round"/>
<path opacity="0.5" d="M124.771 56C124.539 56 124.395 55.88 124.339 55.64L122.923 47.948L122.911 47.852C122.911 47.78 122.935 47.72 122.983 47.672C123.031 47.624 123.091 47.6 123.163 47.6H124.243C124.347 47.6 124.423 47.62 124.471 47.66C124.519 47.692 124.551 47.752 124.567 47.84L125.563 53.24L126.631 49.76C126.711 49.56 126.843 49.46 127.027 49.46H127.687C127.791 49.46 127.875 49.492 127.939 49.556C128.003 49.612 128.047 49.68 128.071 49.76L129.151 53.24L130.135 47.84C130.159 47.68 130.271 47.6 130.471 47.6H131.551C131.615 47.6 131.671 47.624 131.719 47.672C131.767 47.72 131.791 47.78 131.791 47.852C131.791 47.892 131.787 47.924 131.779 47.948L130.363 55.64C130.347 55.752 130.299 55.84 130.219 55.904C130.147 55.968 130.051 56 129.931 56H129.115C129.003 56 128.911 55.972 128.839 55.916C128.767 55.852 128.719 55.78 128.695 55.7L127.351 51.716L126.007 55.7C125.943 55.9 125.803 56 125.587 56H124.771ZM136.814 56.12C135.718 56.12 134.866 55.844 134.258 55.292C133.65 54.74 133.33 53.92 133.298 52.832C133.29 52.6 133.286 52.26 133.286 51.812C133.286 51.356 133.29 51.012 133.298 50.78C133.33 49.716 133.658 48.9 134.282 48.332C134.906 47.764 135.75 47.48 136.814 47.48C137.87 47.48 138.71 47.764 139.334 48.332C139.966 48.9 140.298 49.716 140.33 50.78C140.346 51.244 140.354 51.588 140.354 51.812C140.354 52.028 140.346 52.368 140.33 52.832C140.298 53.92 139.974 54.74 139.358 55.292C138.75 55.844 137.902 56.12 136.814 56.12ZM136.814 54.728C137.35 54.728 137.774 54.568 138.086 54.248C138.398 53.928 138.566 53.436 138.59 52.772C138.606 52.292 138.614 51.968 138.614 51.8C138.614 51.616 138.606 51.292 138.59 50.828C138.566 50.172 138.394 49.684 138.074 49.364C137.754 49.036 137.334 48.872 136.814 48.872C136.286 48.872 135.862 49.036 135.542 49.364C135.222 49.684 135.054 50.172 135.038 50.828C135.03 51.06 135.026 51.384 135.026 51.8C135.026 52.208 135.03 52.532 135.038 52.772C135.054 53.428 135.218 53.92 135.53 54.248C135.85 54.568 136.278 54.728 136.814 54.728ZM142.686 56C142.606 56 142.538 55.972 142.482 55.916C142.426 55.86 142.398 55.792 142.398 55.712V47.9C142.398 47.812 142.422 47.74 142.47 47.684C142.526 47.628 142.598 47.6 142.686 47.6H145.794C146.778 47.6 147.546 47.828 148.098 48.284C148.658 48.74 148.938 49.388 148.938 50.228C148.938 50.812 148.798 51.304 148.518 51.704C148.238 52.096 147.846 52.38 147.342 52.556L149.082 55.616C149.106 55.664 149.118 55.708 149.118 55.748C149.118 55.82 149.09 55.88 149.034 55.928C148.986 55.976 148.93 56 148.866 56H147.762C147.634 56 147.534 55.972 147.462 55.916C147.39 55.852 147.326 55.772 147.27 55.676L145.734 52.832H144.09V55.712C144.09 55.792 144.062 55.86 144.006 55.916C143.95 55.972 143.878 56 143.79 56H142.686ZM145.758 51.464C146.238 51.464 146.598 51.36 146.838 51.152C147.078 50.936 147.198 50.624 147.198 50.216C147.198 49.808 147.078 49.496 146.838 49.28C146.598 49.056 146.238 48.944 145.758 48.944H144.09V51.464H145.758ZM151.252 56C151.172 56 151.104 55.972 151.048 55.916C150.992 55.86 150.964 55.792 150.964 55.712V47.888C150.964 47.8 150.992 47.732 151.048 47.684C151.104 47.628 151.172 47.6 151.252 47.6H152.38C152.468 47.6 152.536 47.628 152.584 47.684C152.64 47.732 152.668 47.8 152.668 47.888V54.56H156.472C156.56 54.56 156.632 54.588 156.688 54.644C156.744 54.7 156.772 54.768 156.772 54.848V55.712C156.772 55.792 156.744 55.86 156.688 55.916C156.632 55.972 156.56 56 156.472 56H151.252ZM158.705 56C158.625 56 158.557 55.972 158.501 55.916C158.445 55.86 158.417 55.792 158.417 55.712V47.9C158.417 47.812 158.441 47.74 158.489 47.684C158.545 47.628 158.617 47.6 158.705 47.6H161.633C163.993 47.6 165.197 48.688 165.245 50.864C165.261 51.328 165.269 51.64 165.269 51.8C165.269 51.952 165.261 52.26 165.245 52.724C165.213 53.844 164.909 54.672 164.333 55.208C163.765 55.736 162.885 56 161.693 56H158.705ZM161.633 54.608C162.297 54.608 162.777 54.46 163.073 54.164C163.369 53.868 163.525 53.376 163.541 52.688C163.557 52.208 163.565 51.908 163.565 51.788C163.565 51.66 163.557 51.364 163.541 50.9C163.525 50.244 163.361 49.764 163.049 49.46C162.737 49.148 162.245 48.992 161.573 48.992H160.109V54.608H161.633ZM170.833 56C170.753 56 170.685 55.972 170.629 55.916C170.573 55.86 170.545 55.792 170.545 55.712V47.9C170.545 47.812 170.569 47.74 170.617 47.684C170.673 47.628 170.745 47.6 170.833 47.6H173.941C174.925 47.6 175.693 47.828 176.245 48.284C176.805 48.74 177.085 49.388 177.085 50.228C177.085 50.812 176.945 51.304 176.665 51.704C176.385 52.096 175.993 52.38 175.489 52.556L177.229 55.616C177.253 55.664 177.265 55.708 177.265 55.748C177.265 55.82 177.237 55.88 177.181 55.928C177.133 55.976 177.077 56 177.013 56H175.909C175.781 56 175.681 55.972 175.609 55.916C175.537 55.852 175.473 55.772 175.417 55.676L173.881 52.832H172.237V55.712C172.237 55.792 172.209 55.86 172.153 55.916C172.097 55.972 172.025 56 171.937 56H170.833ZM173.905 51.464C174.385 51.464 174.745 51.36 174.985 51.152C175.225 50.936 175.345 50.624 175.345 50.216C175.345 49.808 175.225 49.496 174.985 49.28C174.745 49.056 174.385 48.944 173.905 48.944H172.237V51.464H173.905ZM178.595 56C178.523 56 178.463 55.976 178.415 55.928C178.367 55.88 178.343 55.82 178.343 55.748L178.367 55.64L181.247 47.9C181.327 47.7 181.471 47.6 181.679 47.6H182.999C183.207 47.6 183.351 47.7 183.431 47.9L186.311 55.64L186.335 55.748C186.335 55.82 186.307 55.88 186.251 55.928C186.203 55.976 186.147 56 186.083 56H185.015C184.847 56 184.731 55.924 184.667 55.772L184.115 54.32H180.563L180.011 55.772C179.947 55.924 179.831 56 179.663 56H178.595ZM180.983 52.928H183.695L182.339 49.232L180.983 52.928ZM188.211 56C188.131 56 188.063 55.972 188.007 55.916C187.951 55.86 187.923 55.792 187.923 55.712V47.9C187.923 47.812 187.947 47.74 187.995 47.684C188.051 47.628 188.123 47.6 188.211 47.6H189.147C189.299 47.6 189.415 47.668 189.495 47.804L192.927 53.132V47.9C192.927 47.812 192.951 47.74 192.999 47.684C193.055 47.628 193.127 47.6 193.215 47.6H194.247C194.335 47.6 194.407 47.628 194.463 47.684C194.519 47.74 194.547 47.812 194.547 47.9V55.7C194.547 55.788 194.519 55.86 194.463 55.916C194.407 55.972 194.339 56 194.259 56H193.311C193.151 56 193.031 55.932 192.951 55.796L189.531 50.588V55.712C189.531 55.792 189.503 55.86 189.447 55.916C189.399 55.972 189.331 56 189.243 56H188.211ZM197.175 56C197.095 56 197.027 55.972 196.971 55.916C196.915 55.86 196.887 55.792 196.887 55.712V47.9C196.887 47.812 196.911 47.74 196.959 47.684C197.015 47.628 197.087 47.6 197.175 47.6H198.255C198.343 47.6 198.415 47.628 198.471 47.684C198.527 47.74 198.555 47.812 198.555 47.9V50.708L201.231 47.816C201.351 47.672 201.507 47.6 201.699 47.6H202.923C202.987 47.6 203.043 47.624 203.091 47.672C203.147 47.72 203.175 47.78 203.175 47.852C203.175 47.908 203.155 47.956 203.115 47.996L199.851 51.62L203.355 55.592C203.387 55.648 203.403 55.7 203.403 55.748C203.403 55.82 203.379 55.88 203.331 55.928C203.283 55.976 203.227 56 203.163 56H201.903C201.735 56 201.615 55.968 201.543 55.904C201.471 55.832 201.431 55.792 201.423 55.784L198.555 52.616V55.712C198.555 55.792 198.527 55.86 198.471 55.916C198.415 55.972 198.343 56 198.255 56H197.175Z" fill="white"/>
<path d="M137.32 77.376C137.224 77.376 137.138 77.344 137.064 77.28C136.989 77.2053 136.957 77.12 136.968 77.024L137.192 75.536H136.104C135.997 75.536 135.906 75.4987 135.832 75.424C135.757 75.3493 135.72 75.2587 135.72 75.152V73.808C135.72 73.7013 135.757 73.6107 135.832 73.536C135.906 73.4613 135.997 73.424 136.104 73.424H137.512L137.8 71.472H136.52C136.413 71.472 136.322 71.4347 136.248 71.36C136.173 71.2853 136.136 71.1947 136.136 71.088V69.744C136.136 69.6373 136.173 69.5467 136.248 69.472C136.322 69.3973 136.413 69.36 136.52 69.36H138.12L138.344 67.856C138.365 67.76 138.408 67.68 138.472 67.616C138.546 67.552 138.632 67.52 138.728 67.52H140.056C140.152 67.52 140.232 67.5573 140.296 67.632C140.37 67.696 140.402 67.776 140.392 67.872L140.168 69.36H141.752L141.976 67.856C141.997 67.76 142.04 67.68 142.104 67.616C142.178 67.552 142.264 67.52 142.36 67.52H143.688C143.784 67.52 143.864 67.5573 143.928 67.632C144.002 67.696 144.034 67.776 144.024 67.872L143.8 69.36H144.888C144.994 69.36 145.085 69.3973 145.16 69.472C145.234 69.5467 145.272 69.6373 145.272 69.744V71.088C145.272 71.1947 145.234 71.2853 145.16 71.36C145.085 71.4347 144.994 71.472 144.888 71.472H143.496L143.208 73.424H144.472C144.578 73.424 144.669 73.4613 144.744 73.536C144.818 73.6107 144.856 73.7013 144.856 73.808V75.152C144.856 75.2587 144.818 75.3493 144.744 75.424C144.669 75.4987 144.578 75.536 144.472 75.536H142.888L142.664 77.04C142.642 77.136 142.6 77.216 142.536 77.28C142.472 77.344 142.386 77.376 142.28 77.376H140.952C140.856 77.376 140.77 77.344 140.696 77.28C140.632 77.2053 140.6 77.12 140.6 77.024L140.824 75.536H139.256L139.032 77.04C139.01 77.136 138.968 77.216 138.904 77.28C138.84 77.344 138.754 77.376 138.648 77.376H137.32ZM139.576 73.424H141.144L141.432 71.472H139.864L139.576 73.424ZM150.401 78C150.294 78 150.198 77.9627 150.113 77.888C150.038 77.8027 150.001 77.7067 150.001 77.6V70.112L147.857 71.76C147.771 71.8133 147.691 71.84 147.617 71.84C147.489 71.84 147.377 71.776 147.281 71.648L146.289 70.368C146.246 70.2933 146.225 70.2133 146.225 70.128C146.225 69.9787 146.283 69.8613 146.401 69.776L150.113 66.912C150.219 66.8373 150.342 66.8 150.481 66.8H152.593C152.71 66.8 152.806 66.8373 152.881 66.912C152.966 66.9867 153.009 67.0827 153.009 67.2V77.6C153.009 77.7173 152.966 77.8133 152.881 77.888C152.806 77.9627 152.71 78 152.593 78H150.401ZM154.847 79.2C154.751 79.2 154.671 79.1627 154.607 79.088C154.554 79.024 154.533 78.944 154.543 78.848L155.039 75.632C155.061 75.4827 155.119 75.3547 155.215 75.248C155.311 75.1307 155.45 75.072 155.631 75.072H157.567C157.653 75.072 157.727 75.104 157.791 75.168C157.855 75.232 157.887 75.3067 157.887 75.392C157.887 75.456 157.877 75.5147 157.855 75.568L156.607 78.752C156.49 79.0507 156.293 79.2 156.015 79.2H154.847ZM164.646 78C164.539 78 164.443 77.9627 164.358 77.888C164.283 77.8027 164.246 77.7067 164.246 77.6V75.84H159.286C159.179 75.84 159.083 75.8027 158.998 75.728C158.923 75.6427 158.886 75.5467 158.886 75.44V73.824C158.886 73.664 158.944 73.504 159.062 73.344L163.702 67.072C163.851 66.8907 164.048 66.8 164.294 66.8H166.726C166.843 66.8 166.939 66.8373 167.014 66.912C167.099 66.9867 167.142 67.0827 167.142 67.2V73.36H168.55C168.678 73.36 168.779 73.4027 168.854 73.488C168.928 73.5627 168.966 73.6533 168.966 73.76V75.44C168.966 75.5467 168.928 75.6427 168.854 75.728C168.779 75.8027 168.683 75.84 168.566 75.84H167.142V77.6C167.142 77.7173 167.099 77.8133 167.014 77.888C166.939 77.9627 166.843 78 166.726 78H164.646ZM161.734 73.472H164.31V69.872L161.734 73.472ZM174.685 78.16C173.64 78.16 172.76 78 172.045 77.68C171.341 77.3493 170.818 76.944 170.477 76.464C170.146 75.984 169.97 75.504 169.949 75.024C169.949 74.928 169.981 74.848 170.045 74.784C170.12 74.72 170.205 74.688 170.301 74.688H172.509C172.637 74.688 172.738 74.7147 172.813 74.768C172.888 74.8107 172.957 74.8853 173.021 74.992C173.224 75.5147 173.784 75.776 174.701 75.776C175.224 75.776 175.629 75.6533 175.917 75.408C176.205 75.1627 176.349 74.832 176.349 74.416C176.349 73.616 175.816 73.216 174.749 73.216H172.957C172.84 73.216 172.738 73.1787 172.653 73.104C172.578 73.0187 172.541 72.9173 172.541 72.8V71.856C172.541 71.6107 172.632 71.4293 172.813 71.312L175.389 69.2H170.973C170.866 69.2 170.77 69.1627 170.685 69.088C170.61 69.0027 170.573 68.9067 170.573 68.8V67.216C170.573 67.0987 170.61 67.0027 170.685 66.928C170.76 66.8427 170.856 66.8 170.973 66.8H178.429C178.546 66.8 178.642 66.8427 178.717 66.928C178.792 67.0027 178.829 67.0987 178.829 67.216V68.64C178.829 68.864 178.744 69.04 178.573 69.168L176.205 71.328L176.317 71.36C177.277 71.4987 178.04 71.8293 178.605 72.352C179.17 72.8747 179.453 73.6267 179.453 74.608C179.453 75.3227 179.245 75.952 178.829 76.496C178.424 77.0293 177.858 77.44 177.133 77.728C176.418 78.016 175.602 78.16 174.685 78.16ZM185.534 78.16C184.499 78.16 183.624 78.0053 182.91 77.696C182.195 77.376 181.662 76.9493 181.31 76.416C180.968 75.8827 180.798 75.2853 180.798 74.624C180.798 74.0693 180.936 73.568 181.214 73.12C181.502 72.6613 181.875 72.3093 182.334 72.064C181.576 71.5733 181.198 70.8373 181.198 69.856C181.198 68.9067 181.56 68.1333 182.286 67.536C183.022 66.9387 184.104 66.64 185.534 66.64C186.952 66.64 188.019 66.9387 188.734 67.536C189.459 68.1227 189.822 68.8907 189.822 69.84C189.822 70.8107 189.459 71.552 188.734 72.064C189.203 72.288 189.576 72.6293 189.854 73.088C190.142 73.5467 190.286 74.064 190.286 74.64C190.286 75.3013 190.11 75.8987 189.758 76.432C189.406 76.9547 188.872 77.376 188.158 77.696C187.443 78.0053 186.568 78.16 185.534 78.16ZM185.534 71.232C185.982 71.2213 186.35 71.104 186.638 70.88C186.926 70.6453 187.07 70.352 187.07 70C187.07 69.6373 186.926 69.344 186.638 69.12C186.35 68.8853 185.982 68.768 185.534 68.768C185.075 68.768 184.702 68.8853 184.414 69.12C184.136 69.344 183.998 69.6373 183.998 70C183.998 70.3627 184.136 70.6613 184.414 70.896C184.702 71.12 185.075 71.232 185.534 71.232ZM185.534 76.048C186.035 76.048 186.446 75.92 186.766 75.664C187.096 75.408 187.262 75.0667 187.262 74.64C187.262 74.2133 187.096 73.872 186.766 73.616C186.446 73.36 186.035 73.232 185.534 73.232C185.032 73.232 184.616 73.36 184.286 73.616C183.955 73.872 183.79 74.2133 183.79 74.64C183.79 75.0667 183.955 75.408 184.286 75.664C184.616 75.92 185.032 76.048 185.534 76.048Z" fill="white"/>
<rect x="109" y="16" width="1" height="69" fill="url(#paint1_linear_178_6759)"/>
<path d="M59 33.75L52.828 36.995L54.007 30.122L49.007 25.255L55.907 24.255L58.993 18.002L62.079 24.255L68.979 25.255L63.979 30.122L65.158 36.995L59 33.75Z" stroke="white" stroke-width="2" stroke-linecap="round" stroke-linejoin="round"/>
<path opacity="0.5" d="M36.8736 56C36.7936 56 36.7256 55.972 36.6696 55.916C36.6136 55.86 36.5856 55.792 36.5856 55.712V47.9C36.5856 47.812 36.6096 47.74 36.6576 47.684C36.7136 47.628 36.7856 47.6 36.8736 47.6H40.0896C41.0576 47.6 41.8176 47.828 42.3696 48.284C42.9216 48.74 43.1976 49.404 43.1976 50.276C43.1976 51.14 42.9216 51.796 42.3696 52.244C41.8176 52.684 41.0576 52.904 40.0896 52.904H38.3256V55.712C38.3256 55.8 38.2976 55.872 38.2416 55.928C38.1856 55.976 38.1136 56 38.0256 56H36.8736ZM40.0296 51.56C40.4936 51.56 40.8456 51.452 41.0856 51.236C41.3336 51.012 41.4576 50.688 41.4576 50.264C41.4576 49.848 41.3376 49.524 41.0976 49.292C40.8656 49.06 40.5096 48.944 40.0296 48.944H38.3016V51.56H40.0296ZM48.2275 56.12C47.1315 56.12 46.2795 55.844 45.6715 55.292C45.0635 54.74 44.7435 53.92 44.7115 52.832C44.7035 52.6 44.6995 52.26 44.6995 51.812C44.6995 51.356 44.7035 51.012 44.7115 50.78C44.7435 49.716 45.0715 48.9 45.6955 48.332C46.3195 47.764 47.1635 47.48 48.2275 47.48C49.2835 47.48 50.1235 47.764 50.7475 48.332C51.3795 48.9 51.7115 49.716 51.7435 50.78C51.7595 51.244 51.7675 51.588 51.7675 51.812C51.7675 52.028 51.7595 52.368 51.7435 52.832C51.7115 53.92 51.3875 54.74 50.7715 55.292C50.1635 55.844 49.3155 56.12 48.2275 56.12ZM48.2275 54.728C48.7635 54.728 49.1875 54.568 49.4995 54.248C49.8115 53.928 49.9795 53.436 50.0035 52.772C50.0195 52.292 50.0275 51.968 50.0275 51.8C50.0275 51.616 50.0195 51.292 50.0035 50.828C49.9795 50.172 49.8075 49.684 49.4875 49.364C49.1675 49.036 48.7475 48.872 48.2275 48.872C47.6995 48.872 47.2755 49.036 46.9555 49.364C46.6355 49.684 46.4675 50.172 46.4515 50.828C46.4435 51.06 46.4395 51.384 46.4395 51.8C46.4395 52.208 46.4435 52.532 46.4515 52.772C46.4675 53.428 46.6315 53.92 46.9435 54.248C47.2635 54.568 47.6915 54.728 48.2275 54.728ZM54.0992 56C54.0192 56 53.9512 55.972 53.8952 55.916C53.8392 55.86 53.8112 55.792 53.8112 55.712V47.888C53.8112 47.8 53.8392 47.732 53.8952 47.684C53.9512 47.628 54.0192 47.6 54.0992 47.6H55.2512C55.3392 47.6 55.4072 47.628 55.4552 47.684C55.5112 47.732 55.5392 47.8 55.5392 47.888V55.712C55.5392 55.792 55.5112 55.86 55.4552 55.916C55.4072 55.972 55.3392 56 55.2512 56H54.0992ZM58.1769 56C58.0969 56 58.0289 55.972 57.9729 55.916C57.9169 55.86 57.8889 55.792 57.8889 55.712V47.9C57.8889 47.812 57.9129 47.74 57.9609 47.684C58.0169 47.628 58.0889 47.6 58.1769 47.6H59.1129C59.2649 47.6 59.3809 47.668 59.4609 47.804L62.8929 53.132V47.9C62.8929 47.812 62.9169 47.74 62.9649 47.684C63.0209 47.628 63.0929 47.6 63.1809 47.6H64.2129C64.3009 47.6 64.3729 47.628 64.4289 47.684C64.4849 47.74 64.5129 47.812 64.5129 47.9V55.7C64.5129 55.788 64.4849 55.86 64.4289 55.916C64.3729 55.972 64.3049 56 64.2249 56H63.2769C63.1169 56 62.9969 55.932 62.9169 55.796L59.4969 50.588V55.712C59.4969 55.792 59.4689 55.86 59.4129 55.916C59.3649 55.972 59.2969 56 59.2089 56H58.1769ZM68.9893 56C68.9093 56 68.8413 55.972 68.7853 55.916C68.7293 55.86 68.7013 55.792 68.7013 55.712V49.1H66.4813C66.4013 49.1 66.3333 49.072 66.2773 49.016C66.2213 48.96 66.1933 48.888 66.1933 48.8V47.9C66.1933 47.812 66.2173 47.74 66.2653 47.684C66.3213 47.628 66.3933 47.6 66.4813 47.6H72.6133C72.7013 47.6 72.7733 47.628 72.8293 47.684C72.8853 47.74 72.9133 47.812 72.9133 47.9V48.8C72.9133 48.888 72.8853 48.96 72.8293 49.016C72.7733 49.072 72.7013 49.1 72.6133 49.1H70.4053V55.712C70.4053 55.792 70.3773 55.86 70.3213 55.916C70.2733 55.972 70.2053 56 70.1173 56H68.9893ZM77.5035 56.12C76.7835 56.12 76.1675 56.012 75.6555 55.796C75.1435 55.58 74.7555 55.296 74.4915 54.944C74.2275 54.592 74.0875 54.208 74.0715 53.792C74.0715 53.728 74.0955 53.672 74.1435 53.624C74.1915 53.568 74.2515 53.54 74.3235 53.54H75.4155C75.5035 53.54 75.5755 53.56 75.6315 53.6C75.6875 53.64 75.7395 53.696 75.7875 53.768C75.8675 54.04 76.0475 54.268 76.3275 54.452C76.6155 54.636 77.0075 54.728 77.5035 54.728C78.0635 54.728 78.4835 54.636 78.7635 54.452C79.0515 54.26 79.1955 54 79.1955 53.672C79.1955 53.456 79.1235 53.276 78.9795 53.132C78.8355 52.988 78.6155 52.864 78.3195 52.76C78.0315 52.648 77.5995 52.516 77.0235 52.364C76.0795 52.14 75.3875 51.844 74.9475 51.476C74.5075 51.108 74.2875 50.58 74.2875 49.892C74.2875 49.428 74.4155 49.016 74.6715 48.656C74.9275 48.288 75.2915 48 75.7635 47.792C76.2435 47.584 76.7995 47.48 77.4315 47.48C78.0955 47.48 78.6675 47.596 79.1475 47.828C79.6355 48.06 80.0035 48.352 80.2515 48.704C80.5075 49.048 80.6435 49.392 80.6595 49.736C80.6595 49.8 80.6355 49.86 80.5875 49.916C80.5395 49.964 80.4795 49.988 80.4075 49.988H79.2675C79.0915 49.988 78.9715 49.916 78.9075 49.772C78.8675 49.516 78.7115 49.304 78.4395 49.136C78.1675 48.96 77.8315 48.872 77.4315 48.872C76.9915 48.872 76.6435 48.956 76.3875 49.124C76.1395 49.292 76.0155 49.536 76.0155 49.856C76.0155 50.072 76.0795 50.252 76.2075 50.396C76.3355 50.54 76.5355 50.668 76.8075 50.78C77.0795 50.884 77.4755 51.004 77.9955 51.14C78.7075 51.3 79.2715 51.48 79.6875 51.68C80.1115 51.88 80.4235 52.132 80.6235 52.436C80.8235 52.74 80.9235 53.128 80.9235 53.6C80.9235 54.12 80.7795 54.572 80.4915 54.956C80.2115 55.332 79.8115 55.62 79.2915 55.82C78.7795 56.02 78.1835 56.12 77.5035 56.12Z" fill="white"/>
<path d="M47.3164 78.176C46.3458 78.176 45.5084 78.0213 44.8044 77.712C44.1111 77.4027 43.5831 76.992 43.2204 76.48C42.8684 75.968 42.6818 75.408 42.6604 74.8C42.6604 74.704 42.6924 74.624 42.7564 74.56C42.8204 74.496 42.9004 74.464 42.9964 74.464H45.2524C45.5084 74.464 45.6844 74.5653 45.7804 74.768C45.9298 75.12 46.1271 75.376 46.3724 75.536C46.6284 75.696 46.9431 75.776 47.3164 75.776C47.7751 75.776 48.1538 75.6373 48.4524 75.36C48.7618 75.0827 48.9164 74.6933 48.9164 74.192C48.9164 73.7547 48.7671 73.392 48.4684 73.104C48.1698 72.816 47.7858 72.672 47.3164 72.672C47.0498 72.672 46.8364 72.7093 46.6764 72.784C46.5164 72.848 46.3618 72.9387 46.2124 73.056C46.0524 73.184 45.9138 73.248 45.7964 73.248H43.5724C43.4764 73.248 43.3911 73.216 43.3164 73.152C43.2524 73.0773 43.2204 72.992 43.2204 72.896L43.8124 67.28C43.8231 67.1307 43.8764 67.0133 43.9724 66.928C44.0791 66.8427 44.2018 66.8 44.3404 66.8H50.8524C50.9698 66.8 51.0658 66.8373 51.1404 66.912C51.2151 66.9867 51.2524 67.0827 51.2524 67.2V68.8C51.2524 68.9067 51.2151 69.0027 51.1404 69.088C51.0658 69.1627 50.9698 69.2 50.8524 69.2H46.1964L46.0044 71.168C46.2604 70.9867 46.5484 70.8533 46.8684 70.768C47.1884 70.672 47.6044 70.624 48.1164 70.624C48.7991 70.624 49.4391 70.7787 50.0364 71.088C50.6338 71.3867 51.1084 71.8133 51.4604 72.368C51.8231 72.9227 52.0044 73.5573 52.0044 74.272C52.0044 75.0187 51.8178 75.6907 51.4444 76.288C51.0711 76.8747 50.5271 77.3387 49.8124 77.68C49.1084 78.0107 48.2764 78.176 47.3164 78.176ZM55.3223 78C55.2263 78 55.1463 77.968 55.0823 77.904C55.0183 77.8293 54.9863 77.744 54.9863 77.648C54.9863 77.5733 55.0076 77.504 55.0503 77.44L57.2903 74.384C57.1516 74.416 57.0076 74.4267 56.8583 74.416C56.2076 74.3733 55.589 74.1973 55.0023 73.888C54.4156 73.568 53.9356 73.1307 53.5623 72.576C53.1996 72.0107 53.0183 71.3707 53.0183 70.656C53.0183 69.952 53.1943 69.296 53.5463 68.688C53.909 68.0693 54.437 67.5733 55.1303 67.2C55.8343 66.8267 56.677 66.64 57.6583 66.64C58.6503 66.64 59.5036 66.8107 60.2183 67.152C60.933 67.4933 61.4716 67.9627 61.8343 68.56C62.2076 69.1467 62.3943 69.808 62.3943 70.544C62.3943 71.1307 62.2716 71.6693 62.0263 72.16C61.7916 72.64 61.4343 73.2053 60.9543 73.856L60.6663 74.256L58.1543 77.68C58.005 77.8933 57.813 78 57.5783 78H55.3223ZM57.6903 72.24C58.1596 72.24 58.5436 72.096 58.8423 71.808C59.1516 71.52 59.3063 71.1307 59.3063 70.64C59.3063 70.1493 59.1516 69.76 58.8423 69.472C58.533 69.184 58.149 69.04 57.6903 69.04C57.221 69.04 56.8316 69.184 56.5223 69.472C56.2236 69.76 56.0743 70.1493 56.0743 70.64C56.0743 71.1307 56.2236 71.52 56.5223 71.808C56.821 72.096 57.2103 72.24 57.6903 72.24ZM68.3701 78.16C66.8981 78.1493 65.7781 77.76 65.0101 76.992C64.2421 76.224 63.8207 75.2107 63.7461 73.952C63.7247 73.376 63.7141 72.8587 63.7141 72.4C63.7141 71.9307 63.7247 71.3973 63.7461 70.8C63.7887 70 63.9861 69.2907 64.3381 68.672C64.7007 68.0427 65.2181 67.5467 65.8901 67.184C66.5727 66.8213 67.3994 66.64 68.3701 66.64C69.3407 66.64 70.1674 66.8213 70.8501 67.184C71.5327 67.5467 72.0501 68.0427 72.4021 68.672C72.7647 69.2907 72.9674 70 73.0101 70.8C73.0314 71.0987 73.0421 71.632 73.0421 72.4C73.0421 73.1467 73.0314 73.664 73.0101 73.952C72.9354 75.2107 72.5141 76.224 71.7461 76.992C70.9781 77.76 69.8527 78.1493 68.3701 78.16ZM68.3701 75.744C68.8714 75.744 69.2447 75.584 69.4901 75.264C69.7354 74.9333 69.8687 74.4693 69.8901 73.872C69.9114 73.5627 69.9221 73.0613 69.9221 72.368C69.9221 71.6747 69.9114 71.184 69.8901 70.896C69.8687 70.32 69.7354 69.8667 69.4901 69.536C69.2447 69.1947 68.8714 69.024 68.3701 69.024C67.4101 69.024 66.9034 69.648 66.8501 70.896C66.8394 71.184 66.8341 71.6747 66.8341 72.368C66.8341 73.0613 66.8394 73.5627 66.8501 73.872C66.9034 75.12 67.4101 75.744 68.3701 75.744Z" fill="white"/>
<defs>
<linearGradient id="paint0_linear_178_6759" x1="217.5" y1="16" x2="217.5" y2="85" gradientUnits="userSpaceOnUse">
<stop stop-color="white" stop-opacity="0.1"/>
<stop offset="0.466256" stop-color="white" stop-opacity="0.5"/>
<stop offset="1" stop-color="white" stop-opacity="0.1"/>
</linearGradient>
<linearGradient id="paint1_linear_178_6759" x1="109.5" y1="16" x2="109.5" y2="85" gradientUnits="userSpaceOnUse">
<stop stop-color="white" stop-opacity="0.1"/>
<stop offset="0.466256" stop-color="white" stop-opacity="0.5"/>
<stop offset="1" stop-color="white" stop-opacity="0.1"/>
</linearGradient>
</defs>
</svg>
