<svg width="327" height="430" viewBox="0 0 327 430" fill="none" xmlns="http://www.w3.org/2000/svg">
<rect width="327" height="430" rx="20" fill="#E8E5FA"/>
<mask id="mask0_178_6730" style="mask-type:alpha" maskUnits="userSpaceOnUse" x="0" y="0" width="327" height="430">
<rect width="327" height="430" rx="20" fill="#E8E5FA"/>
</mask>
<g mask="url(#mask0_178_6730)">
<path d="M-158 96C-158 96 -140.623 31.0222 -106.62 17.0467C-49.8626 -6.28037 24.6816 68.7337 98.3035 51.1402C157.796 36.9232 216 -32 216 -32" stroke="#D9D4F7" stroke-width="2"/>
<path d="M-134 78C-134 78 -119.458 23.6826 -91 12C-43.5 -7.5 18.8859 55.2071 80.5 40.5C130.289 28.6155 179 -29 179 -29" stroke="#D9D4F7" stroke-width="2"/>
</g>
<rect x="171" y="318" width="140" height="96" rx="20" fill="#6A5AE0"/>
<path d="M287 338V344M283 338V341V338ZM279 338V344V338Z" stroke="white" stroke-width="2" stroke-linecap="round" stroke-linejoin="round"/>
<path d="M283 352.5L280 354L280.5 350.5L278.5 348.5L281.5 348L283 345L284.5 348L287.5 348.5L285.5 350.5L286 354L283 352.5Z" stroke="white" stroke-width="2" stroke-linecap="round" stroke-linejoin="round"/>
<path d="M194.546 393.91C194.443 393.91 194.355 393.877 194.28 393.812C194.205 393.756 194.135 393.681 194.07 393.588L193.496 392.79C193.001 393.023 192.413 393.14 191.732 393.14C190.519 393.14 189.581 392.823 188.918 392.188C188.255 391.544 187.905 390.578 187.868 389.29C187.859 389.01 187.854 388.613 187.854 388.1C187.854 387.587 187.859 387.195 187.868 386.924C187.905 385.655 188.265 384.693 188.946 384.04C189.637 383.387 190.565 383.06 191.732 383.06C192.899 383.06 193.823 383.387 194.504 384.04C195.185 384.693 195.545 385.655 195.582 386.924C195.601 387.465 195.61 387.857 195.61 388.1C195.61 388.333 195.601 388.73 195.582 389.29C195.545 390.578 195.204 391.535 194.56 392.16L195.498 393.476C195.526 393.532 195.54 393.583 195.54 393.63C195.54 393.705 195.512 393.77 195.456 393.826C195.4 393.882 195.335 393.91 195.26 393.91H194.546ZM191.732 391.978C192.479 391.978 193.076 391.754 193.524 391.306C193.972 390.849 194.21 390.153 194.238 389.22C194.257 388.66 194.266 388.287 194.266 388.1C194.266 387.895 194.257 387.521 194.238 386.98C194.21 386.047 193.972 385.351 193.524 384.894C193.076 384.437 192.479 384.208 191.732 384.208C190.985 384.208 190.383 384.437 189.926 384.894C189.478 385.351 189.24 386.047 189.212 386.98C189.203 387.251 189.198 387.624 189.198 388.1C189.198 388.567 189.203 388.94 189.212 389.22C189.24 390.153 189.478 390.849 189.926 391.306C190.374 391.754 190.976 391.978 191.732 391.978ZM200.213 393.14C199.327 393.14 198.641 392.855 198.155 392.286C197.67 391.707 197.427 390.942 197.427 389.99V386.042C197.427 385.949 197.455 385.874 197.511 385.818C197.577 385.753 197.656 385.72 197.749 385.72H198.393C198.487 385.72 198.561 385.753 198.617 385.818C198.683 385.874 198.715 385.949 198.715 386.042V389.92C198.715 391.339 199.331 392.048 200.563 392.048C201.161 392.048 201.632 391.861 201.977 391.488C202.332 391.105 202.509 390.583 202.509 389.92V386.042C202.509 385.949 202.537 385.874 202.593 385.818C202.659 385.753 202.738 385.72 202.831 385.72H203.475C203.569 385.72 203.643 385.753 203.699 385.818C203.765 385.874 203.797 385.949 203.797 386.042V392.678C203.797 392.771 203.765 392.851 203.699 392.916C203.643 392.972 203.569 393 203.475 393H202.873C202.78 393 202.701 392.972 202.635 392.916C202.579 392.851 202.551 392.771 202.551 392.678V392.048C202.281 392.412 201.963 392.687 201.599 392.874C201.235 393.051 200.773 393.14 200.213 393.14ZM206.102 384.348C206.008 384.348 205.929 384.32 205.864 384.264C205.808 384.199 205.78 384.119 205.78 384.026V383.298C205.78 383.205 205.808 383.125 205.864 383.06C205.929 382.995 206.008 382.962 206.102 382.962H206.928C207.021 382.962 207.1 382.995 207.166 383.06C207.231 383.125 207.264 383.205 207.264 383.298V384.026C207.264 384.119 207.231 384.199 207.166 384.264C207.1 384.32 207.021 384.348 206.928 384.348H206.102ZM206.214 393C206.12 393 206.041 392.972 205.976 392.916C205.92 392.851 205.892 392.771 205.892 392.678V386.042C205.892 385.949 205.92 385.874 205.976 385.818C206.041 385.753 206.12 385.72 206.214 385.72H206.83C206.923 385.72 206.998 385.753 207.054 385.818C207.119 385.874 207.152 385.949 207.152 386.042V392.678C207.152 392.771 207.119 392.851 207.054 392.916C206.998 392.972 206.923 393 206.83 393H206.214ZM209.101 393C209.008 393 208.928 392.972 208.863 392.916C208.807 392.851 208.779 392.771 208.779 392.678V392.216C208.779 392.141 208.798 392.067 208.835 391.992C208.882 391.908 208.928 391.833 208.975 391.768L212.881 386.798H209.227C209.134 386.798 209.059 386.77 209.003 386.714C208.947 386.649 208.919 386.569 208.919 386.476V386.042C208.919 385.949 208.947 385.874 209.003 385.818C209.059 385.753 209.134 385.72 209.227 385.72H214.183C214.276 385.72 214.351 385.753 214.407 385.818C214.472 385.874 214.505 385.949 214.505 386.042V386.532C214.505 386.635 214.44 386.779 214.309 386.966L210.459 391.922H214.463C214.566 391.922 214.645 391.95 214.701 392.006C214.757 392.062 214.785 392.141 214.785 392.244V392.678C214.785 392.771 214.752 392.851 214.687 392.916C214.631 392.972 214.556 393 214.463 393H209.101ZM221.398 393C221.164 393 221.02 392.879 220.964 392.636L219.158 383.634L219.13 383.48C219.13 383.405 219.158 383.34 219.214 383.284C219.27 383.228 219.335 383.2 219.41 383.2H220.096C220.292 383.2 220.404 383.279 220.432 383.438L221.874 390.746L223.428 385.706C223.484 385.482 223.628 385.37 223.862 385.37H224.352C224.576 385.37 224.725 385.482 224.8 385.706L226.34 390.746L227.782 383.438C227.81 383.279 227.926 383.2 228.132 383.2H228.804C228.878 383.2 228.944 383.228 229 383.284C229.056 383.34 229.084 383.405 229.084 383.48C229.084 383.536 229.079 383.587 229.07 383.634L227.25 392.636C227.203 392.879 227.058 393 226.816 393H226.312C226.078 393 225.924 392.883 225.85 392.65L224.114 387.26L222.364 392.65C222.298 392.883 222.149 393 221.916 393H221.398ZM233.4 393.14C232.374 393.14 231.58 392.851 231.02 392.272C230.47 391.693 230.176 390.923 230.138 389.962L230.124 389.36L230.138 388.758C230.176 387.797 230.474 387.027 231.034 386.448C231.604 385.869 232.392 385.58 233.4 385.58C234.408 385.58 235.192 385.869 235.752 386.448C236.322 387.027 236.625 387.797 236.662 388.758C236.681 388.963 236.69 389.164 236.69 389.36C236.69 389.556 236.681 389.757 236.662 389.962C236.625 390.923 236.326 391.693 235.766 392.272C235.216 392.851 234.427 393.14 233.4 393.14ZM233.4 392.09C233.998 392.09 234.469 391.903 234.814 391.53C235.169 391.147 235.36 390.601 235.388 389.892C235.398 389.799 235.402 389.621 235.402 389.36C235.402 389.099 235.398 388.921 235.388 388.828C235.36 388.119 235.169 387.577 234.814 387.204C234.469 386.821 233.998 386.63 233.4 386.63C232.803 386.63 232.327 386.821 231.972 387.204C231.627 387.577 231.44 388.119 231.412 388.828L231.398 389.36L231.412 389.892C231.44 390.601 231.627 391.147 231.972 391.53C232.327 391.903 232.803 392.09 233.4 392.09ZM238.78 393C238.687 393 238.608 392.972 238.542 392.916C238.486 392.851 238.458 392.771 238.458 392.678V386.042C238.458 385.949 238.486 385.874 238.542 385.818C238.608 385.753 238.687 385.72 238.78 385.72H239.382C239.485 385.72 239.564 385.748 239.62 385.804C239.676 385.86 239.704 385.939 239.704 386.042V386.658C239.984 386.313 240.306 386.047 240.67 385.86C241.044 385.673 241.506 385.58 242.056 385.58C242.952 385.58 243.648 385.869 244.142 386.448C244.637 387.017 244.884 387.773 244.884 388.716V392.678C244.884 392.771 244.852 392.851 244.786 392.916C244.73 392.972 244.656 393 244.562 393H243.918C243.825 393 243.746 392.972 243.68 392.916C243.624 392.851 243.596 392.771 243.596 392.678V388.8C243.596 388.128 243.433 387.605 243.106 387.232C242.78 386.859 242.313 386.672 241.706 386.672C241.109 386.672 240.633 386.863 240.278 387.246C239.924 387.619 239.746 388.137 239.746 388.8V392.678C239.746 392.771 239.714 392.851 239.648 392.916C239.592 392.972 239.518 393 239.424 393H238.78Z" fill="white"/>
<path d="M189.112 369C188.899 369 188.707 368.925 188.536 368.776C188.387 368.605 188.312 368.413 188.312 368.2V365.8C188.312 365.16 188.579 364.627 189.112 364.2L192.088 361.288C194.115 359.752 195.64 358.557 196.664 357.704C197.709 356.851 198.499 356.083 199.032 355.4C199.587 354.696 199.864 354.035 199.864 353.416C199.864 351.837 199.075 351.048 197.496 351.048C196.664 351.048 196.024 351.304 195.576 351.816C195.128 352.307 194.829 352.925 194.68 353.672C194.552 354.163 194.189 354.408 193.592 354.408H189.368C189.176 354.408 189.005 354.344 188.856 354.216C188.728 354.067 188.664 353.907 188.664 353.736C188.707 352.328 189.091 351.059 189.816 349.928C190.563 348.776 191.597 347.869 192.92 347.208C194.243 346.525 195.768 346.184 197.496 346.184C199.288 346.184 200.835 346.472 202.136 347.048C203.437 347.624 204.419 348.435 205.08 349.48C205.763 350.525 206.104 351.741 206.104 353.128C206.104 354.664 205.624 356.051 204.664 357.288C203.725 358.525 202.285 359.869 200.344 361.32L197.688 363.976H205.784C206.019 363.976 206.211 364.051 206.36 364.2C206.509 364.349 206.584 364.541 206.584 364.776V368.2C206.584 368.413 206.509 368.605 206.36 368.776C206.211 368.925 206.019 369 205.784 369H189.112ZM216.864 369C216.651 369 216.459 368.925 216.288 368.776C216.139 368.605 216.064 368.413 216.064 368.2V353.224L211.776 356.52C211.605 356.627 211.445 356.68 211.296 356.68C211.04 356.68 210.816 356.552 210.624 356.296L208.64 353.736C208.555 353.587 208.512 353.427 208.512 353.256C208.512 352.957 208.629 352.723 208.864 352.552L216.288 346.824C216.501 346.675 216.747 346.6 217.024 346.6H221.248C221.483 346.6 221.675 346.675 221.824 346.824C221.995 346.973 222.08 347.165 222.08 347.4V368.2C222.08 368.435 221.995 368.627 221.824 368.776C221.675 368.925 221.483 369 221.248 369H216.864Z" fill="white"/>
<rect x="16" y="318" width="140" height="96" rx="20" fill="white"/>
<path d="M39.546 393.91C39.4433 393.91 39.3547 393.877 39.28 393.812C39.2053 393.756 39.1353 393.681 39.07 393.588L38.496 392.79C38.0013 393.023 37.4133 393.14 36.732 393.14C35.5187 393.14 34.5807 392.823 33.918 392.188C33.2553 391.544 32.9053 390.578 32.868 389.29C32.8587 389.01 32.854 388.613 32.854 388.1C32.854 387.587 32.8587 387.195 32.868 386.924C32.9053 385.655 33.2647 384.693 33.946 384.04C34.6367 383.387 35.5653 383.06 36.732 383.06C37.8987 383.06 38.8227 383.387 39.504 384.04C40.1853 384.693 40.5447 385.655 40.582 386.924C40.6007 387.465 40.61 387.857 40.61 388.1C40.61 388.333 40.6007 388.73 40.582 389.29C40.5447 390.578 40.204 391.535 39.56 392.16L40.498 393.476C40.526 393.532 40.54 393.583 40.54 393.63C40.54 393.705 40.512 393.77 40.456 393.826C40.4 393.882 40.3347 393.91 40.26 393.91H39.546ZM36.732 391.978C37.4787 391.978 38.076 391.754 38.524 391.306C38.972 390.849 39.21 390.153 39.238 389.22C39.2567 388.66 39.266 388.287 39.266 388.1C39.266 387.895 39.2567 387.521 39.238 386.98C39.21 386.047 38.972 385.351 38.524 384.894C38.076 384.437 37.4787 384.208 36.732 384.208C35.9853 384.208 35.3833 384.437 34.926 384.894C34.478 385.351 34.24 386.047 34.212 386.98C34.2027 387.251 34.198 387.624 34.198 388.1C34.198 388.567 34.2027 388.94 34.212 389.22C34.24 390.153 34.478 390.849 34.926 391.306C35.374 391.754 35.976 391.978 36.732 391.978ZM45.2133 393.14C44.3266 393.14 43.6406 392.855 43.1553 392.286C42.6699 391.707 42.4273 390.942 42.4273 389.99V386.042C42.4273 385.949 42.4553 385.874 42.5113 385.818C42.5766 385.753 42.6559 385.72 42.7493 385.72H43.3933C43.4866 385.72 43.5613 385.753 43.6173 385.818C43.6826 385.874 43.7153 385.949 43.7153 386.042V389.92C43.7153 391.339 44.3313 392.048 45.5633 392.048C46.1606 392.048 46.6319 391.861 46.9773 391.488C47.3319 391.105 47.5093 390.583 47.5093 389.92V386.042C47.5093 385.949 47.5373 385.874 47.5933 385.818C47.6586 385.753 47.7379 385.72 47.8313 385.72H48.4753C48.5686 385.72 48.6433 385.753 48.6993 385.818C48.7646 385.874 48.7973 385.949 48.7973 386.042V392.678C48.7973 392.771 48.7646 392.851 48.6993 392.916C48.6433 392.972 48.5686 393 48.4753 393H47.8733C47.7799 393 47.7006 392.972 47.6353 392.916C47.5793 392.851 47.5513 392.771 47.5513 392.678V392.048C47.2806 392.412 46.9633 392.687 46.5993 392.874C46.2353 393.051 45.7733 393.14 45.2133 393.14ZM51.1018 384.348C51.0085 384.348 50.9291 384.32 50.8638 384.264C50.8078 384.199 50.7798 384.119 50.7798 384.026V383.298C50.7798 383.205 50.8078 383.125 50.8638 383.06C50.9291 382.995 51.0085 382.962 51.1018 382.962H51.9278C52.0211 382.962 52.1005 382.995 52.1658 383.06C52.2311 383.125 52.2638 383.205 52.2638 383.298V384.026C52.2638 384.119 52.2311 384.199 52.1658 384.264C52.1005 384.32 52.0211 384.348 51.9278 384.348H51.1018ZM51.2138 393C51.1205 393 51.0411 392.972 50.9758 392.916C50.9198 392.851 50.8918 392.771 50.8918 392.678V386.042C50.8918 385.949 50.9198 385.874 50.9758 385.818C51.0411 385.753 51.1205 385.72 51.2138 385.72H51.8298C51.9231 385.72 51.9978 385.753 52.0538 385.818C52.1191 385.874 52.1518 385.949 52.1518 386.042V392.678C52.1518 392.771 52.1191 392.851 52.0538 392.916C51.9978 392.972 51.9231 393 51.8298 393H51.2138ZM54.1011 393C54.0077 393 53.9284 392.972 53.8631 392.916C53.8071 392.851 53.7791 392.771 53.7791 392.678V392.216C53.7791 392.141 53.7977 392.067 53.8351 391.992C53.8817 391.908 53.9284 391.833 53.9751 391.768L57.8811 386.798H54.2271C54.1337 386.798 54.0591 386.77 54.0031 386.714C53.9471 386.649 53.9191 386.569 53.9191 386.476V386.042C53.9191 385.949 53.9471 385.874 54.0031 385.818C54.0591 385.753 54.1337 385.72 54.2271 385.72H59.1831C59.2764 385.72 59.3511 385.753 59.4071 385.818C59.4724 385.874 59.5051 385.949 59.5051 386.042V386.532C59.5051 386.635 59.4397 386.779 59.3091 386.966L55.4591 391.922H59.4631C59.5657 391.922 59.6451 391.95 59.7011 392.006C59.7571 392.062 59.7851 392.141 59.7851 392.244V392.678C59.7851 392.771 59.7524 392.851 59.6871 392.916C59.6311 392.972 59.5564 393 59.4631 393H54.1011ZM68.4781 393.14C67.2368 393.14 66.2894 392.804 65.6361 392.132C64.9921 391.451 64.6468 390.522 64.6001 389.346C64.5908 389.094 64.5861 388.683 64.5861 388.114C64.5861 387.535 64.5908 387.115 64.6001 386.854C64.6468 385.678 64.9921 384.754 65.6361 384.082C66.2894 383.401 67.2368 383.06 68.4781 383.06C69.3088 383.06 70.0134 383.209 70.5921 383.508C71.1708 383.797 71.6048 384.18 71.8941 384.656C72.1928 385.132 72.3561 385.641 72.3841 386.182C72.3841 386.266 72.3514 386.336 72.2861 386.392C72.2301 386.439 72.1601 386.462 72.0761 386.462H71.3761C71.2828 386.462 71.2081 386.439 71.1521 386.392C71.0961 386.345 71.0541 386.266 71.0261 386.154C70.8674 385.435 70.5781 384.931 70.1581 384.642C69.7474 384.353 69.1874 384.208 68.4781 384.208C66.8541 384.208 66.0094 385.113 65.9441 386.924C65.9348 387.176 65.9301 387.563 65.9301 388.086C65.9301 388.609 65.9348 389.005 65.9441 389.276C66.0094 391.077 66.8541 391.978 68.4781 391.978C69.1781 391.978 69.7381 391.833 70.1581 391.544C70.5781 391.255 70.8674 390.755 71.0261 390.046C71.0541 389.934 71.0961 389.855 71.1521 389.808C71.2081 389.761 71.2828 389.738 71.3761 389.738H72.0761C72.1601 389.738 72.2301 389.766 72.2861 389.822C72.3514 389.869 72.3841 389.934 72.3841 390.018C72.3561 390.559 72.1928 391.068 71.8941 391.544C71.6048 392.02 71.1708 392.407 70.5921 392.706C70.0134 392.995 69.3088 393.14 68.4781 393.14ZM74.4286 393C74.3353 393 74.256 392.972 74.1906 392.916C74.1346 392.851 74.1066 392.771 74.1066 392.678V386.056C74.1066 385.963 74.1346 385.883 74.1906 385.818C74.256 385.753 74.3353 385.72 74.4286 385.72H75.0166C75.1193 385.72 75.1986 385.753 75.2546 385.818C75.32 385.874 75.3526 385.953 75.3526 386.056V386.672C75.7353 386.037 76.384 385.72 77.2986 385.72H77.8446C77.9473 385.72 78.0266 385.748 78.0826 385.804C78.1386 385.86 78.1666 385.939 78.1666 386.042V386.56C78.1666 386.653 78.1386 386.733 78.0826 386.798C78.0266 386.854 77.9473 386.882 77.8446 386.882H77.0466C76.5333 386.882 76.1273 387.031 75.8286 387.33C75.5393 387.629 75.3946 388.035 75.3946 388.548V392.678C75.3946 392.771 75.362 392.851 75.2966 392.916C75.2313 392.972 75.152 393 75.0586 393H74.4286ZM82.1176 393.14C81.1656 393.14 80.4049 392.846 79.8356 392.258C79.2663 391.661 78.9536 390.849 78.8976 389.822L78.8836 389.346L78.8976 388.884C78.9536 387.876 79.2663 387.073 79.8356 386.476C80.4049 385.879 81.1656 385.58 82.1176 385.58C83.1443 385.58 83.9376 385.907 84.4976 386.56C85.0669 387.213 85.3516 388.1 85.3516 389.22V389.472C85.3516 389.565 85.3189 389.645 85.2536 389.71C85.1976 389.766 85.1229 389.794 85.0296 389.794H80.1716V389.92C80.1996 390.527 80.3863 391.045 80.7316 391.474C81.0769 391.903 81.5343 392.118 82.1036 392.118C82.5423 392.118 82.8969 392.034 83.1676 391.866C83.4476 391.689 83.6576 391.507 83.7976 391.32C83.8816 391.208 83.9469 391.143 83.9936 391.124C84.0403 391.096 84.1196 391.082 84.2316 391.082H84.8476C84.9316 391.082 85.0016 391.105 85.0576 391.152C85.1229 391.199 85.1556 391.259 85.1556 391.334C85.1556 391.539 85.0296 391.787 84.7776 392.076C84.5256 392.365 84.1663 392.617 83.6996 392.832C83.2423 393.037 82.7149 393.14 82.1176 393.14ZM84.0776 388.842V388.8C84.0776 388.147 83.9003 387.615 83.5456 387.204C83.1909 386.793 82.7149 386.588 82.1176 386.588C81.5109 386.588 81.0349 386.793 80.6896 387.204C80.3443 387.615 80.1716 388.147 80.1716 388.8V388.842H84.0776ZM89.0699 393.14C88.6126 393.14 88.1879 393.047 87.7959 392.86C87.4132 392.673 87.1052 392.421 86.8719 392.104C86.6479 391.777 86.5359 391.418 86.5359 391.026C86.5359 390.41 86.7879 389.906 87.2919 389.514C87.7959 389.122 88.4819 388.861 89.3499 388.73L91.4499 388.436V388.03C91.4499 387.069 90.8946 386.588 89.7839 386.588C89.3546 386.588 89.0092 386.677 88.7479 386.854C88.4866 387.022 88.2952 387.223 88.1739 387.456C88.1366 387.549 88.0946 387.615 88.0479 387.652C88.0106 387.68 87.9546 387.694 87.8799 387.694H87.3339C87.2499 387.694 87.1752 387.666 87.1099 387.61C87.0539 387.545 87.0259 387.47 87.0259 387.386C87.0259 387.171 87.1239 386.924 87.3199 386.644C87.5252 386.355 87.8379 386.107 88.2579 385.902C88.6779 385.687 89.1912 385.58 89.7979 385.58C90.8432 385.58 91.5899 385.823 92.0379 386.308C92.4952 386.793 92.7239 387.4 92.7239 388.128V392.678C92.7239 392.771 92.6912 392.851 92.6259 392.916C92.5699 392.972 92.4952 393 92.4019 393H91.7859C91.6926 393 91.6179 392.972 91.5619 392.916C91.5059 392.851 91.4779 392.771 91.4779 392.678V392.062C91.2726 392.37 90.9739 392.627 90.5819 392.832C90.1899 393.037 89.6859 393.14 89.0699 393.14ZM89.3499 392.118C89.9659 392.118 90.4699 391.917 90.8619 391.516C91.2539 391.115 91.4499 390.531 91.4499 389.766V389.374L89.8119 389.612C89.1399 389.705 88.6312 389.864 88.2859 390.088C87.9406 390.312 87.7679 390.592 87.7679 390.928C87.7679 391.311 87.9219 391.605 88.2299 391.81C88.5472 392.015 88.9206 392.118 89.3499 392.118ZM97.4828 393C96.0361 393 95.3128 392.183 95.3128 390.55V386.798H94.2068C94.1135 386.798 94.0388 386.77 93.9828 386.714C93.9268 386.658 93.8988 386.583 93.8988 386.49V386.042C93.8988 385.949 93.9268 385.874 93.9828 385.818C94.0388 385.753 94.1135 385.72 94.2068 385.72H95.3128V383.382C95.3128 383.289 95.3408 383.214 95.3968 383.158C95.4528 383.093 95.5275 383.06 95.6208 383.06H96.2368C96.3301 383.06 96.4048 383.093 96.4608 383.158C96.5261 383.214 96.5588 383.289 96.5588 383.382V385.72H98.2948C98.3881 385.72 98.4628 385.753 98.5188 385.818C98.5841 385.874 98.6168 385.949 98.6168 386.042V386.49C98.6168 386.583 98.5841 386.658 98.5188 386.714C98.4628 386.77 98.3881 386.798 98.2948 386.798H96.5588V390.452C96.5588 390.928 96.6335 391.287 96.7828 391.53C96.9415 391.773 97.2075 391.894 97.5808 391.894H98.4348C98.5281 391.894 98.6028 391.927 98.6588 391.992C98.7148 392.048 98.7428 392.123 98.7428 392.216V392.678C98.7428 392.771 98.7148 392.851 98.6588 392.916C98.6028 392.972 98.5281 393 98.4348 393H97.4828ZM102.995 393.14C102.043 393.14 101.282 392.846 100.713 392.258C100.143 391.661 99.8305 390.849 99.7745 389.822L99.7605 389.346L99.7745 388.884C99.8305 387.876 100.143 387.073 100.713 386.476C101.282 385.879 102.043 385.58 102.995 385.58C104.021 385.58 104.815 385.907 105.375 386.56C105.944 387.213 106.229 388.1 106.229 389.22V389.472C106.229 389.565 106.196 389.645 106.131 389.71C106.075 389.766 106 389.794 105.907 389.794H101.049V389.92C101.077 390.527 101.263 391.045 101.609 391.474C101.954 391.903 102.411 392.118 102.981 392.118C103.419 392.118 103.774 392.034 104.045 391.866C104.325 391.689 104.535 391.507 104.675 391.32C104.759 391.208 104.824 391.143 104.871 391.124C104.917 391.096 104.997 391.082 105.109 391.082H105.725C105.809 391.082 105.879 391.105 105.935 391.152C106 391.199 106.033 391.259 106.033 391.334C106.033 391.539 105.907 391.787 105.655 392.076C105.403 392.365 105.043 392.617 104.577 392.832C104.119 393.037 103.592 393.14 102.995 393.14ZM104.955 388.842V388.8C104.955 388.147 104.777 387.615 104.423 387.204C104.068 386.793 103.592 386.588 102.995 386.588C102.388 386.588 101.912 386.793 101.567 387.204C101.221 387.615 101.049 388.147 101.049 388.8V388.842H104.955ZM110.591 393.14C109.611 393.14 108.874 392.823 108.379 392.188C107.894 391.553 107.632 390.751 107.595 389.78L107.581 389.36L107.595 388.94C107.632 387.979 107.898 387.181 108.393 386.546C108.888 385.902 109.62 385.58 110.591 385.58C111.562 385.58 112.318 385.925 112.859 386.616V383.382C112.859 383.289 112.887 383.214 112.943 383.158C113.008 383.093 113.088 383.06 113.181 383.06H113.811C113.904 383.06 113.979 383.093 114.035 383.158C114.1 383.214 114.133 383.289 114.133 383.382V392.678C114.133 392.771 114.1 392.851 114.035 392.916C113.979 392.972 113.904 393 113.811 393H113.209C113.116 393 113.041 392.972 112.985 392.916C112.929 392.851 112.901 392.771 112.901 392.678V392.076C112.369 392.785 111.599 393.14 110.591 393.14ZM110.857 392.048C111.51 392.048 112 391.833 112.327 391.404C112.654 390.965 112.831 390.447 112.859 389.85C112.868 389.747 112.873 389.57 112.873 389.318C112.873 389.057 112.868 388.875 112.859 388.772C112.84 388.203 112.658 387.713 112.313 387.302C111.977 386.882 111.492 386.672 110.857 386.672C110.185 386.672 109.695 386.882 109.387 387.302C109.079 387.722 108.911 388.273 108.883 388.954L108.869 389.36C108.869 391.152 109.532 392.048 110.857 392.048Z" fill="#0C092A"/>
<path d="M42.336 369.352C40.3947 369.352 38.72 369.043 37.312 368.424C35.9253 367.805 34.8693 366.984 34.144 365.96C33.44 364.936 33.0667 363.816 33.024 362.6C33.024 362.408 33.088 362.248 33.216 362.12C33.344 361.992 33.504 361.928 33.696 361.928H38.208C38.72 361.928 39.072 362.131 39.264 362.536C39.5627 363.24 39.9573 363.752 40.448 364.072C40.96 364.392 41.5893 364.552 42.336 364.552C43.2533 364.552 44.0107 364.275 44.608 363.72C45.2267 363.165 45.536 362.387 45.536 361.384C45.536 360.509 45.2373 359.784 44.64 359.208C44.0427 358.632 43.2747 358.344 42.336 358.344C41.8027 358.344 41.376 358.419 41.056 358.568C40.736 358.696 40.4267 358.877 40.128 359.112C39.808 359.368 39.5307 359.496 39.296 359.496H34.848C34.656 359.496 34.4853 359.432 34.336 359.304C34.208 359.155 34.144 358.984 34.144 358.792L35.328 347.56C35.3493 347.261 35.456 347.027 35.648 346.856C35.8613 346.685 36.1067 346.6 36.384 346.6H49.408C49.6427 346.6 49.8347 346.675 49.984 346.824C50.1333 346.973 50.208 347.165 50.208 347.4V350.6C50.208 350.813 50.1333 351.005 49.984 351.176C49.8347 351.325 49.6427 351.4 49.408 351.4H40.096L39.712 355.336C40.224 354.973 40.8 354.707 41.44 354.536C42.08 354.344 42.912 354.248 43.936 354.248C45.3013 354.248 46.5813 354.557 47.776 355.176C48.9707 355.773 49.92 356.627 50.624 357.736C51.3493 358.845 51.712 360.115 51.712 361.544C51.712 363.037 51.3387 364.381 50.592 365.576C49.8453 366.749 48.7573 367.677 47.328 368.36C45.92 369.021 44.256 369.352 42.336 369.352Z" fill="#0C092A"/>
<path d="M120 354H124L134.5 343.5C135.03 342.969 135.328 342.25 135.328 341.5C135.328 340.75 135.03 340.03 134.5 339.5C133.97 338.969 133.25 338.671 132.5 338.671C131.75 338.671 131.03 338.969 130.5 339.5L120 350V354Z" stroke="#0C092A" stroke-width="2" stroke-linecap="round" stroke-linejoin="round"/>
<path d="M129.5 340.5L133.5 344.5" stroke="#0C092A" stroke-width="2" stroke-linecap="round" stroke-linejoin="round"/>
<circle cx="163" cy="220" r="69" stroke="white" stroke-width="10"/>
<path d="M138.823 222.32C136.733 222.32 134.973 222 133.543 221.36C132.135 220.699 131.09 219.888 130.407 218.928C129.746 217.968 129.394 217.008 129.351 216.048C129.351 215.856 129.415 215.696 129.543 215.568C129.693 215.44 129.863 215.376 130.055 215.376H134.471C134.727 215.376 134.93 215.429 135.079 215.536C135.229 215.621 135.367 215.771 135.495 215.984C135.901 217.029 137.021 217.552 138.855 217.552C139.901 217.552 140.711 217.307 141.287 216.816C141.863 216.325 142.151 215.664 142.151 214.832C142.151 213.232 141.085 212.432 138.951 212.432H135.367C135.133 212.432 134.93 212.357 134.759 212.208C134.61 212.037 134.535 211.835 134.535 211.6V209.712C134.535 209.221 134.717 208.859 135.079 208.624L140.231 204.4H131.399C131.186 204.4 130.994 204.325 130.823 204.176C130.674 204.005 130.599 203.813 130.599 203.6V200.432C130.599 200.197 130.674 200.005 130.823 199.856C130.973 199.685 131.165 199.6 131.399 199.6H146.311C146.546 199.6 146.738 199.685 146.887 199.856C147.037 200.005 147.111 200.197 147.111 200.432V203.28C147.111 203.728 146.941 204.08 146.599 204.336L141.863 208.656L142.087 208.72C144.007 208.997 145.533 209.659 146.663 210.704C147.794 211.749 148.359 213.253 148.359 215.216C148.359 216.645 147.943 217.904 147.111 218.992C146.301 220.059 145.17 220.88 143.719 221.456C142.29 222.032 140.658 222.32 138.823 222.32ZM154.121 222C153.929 222 153.769 221.936 153.641 221.808C153.513 221.659 153.449 221.488 153.449 221.296C153.449 221.189 153.47 221.093 153.513 221.008L160.873 204.624H151.369C151.134 204.624 150.931 204.549 150.761 204.4C150.611 204.229 150.537 204.027 150.537 203.792V200.432C150.537 200.197 150.611 200.005 150.761 199.856C150.931 199.685 151.134 199.6 151.369 199.6H166.505C166.739 199.6 166.931 199.685 167.081 199.856C167.251 200.005 167.337 200.197 167.337 200.432V203.408C167.337 203.792 167.283 204.123 167.177 204.4C167.07 204.677 167.006 204.837 166.985 204.88L159.625 221.232C159.39 221.744 159.006 222 158.473 222H154.121Z" fill="#0C092A"/>
<path d="M168.892 223.344C168.807 223.344 168.732 223.312 168.668 223.248C168.604 223.184 168.572 223.104 168.572 223.008C168.572 222.944 168.583 222.885 168.604 222.832L174.044 209.76C174.087 209.675 174.151 209.6 174.236 209.536C174.321 209.461 174.428 209.424 174.556 209.424H175.596C175.692 209.424 175.772 209.456 175.836 209.52C175.9 209.584 175.932 209.664 175.932 209.76C175.932 209.824 175.921 209.883 175.9 209.936L170.428 223.008C170.396 223.093 170.337 223.168 170.252 223.232C170.177 223.307 170.071 223.344 169.932 223.344H168.892ZM181.068 222.176C180.183 222.176 179.415 222.027 178.764 221.728C178.124 221.429 177.639 221.035 177.308 220.544C176.978 220.053 176.802 219.525 176.78 218.96V218.928C176.78 218.843 176.812 218.773 176.876 218.72C176.951 218.656 177.031 218.624 177.116 218.624H178.636C178.882 218.624 179.036 218.731 179.1 218.944C179.25 219.413 179.495 219.76 179.836 219.984C180.188 220.208 180.599 220.32 181.068 220.32C181.666 220.32 182.156 220.139 182.54 219.776C182.935 219.413 183.132 218.912 183.132 218.272C183.132 217.696 182.935 217.232 182.54 216.88C182.156 216.517 181.666 216.336 181.068 216.336C180.748 216.336 180.487 216.379 180.284 216.464C180.082 216.549 179.884 216.667 179.692 216.816C179.671 216.827 179.623 216.859 179.548 216.912C179.474 216.965 179.404 217.003 179.34 217.024C179.287 217.045 179.228 217.056 179.164 217.056H177.66C177.564 217.056 177.479 217.024 177.404 216.96C177.34 216.885 177.308 216.8 177.308 216.704L177.852 211.248C177.863 211.109 177.911 211.003 177.996 210.928C178.092 210.843 178.204 210.8 178.332 210.8H184.348C184.466 210.8 184.556 210.837 184.62 210.912C184.695 210.976 184.732 211.067 184.732 211.184V212.272C184.732 212.379 184.695 212.469 184.62 212.544C184.556 212.619 184.466 212.656 184.348 212.656H179.724L179.468 215.248C179.714 215.088 179.996 214.96 180.316 214.864C180.636 214.757 181.052 214.704 181.564 214.704C182.258 214.704 182.898 214.853 183.484 215.152C184.082 215.44 184.556 215.861 184.908 216.416C185.271 216.96 185.452 217.595 185.452 218.32C185.452 219.099 185.271 219.781 184.908 220.368C184.546 220.944 184.034 221.392 183.372 221.712C182.711 222.021 181.943 222.176 181.068 222.176ZM191.358 222.16C189.928 222.16 188.862 221.765 188.158 220.976C187.464 220.187 187.086 219.152 187.022 217.872C187.011 217.584 187.006 217.093 187.006 216.4C187.006 215.696 187.011 215.195 187.022 214.896C187.075 213.637 187.459 212.613 188.174 211.824C188.888 211.035 189.95 210.64 191.358 210.64C192.766 210.64 193.827 211.035 194.542 211.824C195.256 212.613 195.64 213.637 195.694 214.896C195.715 215.493 195.726 215.995 195.726 216.4C195.726 216.805 195.715 217.296 195.694 217.872C195.63 219.152 195.246 220.187 194.542 220.976C193.848 221.765 192.787 222.16 191.358 222.16ZM191.358 220.288C192.019 220.288 192.515 220.075 192.846 219.648C193.176 219.211 193.352 218.592 193.374 217.792C193.384 217.483 193.39 217.008 193.39 216.368C193.39 215.728 193.384 215.264 193.374 214.976C193.352 214.197 193.176 213.589 192.846 213.152C192.515 212.715 192.019 212.491 191.358 212.48C190.696 212.491 190.2 212.715 189.87 213.152C189.539 213.589 189.363 214.197 189.342 214.976C189.331 215.264 189.326 215.728 189.326 216.368C189.326 217.008 189.331 217.483 189.342 217.792C189.363 218.592 189.539 219.211 189.87 219.648C190.2 220.075 190.696 220.288 191.358 220.288Z" fill="#181254" fill-opacity="0.5"/>
<path opacity="0.5" d="M131.605 248.66C131.512 248.66 131.432 248.632 131.367 248.576C131.311 248.52 131.283 248.441 131.283 248.338V245.076C130.751 245.785 129.995 246.14 129.015 246.14C128.035 246.14 127.298 245.827 126.803 245.202C126.308 244.577 126.047 243.788 126.019 242.836L126.005 242.36L126.019 241.884C126.056 240.923 126.318 240.134 126.803 239.518C127.298 238.893 128.035 238.58 129.015 238.58C130.023 238.58 130.788 238.939 131.311 239.658V239.042C131.311 238.949 131.339 238.874 131.395 238.818C131.46 238.753 131.54 238.72 131.633 238.72H132.235C132.328 238.72 132.403 238.753 132.459 238.818C132.524 238.874 132.557 238.949 132.557 239.042V248.338C132.557 248.431 132.524 248.506 132.459 248.562C132.403 248.627 132.328 248.66 132.235 248.66H131.605ZM129.281 245.048C129.916 245.048 130.401 244.843 130.737 244.432C131.082 244.012 131.264 243.517 131.283 242.948C131.292 242.845 131.297 242.663 131.297 242.402C131.297 242.141 131.292 241.959 131.283 241.856C131.255 241.259 131.078 240.745 130.751 240.316C130.424 239.887 129.934 239.672 129.281 239.672C128.609 239.672 128.119 239.882 127.811 240.302C127.503 240.722 127.335 241.273 127.307 241.954L127.293 242.36C127.293 244.152 127.956 245.048 129.281 245.048ZM137.37 246.14C136.483 246.14 135.797 245.855 135.312 245.286C134.826 244.707 134.584 243.942 134.584 242.99V239.042C134.584 238.949 134.612 238.874 134.668 238.818C134.733 238.753 134.812 238.72 134.906 238.72H135.55C135.643 238.72 135.718 238.753 135.774 238.818C135.839 238.874 135.872 238.949 135.872 239.042V242.92C135.872 244.339 136.488 245.048 137.72 245.048C138.317 245.048 138.788 244.861 139.134 244.488C139.488 244.105 139.666 243.583 139.666 242.92V239.042C139.666 238.949 139.694 238.874 139.75 238.818C139.815 238.753 139.894 238.72 139.988 238.72H140.632C140.725 238.72 140.8 238.753 140.856 238.818C140.921 238.874 140.954 238.949 140.954 239.042V245.678C140.954 245.771 140.921 245.851 140.856 245.916C140.8 245.972 140.725 246 140.632 246H140.03C139.936 246 139.857 245.972 139.792 245.916C139.736 245.851 139.708 245.771 139.708 245.678V245.048C139.437 245.412 139.12 245.687 138.756 245.874C138.392 246.051 137.93 246.14 137.37 246.14ZM143.258 237.348C143.165 237.348 143.085 237.32 143.02 237.264C142.964 237.199 142.936 237.119 142.936 237.026V236.298C142.936 236.205 142.964 236.125 143.02 236.06C143.085 235.995 143.165 235.962 143.258 235.962H144.084C144.177 235.962 144.257 235.995 144.322 236.06C144.387 236.125 144.42 236.205 144.42 236.298V237.026C144.42 237.119 144.387 237.199 144.322 237.264C144.257 237.32 144.177 237.348 144.084 237.348H143.258ZM143.37 246C143.277 246 143.197 245.972 143.132 245.916C143.076 245.851 143.048 245.771 143.048 245.678V239.042C143.048 238.949 143.076 238.874 143.132 238.818C143.197 238.753 143.277 238.72 143.37 238.72H143.986C144.079 238.72 144.154 238.753 144.21 238.818C144.275 238.874 144.308 238.949 144.308 239.042V245.678C144.308 245.771 144.275 245.851 144.21 245.916C144.154 245.972 144.079 246 143.986 246H143.37ZM146.257 246C146.164 246 146.085 245.972 146.019 245.916C145.963 245.851 145.935 245.771 145.935 245.678V245.216C145.935 245.141 145.954 245.067 145.991 244.992C146.038 244.908 146.085 244.833 146.131 244.768L150.037 239.798H146.383C146.29 239.798 146.215 239.77 146.159 239.714C146.103 239.649 146.075 239.569 146.075 239.476V239.042C146.075 238.949 146.103 238.874 146.159 238.818C146.215 238.753 146.29 238.72 146.383 238.72H151.339C151.433 238.72 151.507 238.753 151.563 238.818C151.629 238.874 151.661 238.949 151.661 239.042V239.532C151.661 239.635 151.596 239.779 151.465 239.966L147.615 244.922H151.619C151.722 244.922 151.801 244.95 151.857 245.006C151.913 245.062 151.941 245.141 151.941 245.244V245.678C151.941 245.771 151.909 245.851 151.843 245.916C151.787 245.972 151.713 246 151.619 246H146.257ZM157.288 248.66C157.195 248.66 157.116 248.632 157.05 248.576C156.994 248.52 156.966 248.441 156.966 248.338V239.042C156.966 238.939 156.994 238.86 157.05 238.804C157.116 238.748 157.195 238.72 157.288 238.72H157.876C157.979 238.72 158.058 238.748 158.114 238.804C158.17 238.86 158.198 238.939 158.198 239.042V239.658C158.74 238.939 159.51 238.58 160.508 238.58C161.488 238.58 162.221 238.893 162.706 239.518C163.201 240.134 163.462 240.923 163.49 241.884C163.5 241.987 163.504 242.145 163.504 242.36C163.504 242.575 163.5 242.733 163.49 242.836C163.462 243.788 163.201 244.577 162.706 245.202C162.221 245.827 161.488 246.14 160.508 246.14C159.51 246.14 158.754 245.785 158.24 245.076V248.338C158.24 248.431 158.208 248.506 158.142 248.562C158.086 248.627 158.012 248.66 157.918 248.66H157.288ZM160.242 245.048C160.914 245.048 161.404 244.838 161.712 244.418C162.02 243.998 162.188 243.447 162.216 242.766C162.226 242.673 162.23 242.537 162.23 242.36C162.23 240.568 161.568 239.672 160.242 239.672C159.589 239.672 159.094 239.891 158.758 240.33C158.432 240.759 158.259 241.268 158.24 241.856C158.231 241.959 158.226 242.141 158.226 242.402C158.226 242.663 158.231 242.845 158.24 242.948C158.259 243.517 158.436 244.012 158.772 244.432C159.118 244.843 159.608 245.048 160.242 245.048ZM165.601 246C165.508 246 165.428 245.972 165.363 245.916C165.307 245.851 165.279 245.771 165.279 245.678V236.382C165.279 236.279 165.307 236.2 165.363 236.144C165.428 236.088 165.508 236.06 165.601 236.06H166.217C166.31 236.06 166.385 236.093 166.441 236.158C166.506 236.214 166.539 236.289 166.539 236.382V245.678C166.539 245.771 166.506 245.851 166.441 245.916C166.385 245.972 166.31 246 166.217 246H165.601ZM170.658 246.14C170.2 246.14 169.776 246.047 169.384 245.86C169.001 245.673 168.693 245.421 168.46 245.104C168.236 244.777 168.124 244.418 168.124 244.026C168.124 243.41 168.376 242.906 168.88 242.514C169.384 242.122 170.07 241.861 170.938 241.73L173.038 241.436V241.03C173.038 240.069 172.482 239.588 171.372 239.588C170.942 239.588 170.597 239.677 170.336 239.854C170.074 240.022 169.883 240.223 169.762 240.456C169.724 240.549 169.682 240.615 169.636 240.652C169.598 240.68 169.542 240.694 169.468 240.694H168.922C168.838 240.694 168.763 240.666 168.698 240.61C168.642 240.545 168.614 240.47 168.614 240.386C168.614 240.171 168.712 239.924 168.908 239.644C169.113 239.355 169.426 239.107 169.846 238.902C170.266 238.687 170.779 238.58 171.386 238.58C172.431 238.58 173.178 238.823 173.626 239.308C174.083 239.793 174.312 240.4 174.312 241.128V245.678C174.312 245.771 174.279 245.851 174.214 245.916C174.158 245.972 174.083 246 173.99 246H173.374C173.28 246 173.206 245.972 173.15 245.916C173.094 245.851 173.066 245.771 173.066 245.678V245.062C172.86 245.37 172.562 245.627 172.17 245.832C171.778 246.037 171.274 246.14 170.658 246.14ZM170.938 245.118C171.554 245.118 172.058 244.917 172.45 244.516C172.842 244.115 173.038 243.531 173.038 242.766V242.374L171.4 242.612C170.728 242.705 170.219 242.864 169.874 243.088C169.528 243.312 169.356 243.592 169.356 243.928C169.356 244.311 169.51 244.605 169.818 244.81C170.135 245.015 170.508 245.118 170.938 245.118ZM177.463 248.66C177.379 248.66 177.309 248.632 177.253 248.576C177.197 248.52 177.169 248.455 177.169 248.38C177.169 248.352 177.192 248.268 177.239 248.128L178.331 245.566L175.657 239.252C175.601 239.14 175.573 239.061 175.573 239.014C175.582 238.93 175.615 238.86 175.671 238.804C175.727 238.748 175.792 238.72 175.867 238.72H176.511C176.66 238.72 176.772 238.795 176.847 238.944L179.003 244.096L181.215 238.944C181.289 238.795 181.401 238.72 181.551 238.72H182.181C182.255 238.72 182.321 238.748 182.377 238.804C182.433 238.86 182.461 238.925 182.461 239C182.461 239.065 182.437 239.149 182.391 239.252L178.429 248.436C178.382 248.511 178.331 248.567 178.275 248.604C178.228 248.641 178.163 248.66 178.079 248.66H177.463ZM186.51 246.14C185.558 246.14 184.798 245.846 184.228 245.258C183.659 244.661 183.346 243.849 183.29 242.822L183.276 242.346L183.29 241.884C183.346 240.876 183.659 240.073 184.228 239.476C184.798 238.879 185.558 238.58 186.51 238.58C187.537 238.58 188.33 238.907 188.89 239.56C189.46 240.213 189.744 241.1 189.744 242.22V242.472C189.744 242.565 189.712 242.645 189.646 242.71C189.59 242.766 189.516 242.794 189.422 242.794H184.564V242.92C184.592 243.527 184.779 244.045 185.124 244.474C185.47 244.903 185.927 245.118 186.496 245.118C186.935 245.118 187.29 245.034 187.56 244.866C187.84 244.689 188.05 244.507 188.19 244.32C188.274 244.208 188.34 244.143 188.386 244.124C188.433 244.096 188.512 244.082 188.624 244.082H189.24C189.324 244.082 189.394 244.105 189.45 244.152C189.516 244.199 189.548 244.259 189.548 244.334C189.548 244.539 189.422 244.787 189.17 245.076C188.918 245.365 188.559 245.617 188.092 245.832C187.635 246.037 187.108 246.14 186.51 246.14ZM188.47 241.842V241.8C188.47 241.147 188.293 240.615 187.938 240.204C187.584 239.793 187.108 239.588 186.51 239.588C185.904 239.588 185.428 239.793 185.082 240.204C184.737 240.615 184.564 241.147 184.564 241.8V241.842H188.47ZM194.106 246.14C193.126 246.14 192.389 245.823 191.894 245.188C191.409 244.553 191.148 243.751 191.11 242.78L191.096 242.36L191.11 241.94C191.148 240.979 191.414 240.181 191.908 239.546C192.403 238.902 193.136 238.58 194.106 238.58C195.077 238.58 195.833 238.925 196.374 239.616V236.382C196.374 236.289 196.402 236.214 196.458 236.158C196.524 236.093 196.603 236.06 196.696 236.06H197.326C197.42 236.06 197.494 236.093 197.55 236.158C197.616 236.214 197.648 236.289 197.648 236.382V245.678C197.648 245.771 197.616 245.851 197.55 245.916C197.494 245.972 197.42 246 197.326 246H196.724C196.631 246 196.556 245.972 196.5 245.916C196.444 245.851 196.416 245.771 196.416 245.678V245.076C195.884 245.785 195.114 246.14 194.106 246.14ZM194.372 245.048C195.026 245.048 195.516 244.833 195.842 244.404C196.169 243.965 196.346 243.447 196.374 242.85C196.384 242.747 196.388 242.57 196.388 242.318C196.388 242.057 196.384 241.875 196.374 241.772C196.356 241.203 196.174 240.713 195.828 240.302C195.492 239.882 195.007 239.672 194.372 239.672C193.7 239.672 193.21 239.882 192.902 240.302C192.594 240.722 192.426 241.273 192.398 241.954L192.384 242.36C192.384 244.152 193.047 245.048 194.372 245.048Z" fill="#0C092A"/>
<mask id="path-18-inside-1_178_6730" fill="white">
<path d="M163 151.18C163 148.319 165.322 145.981 168.176 146.181C180.99 147.08 193.382 151.302 204.112 158.471C216.281 166.602 225.766 178.16 231.367 191.681C236.968 205.203 238.433 220.082 235.578 234.437C232.723 248.791 225.675 261.977 215.326 272.326C204.977 282.675 191.791 289.723 177.437 292.578C163.082 295.433 148.203 293.968 134.681 288.367C121.16 282.766 109.602 273.281 101.471 261.112C94.3017 250.382 90.0796 237.99 89.1812 225.176C88.9811 222.322 91.3192 220 94.18 220C97.0408 220 99.3381 222.323 99.5707 225.174C100.449 235.937 104.054 246.331 110.085 255.356C117.078 265.822 127.017 273.979 138.646 278.796C150.275 283.612 163.071 284.873 175.416 282.417C187.76 279.962 199.1 273.9 208 265C216.9 256.1 222.962 244.76 225.417 232.416C227.873 220.071 226.612 207.275 221.796 195.646C216.979 184.017 208.822 174.078 198.356 167.085C189.331 161.054 178.937 157.449 168.174 156.571C165.323 156.338 163 154.041 163 151.18Z"/>
</mask>
<path d="M163 151.18C163 148.319 165.322 145.981 168.176 146.181C180.99 147.08 193.382 151.302 204.112 158.471C216.281 166.602 225.766 178.16 231.367 191.681C236.968 205.203 238.433 220.082 235.578 234.437C232.723 248.791 225.675 261.977 215.326 272.326C204.977 282.675 191.791 289.723 177.437 292.578C163.082 295.433 148.203 293.968 134.681 288.367C121.16 282.766 109.602 273.281 101.471 261.112C94.3017 250.382 90.0796 237.99 89.1812 225.176C88.9811 222.322 91.3192 220 94.18 220C97.0408 220 99.3381 222.323 99.5707 225.174C100.449 235.937 104.054 246.331 110.085 255.356C117.078 265.822 127.017 273.979 138.646 278.796C150.275 283.612 163.071 284.873 175.416 282.417C187.76 279.962 199.1 273.9 208 265C216.9 256.1 222.962 244.76 225.417 232.416C227.873 220.071 226.612 207.275 221.796 195.646C216.979 184.017 208.822 174.078 198.356 167.085C189.331 161.054 178.937 157.449 168.174 156.571C165.323 156.338 163 154.041 163 151.18Z" stroke="#6A5AE0" stroke-width="20" mask="url(#path-18-inside-1_178_6730)"/>
<path d="M58.6536 95C58.5203 95 58.4069 94.9533 58.3136 94.86C58.2203 94.7667 58.1736 94.6533 58.1736 94.52V90.02L53.4336 81.64C53.3936 81.52 53.3736 81.4467 53.3736 81.42C53.3736 81.3 53.4136 81.2 53.4936 81.12C53.5869 81.04 53.6869 81 53.7936 81H55.5936C55.8469 81 56.0536 81.1267 56.2136 81.38L59.5736 87.18L62.9536 81.38C63.0069 81.2867 63.0803 81.2 63.1736 81.12C63.2803 81.04 63.4069 81 63.5536 81H65.3536C65.4736 81 65.5736 81.04 65.6536 81.12C65.7336 81.2 65.7736 81.3 65.7736 81.42C65.7736 81.5 65.7536 81.5733 65.7136 81.64L60.9936 90.02V94.52C60.9936 94.6667 60.9469 94.7867 60.8536 94.88C60.7603 94.96 60.6403 95 60.4936 95H58.6536ZM70.4556 95.2C68.8823 95.2 67.669 94.8 66.8156 94C65.9623 93.2 65.5023 92.0933 65.4356 90.68L65.4156 89.8L65.4356 88.92C65.5023 87.52 65.969 86.42 66.8356 85.62C67.7023 84.8067 68.909 84.4 70.4556 84.4C71.989 84.4 73.189 84.8067 74.0556 85.62C74.9223 86.42 75.389 87.52 75.4556 88.92C75.469 89.08 75.4756 89.3733 75.4756 89.8C75.4756 90.2267 75.469 90.52 75.4556 90.68C75.389 92.0933 74.929 93.2 74.0756 94C73.2223 94.8 72.0156 95.2 70.4556 95.2ZM70.4556 93.18C71.1623 93.18 71.7023 92.96 72.0756 92.52C72.4623 92.08 72.669 91.4333 72.6956 90.58C72.709 90.4467 72.7156 90.1867 72.7156 89.8C72.7156 89.4133 72.709 89.1533 72.6956 89.02C72.669 88.1667 72.4623 87.52 72.0756 87.08C71.689 86.6267 71.149 86.4 70.4556 86.4C69.749 86.4 69.2023 86.6267 68.8156 87.08C68.429 87.52 68.2223 88.1667 68.1956 89.02L68.1756 89.8L68.1956 90.58C68.2223 91.4333 68.429 92.08 68.8156 92.52C69.2023 92.96 69.749 93.18 70.4556 93.18ZM81.5511 95.2C80.3244 95.2 79.3578 94.8 78.6511 94C77.9444 93.2 77.5911 92.1 77.5911 90.7V85.08C77.5911 84.9333 77.6378 84.82 77.7311 84.74C77.8244 84.6467 77.9378 84.6 78.0711 84.6H79.8711C80.0044 84.6 80.1178 84.6467 80.2111 84.74C80.3044 84.8333 80.3511 84.9467 80.3511 85.08V90.58C80.3511 92.22 81.0644 93.04 82.4911 93.04C83.1844 93.04 83.7311 92.82 84.1311 92.38C84.5444 91.94 84.7511 91.34 84.7511 90.58V85.08C84.7511 84.9333 84.7978 84.82 84.8911 84.74C84.9844 84.6467 85.0978 84.6 85.2311 84.6H87.0111C87.1578 84.6 87.2711 84.6467 87.3511 84.74C87.4444 84.82 87.4911 84.9333 87.4911 85.08V94.52C87.4911 94.6533 87.4444 94.7667 87.3511 94.86C87.2711 94.9533 87.1578 95 87.0111 95H85.3511C85.2178 95 85.1044 94.9533 85.0111 94.86C84.9178 94.7667 84.8711 94.6533 84.8711 94.52V93.7C84.1378 94.7 83.0311 95.2 81.5511 95.2ZM95.1833 95C95.0499 95 94.9366 94.9533 94.8433 94.86C94.7499 94.7667 94.7033 94.6533 94.7033 94.52V81.28C94.7033 81.1333 94.7499 81.02 94.8433 80.94C94.9366 80.8467 95.0499 80.8 95.1833 80.8H97.0033C97.1499 80.8 97.2633 80.8467 97.3433 80.94C97.4366 81.02 97.4833 81.1333 97.4833 81.28V85.84C98.2833 84.88 99.3566 84.4 100.703 84.4C101.93 84.4 102.91 84.8067 103.643 85.62C104.377 86.42 104.743 87.5133 104.743 88.9V94.52C104.743 94.6533 104.697 94.7667 104.603 94.86C104.523 94.9533 104.41 95 104.263 95H102.443C102.297 95 102.177 94.9533 102.083 94.86C101.99 94.7667 101.943 94.6533 101.943 94.52V89.02C101.943 88.2467 101.75 87.6467 101.363 87.22C100.99 86.78 100.45 86.56 99.7433 86.56C99.0633 86.56 98.5166 86.78 98.1033 87.22C97.6899 87.66 97.4833 88.26 97.4833 89.02V94.52C97.4833 94.6533 97.4366 94.7667 97.3433 94.86C97.2633 94.9533 97.1499 95 97.0033 95H95.1833ZM110.301 95.2C109.621 95.2 108.994 95.0667 108.421 94.8C107.861 94.52 107.414 94.1467 107.081 93.68C106.761 93.2133 106.601 92.7 106.601 92.14C106.601 91.2333 106.968 90.5 107.701 89.94C108.434 89.38 109.441 89 110.721 88.8L113.461 88.4V87.98C113.461 87.4067 113.314 86.9733 113.021 86.68C112.728 86.3867 112.261 86.24 111.621 86.24C111.181 86.24 110.828 86.32 110.561 86.48C110.294 86.64 110.074 86.8067 109.901 86.98C109.741 87.14 109.634 87.2467 109.581 87.3C109.528 87.46 109.428 87.54 109.281 87.54H107.721C107.601 87.54 107.494 87.5 107.401 87.42C107.321 87.34 107.281 87.2333 107.281 87.1C107.294 86.7667 107.454 86.3933 107.761 85.98C108.081 85.5533 108.568 85.1867 109.221 84.88C109.874 84.56 110.681 84.4 111.641 84.4C113.214 84.4 114.361 84.7533 115.081 85.46C115.801 86.1667 116.161 87.0933 116.161 88.24V94.52C116.161 94.6533 116.114 94.7667 116.021 94.86C115.941 94.9533 115.828 95 115.681 95H114.021C113.888 95 113.774 94.9533 113.681 94.86C113.588 94.7667 113.541 94.6533 113.541 94.52V93.74C113.248 94.1667 112.834 94.52 112.301 94.8C111.768 95.0667 111.101 95.2 110.301 95.2ZM110.981 93.28C111.714 93.28 112.314 93.04 112.781 92.56C113.248 92.08 113.481 91.3867 113.481 90.48V90.08L111.481 90.4C109.948 90.64 109.181 91.1533 109.181 91.94C109.181 92.3667 109.354 92.7 109.701 92.94C110.061 93.1667 110.488 93.28 110.981 93.28ZM122.152 95C121.952 95 121.799 94.96 121.692 94.88C121.586 94.7867 121.499 94.66 121.432 94.5L117.672 85.22C117.659 85.18 117.652 85.12 117.652 85.04C117.652 84.92 117.692 84.82 117.772 84.74C117.866 84.6467 117.966 84.6 118.072 84.6H119.732C119.999 84.6 120.179 84.7267 120.272 84.98L122.912 91.96L125.552 84.98C125.579 84.8867 125.632 84.8 125.712 84.72C125.806 84.64 125.926 84.6 126.072 84.6H127.732C127.852 84.6 127.952 84.6467 128.032 84.74C128.112 84.82 128.152 84.92 128.152 85.04C128.152 85.12 128.146 85.18 128.132 85.22L124.392 94.5C124.246 94.8333 124.006 95 123.672 95H122.152ZM134.105 95.2C132.612 95.2 131.425 94.7733 130.545 93.92C129.678 93.0667 129.218 91.8533 129.165 90.28L129.145 89.78C129.145 88.1133 129.578 86.8 130.445 85.84C131.325 84.88 132.538 84.4 134.085 84.4C135.672 84.4 136.892 84.88 137.745 85.84C138.612 86.8 139.045 88.08 139.045 89.68V90.1C139.045 90.2333 138.998 90.3467 138.905 90.44C138.812 90.5333 138.692 90.58 138.545 90.58H131.905V90.74C131.932 91.4867 132.132 92.1067 132.505 92.6C132.892 93.08 133.418 93.32 134.085 93.32C134.845 93.32 135.465 93.0133 135.945 92.4C136.065 92.2533 136.158 92.1667 136.225 92.14C136.292 92.1 136.405 92.08 136.565 92.08H138.325C138.445 92.08 138.545 92.1133 138.625 92.18C138.718 92.2467 138.765 92.34 138.765 92.46C138.765 92.78 138.572 93.16 138.185 93.6C137.812 94.0267 137.272 94.4 136.565 94.72C135.858 95.04 135.038 95.2 134.105 95.2ZM136.285 88.88V88.84C136.285 88.0533 136.085 87.4267 135.685 86.96C135.298 86.48 134.765 86.24 134.085 86.24C133.405 86.24 132.872 86.48 132.485 86.96C132.098 87.4267 131.905 88.0533 131.905 88.84V88.88H136.285ZM146.218 98.8C146.085 98.8 145.972 98.7533 145.878 98.66C145.785 98.58 145.738 98.4667 145.738 98.32V85.08C145.738 84.9333 145.785 84.82 145.878 84.74C145.972 84.6467 146.085 84.6 146.218 84.6H147.818C147.965 84.6 148.085 84.6467 148.178 84.74C148.272 84.8333 148.318 84.9467 148.318 85.08V85.88C149.025 84.8933 150.085 84.4 151.498 84.4C152.845 84.4 153.878 84.8267 154.598 85.68C155.318 86.52 155.705 87.6533 155.758 89.08C155.772 89.24 155.778 89.48 155.778 89.8C155.778 90.12 155.772 90.36 155.758 90.52C155.718 91.92 155.332 93.0533 154.598 93.92C153.878 94.7733 152.845 95.2 151.498 95.2C150.165 95.2 149.145 94.7267 148.438 93.78V98.32C148.438 98.4667 148.392 98.58 148.298 98.66C148.218 98.7533 148.105 98.8 147.958 98.8H146.218ZM150.738 93.04C152.165 93.04 152.925 92.16 153.018 90.4C153.032 90.2667 153.038 90.0667 153.038 89.8C153.038 89.5333 153.032 89.3333 153.018 89.2C152.925 87.44 152.165 86.56 150.738 86.56C149.978 86.56 149.412 86.8067 149.038 87.3C148.665 87.7933 148.465 88.3933 148.438 89.1C148.425 89.26 148.418 89.5133 148.418 89.86C148.418 90.2067 148.425 90.4667 148.438 90.64C148.465 91.3067 148.672 91.8733 149.058 92.34C149.445 92.8067 150.005 93.04 150.738 93.04ZM158.504 95C158.37 95 158.257 94.9533 158.164 94.86C158.07 94.7667 158.024 94.6533 158.024 94.52V81.28C158.024 81.1333 158.07 81.02 158.164 80.94C158.257 80.8467 158.37 80.8 158.504 80.8H160.184C160.33 80.8 160.444 80.8467 160.524 80.94C160.617 81.02 160.664 81.1333 160.664 81.28V94.52C160.664 94.6533 160.617 94.7667 160.524 94.86C160.444 94.9533 160.33 95 160.184 95H158.504ZM166.336 95.2C165.656 95.2 165.029 95.0667 164.456 94.8C163.896 94.52 163.449 94.1467 163.116 93.68C162.796 93.2133 162.636 92.7 162.636 92.14C162.636 91.2333 163.003 90.5 163.736 89.94C164.469 89.38 165.476 89 166.756 88.8L169.496 88.4V87.98C169.496 87.4067 169.349 86.9733 169.056 86.68C168.763 86.3867 168.296 86.24 167.656 86.24C167.216 86.24 166.863 86.32 166.596 86.48C166.329 86.64 166.109 86.8067 165.936 86.98C165.776 87.14 165.669 87.2467 165.616 87.3C165.563 87.46 165.463 87.54 165.316 87.54H163.756C163.636 87.54 163.529 87.5 163.436 87.42C163.356 87.34 163.316 87.2333 163.316 87.1C163.329 86.7667 163.489 86.3933 163.796 85.98C164.116 85.5533 164.603 85.1867 165.256 84.88C165.909 84.56 166.716 84.4 167.676 84.4C169.249 84.4 170.396 84.7533 171.116 85.46C171.836 86.1667 172.196 87.0933 172.196 88.24V94.52C172.196 94.6533 172.149 94.7667 172.056 94.86C171.976 94.9533 171.863 95 171.716 95H170.056C169.923 95 169.809 94.9533 169.716 94.86C169.623 94.7667 169.576 94.6533 169.576 94.52V93.74C169.283 94.1667 168.869 94.52 168.336 94.8C167.803 95.0667 167.136 95.2 166.336 95.2ZM167.016 93.28C167.749 93.28 168.349 93.04 168.816 92.56C169.283 92.08 169.516 91.3867 169.516 90.48V90.08L167.516 90.4C165.983 90.64 165.216 91.1533 165.216 91.94C165.216 92.3667 165.389 92.7 165.736 92.94C166.096 93.1667 166.523 93.28 167.016 93.28ZM176.368 98.8C176.261 98.8 176.161 98.76 176.068 98.68C175.988 98.6 175.948 98.5067 175.948 98.4C175.948 98.3067 175.975 98.2 176.028 98.08L177.608 94.38L173.768 85.32C173.715 85.2 173.688 85.1067 173.688 85.04C173.701 84.92 173.748 84.82 173.828 84.74C173.908 84.6467 174.008 84.6 174.128 84.6H175.788C176.028 84.6 176.201 84.7267 176.308 84.98L178.968 91.5L181.668 84.98C181.801 84.7267 181.988 84.6 182.228 84.6H183.848C183.968 84.6 184.068 84.64 184.148 84.72C184.228 84.8 184.268 84.8933 184.268 85C184.268 85.0933 184.241 85.2 184.188 85.32L178.528 98.42C178.421 98.6733 178.235 98.8 177.968 98.8H176.368ZM190.121 95.2C188.627 95.2 187.441 94.7733 186.561 93.92C185.694 93.0667 185.234 91.8533 185.181 90.28L185.161 89.78C185.161 88.1133 185.594 86.8 186.461 85.84C187.341 84.88 188.554 84.4 190.101 84.4C191.687 84.4 192.907 84.88 193.761 85.84C194.627 86.8 195.061 88.08 195.061 89.68V90.1C195.061 90.2333 195.014 90.3467 194.921 90.44C194.827 90.5333 194.707 90.58 194.561 90.58H187.921V90.74C187.947 91.4867 188.147 92.1067 188.521 92.6C188.907 93.08 189.434 93.32 190.101 93.32C190.861 93.32 191.481 93.0133 191.961 92.4C192.081 92.2533 192.174 92.1667 192.241 92.14C192.307 92.1 192.421 92.08 192.581 92.08H194.341C194.461 92.08 194.561 92.1133 194.641 92.18C194.734 92.2467 194.781 92.34 194.781 92.46C194.781 92.78 194.587 93.16 194.201 93.6C193.827 94.0267 193.287 94.4 192.581 94.72C191.874 95.04 191.054 95.2 190.121 95.2ZM192.301 88.88V88.84C192.301 88.0533 192.101 87.4267 191.701 86.96C191.314 86.48 190.781 86.24 190.101 86.24C189.421 86.24 188.887 86.48 188.501 86.96C188.114 87.4267 187.921 88.0533 187.921 88.84V88.88H192.301ZM201.043 95.2C199.697 95.2 198.663 94.7733 197.943 93.92C197.223 93.0533 196.83 91.9 196.763 90.46L196.743 89.8L196.763 89.14C196.817 87.7267 197.203 86.5867 197.923 85.72C198.657 84.84 199.697 84.4 201.043 84.4C202.323 84.4 203.343 84.84 204.103 85.72V81.28C204.103 81.1333 204.15 81.02 204.243 80.94C204.337 80.8467 204.45 80.8 204.583 80.8H206.323C206.47 80.8 206.583 80.8467 206.663 80.94C206.757 81.02 206.803 81.1333 206.803 81.28V94.52C206.803 94.6533 206.757 94.7667 206.663 94.86C206.583 94.9533 206.47 95 206.323 95H204.703C204.57 95 204.457 94.9533 204.363 94.86C204.27 94.7667 204.223 94.6533 204.223 94.52V93.78C203.49 94.7267 202.43 95.2 201.043 95.2ZM201.803 93.04C202.563 93.04 203.123 92.8 203.483 92.32C203.857 91.8267 204.063 91.22 204.103 90.5C204.117 90.34 204.123 90.0867 204.123 89.74C204.123 89.38 204.117 89.12 204.103 88.96C204.077 88.2933 203.87 87.7267 203.483 87.26C203.097 86.7933 202.537 86.56 201.803 86.56C200.377 86.56 199.617 87.44 199.523 89.2L199.503 89.8L199.523 90.4C199.617 92.16 200.377 93.04 201.803 93.04ZM217.039 95.2C216.359 95.2 215.733 95.0667 215.159 94.8C214.599 94.52 214.153 94.1467 213.819 93.68C213.499 93.2133 213.339 92.7 213.339 92.14C213.339 91.2333 213.706 90.5 214.439 89.94C215.173 89.38 216.179 89 217.459 88.8L220.199 88.4V87.98C220.199 87.4067 220.053 86.9733 219.759 86.68C219.466 86.3867 218.999 86.24 218.359 86.24C217.919 86.24 217.566 86.32 217.299 86.48C217.033 86.64 216.813 86.8067 216.639 86.98C216.479 87.14 216.373 87.2467 216.319 87.3C216.266 87.46 216.166 87.54 216.019 87.54H214.459C214.339 87.54 214.233 87.5 214.139 87.42C214.059 87.34 214.019 87.2333 214.019 87.1C214.033 86.7667 214.193 86.3933 214.499 85.98C214.819 85.5533 215.306 85.1867 215.959 84.88C216.613 84.56 217.419 84.4 218.379 84.4C219.953 84.4 221.099 84.7533 221.819 85.46C222.539 86.1667 222.899 87.0933 222.899 88.24V94.52C222.899 94.6533 222.853 94.7667 222.759 94.86C222.679 94.9533 222.566 95 222.419 95H220.759C220.626 95 220.513 94.9533 220.419 94.86C220.326 94.7667 220.279 94.6533 220.279 94.52V93.74C219.986 94.1667 219.573 94.52 219.039 94.8C218.506 95.0667 217.839 95.2 217.039 95.2ZM217.719 93.28C218.453 93.28 219.053 93.04 219.519 92.56C219.986 92.08 220.219 91.3867 220.219 90.48V90.08L218.219 90.4C216.686 90.64 215.919 91.1533 215.919 91.94C215.919 92.3667 216.093 92.7 216.439 92.94C216.799 93.1667 217.226 93.28 217.719 93.28ZM234.345 95C233.131 95 232.218 94.6867 231.605 94.06C230.991 93.42 230.685 92.4867 230.685 91.26V86.74H229.105C228.971 86.74 228.858 86.6933 228.765 86.6C228.671 86.5067 228.625 86.3933 228.625 86.26V85.08C228.625 84.9467 228.671 84.8333 228.765 84.74C228.858 84.6467 228.971 84.6 229.105 84.6H230.685V81.28C230.685 81.1333 230.731 81.02 230.825 80.94C230.918 80.8467 231.031 80.8 231.165 80.8H232.825C232.971 80.8 233.085 80.8467 233.165 80.94C233.258 81.02 233.305 81.1333 233.305 81.28V84.6H235.805C235.938 84.6 236.051 84.6467 236.145 84.74C236.238 84.8333 236.285 84.9467 236.285 85.08V86.26C236.285 86.3933 236.238 86.5067 236.145 86.6C236.051 86.6933 235.938 86.74 235.805 86.74H233.305V91.04C233.305 91.6133 233.405 92.0467 233.605 92.34C233.805 92.6333 234.131 92.78 234.585 92.78H235.985C236.131 92.78 236.245 92.8267 236.325 92.92C236.418 93 236.465 93.1133 236.465 93.26V94.52C236.465 94.6533 236.418 94.7667 236.325 94.86C236.245 94.9533 236.131 95 235.985 95H234.345ZM242.858 95.2C241.285 95.2 240.071 94.8 239.218 94C238.365 93.2 237.905 92.0933 237.838 90.68L237.818 89.8L237.838 88.92C237.905 87.52 238.371 86.42 239.238 85.62C240.105 84.8067 241.311 84.4 242.858 84.4C244.391 84.4 245.591 84.8067 246.458 85.62C247.325 86.42 247.791 87.52 247.858 88.92C247.871 89.08 247.878 89.3733 247.878 89.8C247.878 90.2267 247.871 90.52 247.858 90.68C247.791 92.0933 247.331 93.2 246.478 94C245.625 94.8 244.418 95.2 242.858 95.2ZM242.858 93.18C243.565 93.18 244.105 92.96 244.478 92.52C244.865 92.08 245.071 91.4333 245.098 90.58C245.111 90.4467 245.118 90.1867 245.118 89.8C245.118 89.4133 245.111 89.1533 245.098 89.02C245.071 88.1667 244.865 87.52 244.478 87.08C244.091 86.6267 243.551 86.4 242.858 86.4C242.151 86.4 241.605 86.6267 241.218 87.08C240.831 87.52 240.625 88.1667 240.598 89.02L240.578 89.8L240.598 90.58C240.625 91.4333 240.831 92.08 241.218 92.52C241.605 92.96 242.151 93.18 242.858 93.18ZM254.735 95C253.522 95 252.609 94.6867 251.995 94.06C251.382 93.42 251.075 92.4867 251.075 91.26V86.74H249.495C249.362 86.74 249.249 86.6933 249.155 86.6C249.062 86.5067 249.015 86.3933 249.015 86.26V85.08C249.015 84.9467 249.062 84.8333 249.155 84.74C249.249 84.6467 249.362 84.6 249.495 84.6H251.075V81.28C251.075 81.1333 251.122 81.02 251.215 80.94C251.309 80.8467 251.422 80.8 251.555 80.8H253.215C253.362 80.8 253.475 80.8467 253.555 80.94C253.649 81.02 253.695 81.1333 253.695 81.28V84.6H256.195C256.329 84.6 256.442 84.6467 256.535 84.74C256.629 84.8333 256.675 84.9467 256.675 85.08V86.26C256.675 86.3933 256.629 86.5067 256.535 86.6C256.442 86.6933 256.329 86.74 256.195 86.74H253.695V91.04C253.695 91.6133 253.795 92.0467 253.995 92.34C254.195 92.6333 254.522 92.78 254.975 92.78H256.375C256.522 92.78 256.635 92.8267 256.715 92.92C256.809 93 256.855 93.1133 256.855 93.26V94.52C256.855 94.6533 256.809 94.7667 256.715 94.86C256.635 94.9533 256.522 95 256.375 95H254.735ZM261.649 95.2C260.969 95.2 260.342 95.0667 259.769 94.8C259.209 94.52 258.762 94.1467 258.429 93.68C258.109 93.2133 257.949 92.7 257.949 92.14C257.949 91.2333 258.315 90.5 259.049 89.94C259.782 89.38 260.789 89 262.069 88.8L264.809 88.4V87.98C264.809 87.4067 264.662 86.9733 264.369 86.68C264.075 86.3867 263.609 86.24 262.969 86.24C262.529 86.24 262.175 86.32 261.909 86.48C261.642 86.64 261.422 86.8067 261.249 86.98C261.089 87.14 260.982 87.2467 260.929 87.3C260.875 87.46 260.775 87.54 260.629 87.54H259.069C258.949 87.54 258.842 87.5 258.749 87.42C258.669 87.34 258.629 87.2333 258.629 87.1C258.642 86.7667 258.802 86.3933 259.109 85.98C259.429 85.5533 259.915 85.1867 260.569 84.88C261.222 84.56 262.029 84.4 262.989 84.4C264.562 84.4 265.709 84.7533 266.429 85.46C267.149 86.1667 267.509 87.0933 267.509 88.24V94.52C267.509 94.6533 267.462 94.7667 267.369 94.86C267.289 94.9533 267.175 95 267.029 95H265.369C265.235 95 265.122 94.9533 265.029 94.86C264.935 94.7667 264.889 94.6533 264.889 94.52V93.74C264.595 94.1667 264.182 94.52 263.649 94.8C263.115 95.0667 262.449 95.2 261.649 95.2ZM262.329 93.28C263.062 93.28 263.662 93.04 264.129 92.56C264.595 92.08 264.829 91.3867 264.829 90.48V90.08L262.829 90.4C261.295 90.64 260.529 91.1533 260.529 91.94C260.529 92.3667 260.702 92.7 261.049 92.94C261.409 93.1667 261.835 93.28 262.329 93.28ZM270.574 95C270.441 95 270.327 94.9533 270.234 94.86C270.141 94.7667 270.094 94.6533 270.094 94.52V81.28C270.094 81.1333 270.141 81.02 270.234 80.94C270.327 80.8467 270.441 80.8 270.574 80.8H272.254C272.401 80.8 272.514 80.8467 272.594 80.94C272.687 81.02 272.734 81.1333 272.734 81.28V94.52C272.734 94.6533 272.687 94.7667 272.594 94.86C272.514 94.9533 272.401 95 272.254 95H270.574ZM167.968 123C166.754 123 165.841 122.687 165.228 122.06C164.614 121.42 164.308 120.487 164.308 119.26V114.74H162.728C162.594 114.74 162.481 114.693 162.388 114.6C162.294 114.507 162.248 114.393 162.248 114.26V113.08C162.248 112.947 162.294 112.833 162.388 112.74C162.481 112.647 162.594 112.6 162.728 112.6H164.308V109.28C164.308 109.133 164.354 109.02 164.448 108.94C164.541 108.847 164.654 108.8 164.788 108.8H166.448C166.594 108.8 166.708 108.847 166.788 108.94C166.881 109.02 166.928 109.133 166.928 109.28V112.6H169.428C169.561 112.6 169.674 112.647 169.768 112.74C169.861 112.833 169.908 112.947 169.908 113.08V114.26C169.908 114.393 169.861 114.507 169.768 114.6C169.674 114.693 169.561 114.74 169.428 114.74H166.928V119.04C166.928 119.613 167.028 120.047 167.228 120.34C167.428 120.633 167.754 120.78 168.208 120.78H169.608C169.754 120.78 169.868 120.827 169.948 120.92C170.041 121 170.088 121.113 170.088 121.26V122.52C170.088 122.653 170.041 122.767 169.948 122.86C169.868 122.953 169.754 123 169.608 123H167.968ZM172.361 123C172.228 123 172.114 122.953 172.021 122.86C171.928 122.767 171.881 122.653 171.881 122.52V109.28C171.881 109.133 171.928 109.02 172.021 108.94C172.114 108.847 172.228 108.8 172.361 108.8H174.181C174.328 108.8 174.441 108.847 174.521 108.94C174.614 109.02 174.661 109.133 174.661 109.28V113.84C175.461 112.88 176.534 112.4 177.881 112.4C179.108 112.4 180.088 112.807 180.821 113.62C181.554 114.42 181.921 115.513 181.921 116.9V122.52C181.921 122.653 181.874 122.767 181.781 122.86C181.701 122.953 181.588 123 181.441 123H179.621C179.474 123 179.354 122.953 179.261 122.86C179.168 122.767 179.121 122.653 179.121 122.52V117.02C179.121 116.247 178.928 115.647 178.541 115.22C178.168 114.78 177.628 114.56 176.921 114.56C176.241 114.56 175.694 114.78 175.281 115.22C174.868 115.66 174.661 116.26 174.661 117.02V122.52C174.661 122.653 174.614 122.767 174.521 122.86C174.441 122.953 174.328 123 174.181 123H172.361ZM184.859 110.9C184.725 110.9 184.612 110.853 184.519 110.76C184.425 110.667 184.379 110.553 184.379 110.42V108.96C184.379 108.813 184.425 108.693 184.519 108.6C184.612 108.507 184.725 108.46 184.859 108.46H186.699C186.845 108.46 186.965 108.507 187.059 108.6C187.152 108.693 187.199 108.813 187.199 108.96V110.42C187.199 110.553 187.145 110.667 187.039 110.76C186.945 110.853 186.832 110.9 186.699 110.9H184.859ZM184.939 123C184.805 123 184.692 122.953 184.599 122.86C184.505 122.767 184.459 122.653 184.459 122.52V113.08C184.459 112.933 184.505 112.82 184.599 112.74C184.692 112.647 184.805 112.6 184.939 112.6H186.639C186.772 112.6 186.885 112.647 186.979 112.74C187.072 112.833 187.119 112.947 187.119 113.08V122.52C187.119 122.653 187.072 122.767 186.979 122.86C186.885 122.953 186.772 123 186.639 123H184.939ZM193.712 123.2C192.698 123.2 191.852 123.047 191.172 122.74C190.492 122.433 189.985 122.08 189.652 121.68C189.332 121.267 189.172 120.913 189.172 120.62C189.172 120.487 189.212 120.38 189.292 120.3C189.385 120.22 189.492 120.18 189.612 120.18H191.252C191.358 120.18 191.452 120.233 191.532 120.34C191.598 120.393 191.745 120.52 191.972 120.72C192.212 120.92 192.478 121.08 192.772 121.2C193.078 121.307 193.412 121.36 193.772 121.36C194.305 121.36 194.738 121.26 195.072 121.06C195.405 120.847 195.572 120.547 195.572 120.16C195.572 119.893 195.492 119.68 195.332 119.52C195.185 119.347 194.912 119.193 194.512 119.06C194.125 118.913 193.538 118.753 192.752 118.58C191.618 118.34 190.778 117.973 190.232 117.48C189.698 116.987 189.432 116.333 189.432 115.52C189.432 114.987 189.592 114.487 189.912 114.02C190.232 113.54 190.705 113.153 191.332 112.86C191.972 112.553 192.732 112.4 193.612 112.4C194.518 112.4 195.298 112.547 195.952 112.84C196.605 113.12 197.098 113.46 197.432 113.86C197.778 114.26 197.952 114.613 197.952 114.92C197.952 115.04 197.905 115.147 197.812 115.24C197.732 115.32 197.632 115.36 197.512 115.36H196.012C195.865 115.36 195.752 115.307 195.672 115.2C195.578 115.133 195.425 115.013 195.212 114.84C195.012 114.653 194.785 114.507 194.532 114.4C194.278 114.293 193.972 114.24 193.612 114.24C193.118 114.24 192.738 114.347 192.472 114.56C192.205 114.773 192.072 115.053 192.072 115.4C192.072 115.64 192.132 115.84 192.252 116C192.385 116.16 192.645 116.313 193.032 116.46C193.418 116.593 193.998 116.733 194.772 116.88C197.172 117.347 198.372 118.393 198.372 120.02C198.372 120.967 197.958 121.733 197.132 122.32C196.318 122.907 195.178 123.2 193.712 123.2ZM205.446 123C205.313 123 205.2 122.953 205.106 122.86C205.013 122.767 204.966 122.653 204.966 122.52V113.08C204.966 112.933 205.013 112.82 205.106 112.74C205.2 112.647 205.313 112.6 205.446 112.6H207.026C207.173 112.6 207.286 112.647 207.366 112.74C207.46 112.82 207.506 112.933 207.506 113.08V113.76C208.226 112.853 209.193 112.4 210.406 112.4C211.886 112.4 212.92 112.993 213.506 114.18C213.826 113.647 214.28 113.22 214.866 112.9C215.453 112.567 216.086 112.4 216.766 112.4C217.86 112.4 218.753 112.773 219.446 113.52C220.14 114.267 220.486 115.353 220.486 116.78V122.52C220.486 122.653 220.44 122.767 220.346 122.86C220.266 122.953 220.153 123 220.006 123H218.346C218.213 123 218.1 122.953 218.006 122.86C217.913 122.767 217.866 122.653 217.866 122.52V116.94C217.866 116.1 217.686 115.493 217.326 115.12C216.98 114.747 216.52 114.56 215.946 114.56C215.426 114.56 214.98 114.753 214.606 115.14C214.246 115.513 214.066 116.113 214.066 116.94V122.52C214.066 122.653 214.02 122.767 213.926 122.86C213.846 122.953 213.733 123 213.586 123H211.906C211.773 123 211.66 122.953 211.566 122.86C211.473 122.767 211.426 122.653 211.426 122.52V116.94C211.426 116.113 211.246 115.513 210.886 115.14C210.526 114.753 210.066 114.56 209.506 114.56C208.986 114.56 208.54 114.753 208.166 115.14C207.806 115.513 207.626 116.113 207.626 116.94V122.52C207.626 122.653 207.58 122.767 207.486 122.86C207.406 122.953 207.293 123 207.146 123H205.446ZM227.653 123.2C226.08 123.2 224.866 122.8 224.013 122C223.16 121.2 222.7 120.093 222.633 118.68L222.613 117.8L222.633 116.92C222.7 115.52 223.166 114.42 224.033 113.62C224.9 112.807 226.106 112.4 227.653 112.4C229.186 112.4 230.386 112.807 231.253 113.62C232.12 114.42 232.586 115.52 232.653 116.92C232.666 117.08 232.673 117.373 232.673 117.8C232.673 118.227 232.666 118.52 232.653 118.68C232.586 120.093 232.126 121.2 231.273 122C230.42 122.8 229.213 123.2 227.653 123.2ZM227.653 121.18C228.36 121.18 228.9 120.96 229.273 120.52C229.66 120.08 229.866 119.433 229.893 118.58C229.906 118.447 229.913 118.187 229.913 117.8C229.913 117.413 229.906 117.153 229.893 117.02C229.866 116.167 229.66 115.52 229.273 115.08C228.886 114.627 228.346 114.4 227.653 114.4C226.946 114.4 226.4 114.627 226.013 115.08C225.626 115.52 225.42 116.167 225.393 117.02L225.373 117.8L225.393 118.58C225.42 119.433 225.626 120.08 226.013 120.52C226.4 120.96 226.946 121.18 227.653 121.18ZM235.368 123C235.235 123 235.122 122.953 235.028 122.86C234.935 122.767 234.888 122.653 234.888 122.52V113.08C234.888 112.933 234.935 112.82 235.028 112.74C235.122 112.647 235.235 112.6 235.368 112.6H237.028C237.175 112.6 237.288 112.647 237.368 112.74C237.462 112.82 237.508 112.933 237.508 113.08V113.9C238.322 112.9 239.435 112.4 240.848 112.4C242.075 112.4 243.048 112.8 243.768 113.6C244.488 114.4 244.848 115.5 244.848 116.9V122.52C244.848 122.653 244.802 122.767 244.708 122.86C244.628 122.953 244.515 123 244.368 123H242.568C242.435 123 242.322 122.953 242.228 122.86C242.135 122.767 242.088 122.653 242.088 122.52V117.02C242.088 116.247 241.895 115.647 241.508 115.22C241.135 114.78 240.595 114.56 239.888 114.56C239.208 114.56 238.662 114.78 238.248 115.22C237.835 115.66 237.628 116.26 237.628 117.02V122.52C237.628 122.653 237.582 122.767 237.488 122.86C237.408 122.953 237.295 123 237.148 123H235.368ZM251.991 123C250.778 123 249.865 122.687 249.251 122.06C248.638 121.42 248.331 120.487 248.331 119.26V114.74H246.751C246.618 114.74 246.505 114.693 246.411 114.6C246.318 114.507 246.271 114.393 246.271 114.26V113.08C246.271 112.947 246.318 112.833 246.411 112.74C246.505 112.647 246.618 112.6 246.751 112.6H248.331V109.28C248.331 109.133 248.378 109.02 248.471 108.94C248.565 108.847 248.678 108.8 248.811 108.8H250.471C250.618 108.8 250.731 108.847 250.811 108.94C250.905 109.02 250.951 109.133 250.951 109.28V112.6H253.451C253.585 112.6 253.698 112.647 253.791 112.74C253.885 112.833 253.931 112.947 253.931 113.08V114.26C253.931 114.393 253.885 114.507 253.791 114.6C253.698 114.693 253.585 114.74 253.451 114.74H250.951V119.04C250.951 119.613 251.051 120.047 251.251 120.34C251.451 120.633 251.778 120.78 252.231 120.78H253.631C253.778 120.78 253.891 120.827 253.971 120.92C254.065 121 254.111 121.113 254.111 121.26V122.52C254.111 122.653 254.065 122.767 253.971 122.86C253.891 122.953 253.778 123 253.631 123H251.991ZM256.384 123C256.251 123 256.138 122.953 256.044 122.86C255.951 122.767 255.904 122.653 255.904 122.52V109.28C255.904 109.133 255.951 109.02 256.044 108.94C256.138 108.847 256.251 108.8 256.384 108.8H258.204C258.351 108.8 258.464 108.847 258.544 108.94C258.638 109.02 258.684 109.133 258.684 109.28V113.84C259.484 112.88 260.558 112.4 261.904 112.4C263.131 112.4 264.111 112.807 264.844 113.62C265.578 114.42 265.944 115.513 265.944 116.9V122.52C265.944 122.653 265.898 122.767 265.804 122.86C265.724 122.953 265.611 123 265.464 123H263.644C263.498 123 263.378 122.953 263.284 122.86C263.191 122.767 263.144 122.653 263.144 122.52V117.02C263.144 116.247 262.951 115.647 262.564 115.22C262.191 114.78 261.651 114.56 260.944 114.56C260.264 114.56 259.718 114.78 259.304 115.22C258.891 115.66 258.684 116.26 258.684 117.02V122.52C258.684 122.653 258.638 122.767 258.544 122.86C258.464 122.953 258.351 123 258.204 123H256.384ZM269.022 119.1C268.889 119.1 268.775 119.053 268.682 118.96C268.589 118.867 268.542 118.753 268.542 118.62V109.48C268.542 109.333 268.589 109.22 268.682 109.14C268.775 109.047 268.889 109 269.022 109H270.682C270.815 109 270.929 109.047 271.022 109.14C271.115 109.233 271.162 109.347 271.162 109.48V118.62C271.162 118.753 271.115 118.867 271.022 118.96C270.929 119.053 270.815 119.1 270.682 119.1H269.022ZM268.902 123C268.769 123 268.655 122.953 268.562 122.86C268.469 122.767 268.422 122.653 268.422 122.52V120.62C268.422 120.473 268.469 120.36 268.562 120.28C268.655 120.187 268.769 120.14 268.902 120.14H270.782C270.929 120.14 271.049 120.187 271.142 120.28C271.235 120.373 271.282 120.487 271.282 120.62V122.52C271.282 122.653 271.235 122.767 271.142 122.86C271.049 122.953 270.929 123 270.782 123H268.902Z" fill="#0C092A"/>
<path d="M55.8468 123C55.7135 123 55.6001 122.953 55.5068 122.86C55.4135 122.767 55.3668 122.653 55.3668 122.52V121.48C55.3668 121.107 55.5335 120.793 55.8668 120.54L58.9868 117.44C59.9335 116.693 60.6601 116.087 61.1668 115.62C61.6868 115.14 62.0735 114.7 62.3268 114.3C62.5801 113.9 62.7068 113.507 62.7068 113.12C62.7068 112.493 62.5401 112 62.2068 111.64C61.8735 111.28 61.3668 111.1 60.6868 111.1C60.0201 111.1 59.4935 111.3 59.1068 111.7C58.7335 112.087 58.5001 112.593 58.4068 113.22C58.3668 113.38 58.2868 113.5 58.1668 113.58C58.0601 113.647 57.9401 113.68 57.8068 113.68H56.0068C55.8868 113.68 55.7868 113.64 55.7068 113.56C55.6268 113.48 55.5868 113.38 55.5868 113.26C55.6135 112.473 55.8268 111.74 56.2268 111.06C56.6401 110.367 57.2268 109.813 57.9868 109.4C58.7468 108.973 59.6401 108.76 60.6668 108.76C61.7335 108.76 62.6401 108.947 63.3868 109.32C64.1335 109.68 64.6935 110.18 65.0668 110.82C65.4401 111.46 65.6268 112.187 65.6268 113C65.6268 113.893 65.3735 114.707 64.8668 115.44C64.3735 116.16 63.6001 116.933 62.5468 117.76L59.7668 120.58H65.4268C65.5735 120.58 65.6935 120.627 65.7868 120.72C65.8801 120.813 65.9268 120.933 65.9268 121.08V122.52C65.9268 122.667 65.8801 122.787 65.7868 122.88C65.6935 122.96 65.5735 123 65.4268 123H55.8468ZM74.6324 123C74.4991 123 74.3858 122.953 74.2924 122.86C74.1991 122.767 74.1524 122.653 74.1524 122.52V119.96H67.8124C67.6791 119.96 67.5658 119.913 67.4724 119.82C67.3791 119.727 67.3324 119.613 67.3324 119.48V118.1C67.3324 117.887 67.4058 117.687 67.5524 117.5L73.4524 109.34C73.5191 109.233 73.6191 109.153 73.7524 109.1C73.8858 109.033 74.0324 109 74.1924 109H76.3924C76.5391 109 76.6524 109.047 76.7324 109.14C76.8258 109.22 76.8724 109.333 76.8724 109.48V117.58H78.6724C78.8191 117.58 78.9324 117.627 79.0124 117.72C79.1058 117.8 79.1524 117.913 79.1524 118.06V119.48C79.1524 119.613 79.1058 119.727 79.0124 119.82C78.9324 119.913 78.8191 119.96 78.6724 119.96H76.8724V122.52C76.8724 122.653 76.8258 122.767 76.7324 122.86C76.6524 122.953 76.5391 123 76.3924 123H74.6324ZM70.1524 117.66H74.2124V111.92L70.1524 117.66ZM93.0896 126.8C92.9563 126.8 92.8429 126.753 92.7496 126.66C92.6563 126.58 92.6096 126.467 92.6096 126.32V121.78C91.9029 122.727 90.8763 123.2 89.5296 123.2C88.1963 123.2 87.1629 122.773 86.4296 121.92C85.7096 121.053 85.3229 119.92 85.2696 118.52L85.2496 117.8L85.2696 117.08C85.3229 115.653 85.7096 114.52 86.4296 113.68C87.1496 112.827 88.1829 112.4 89.5296 112.4C90.9296 112.4 91.9963 112.893 92.7296 113.88V113.08C92.7296 112.933 92.7763 112.82 92.8696 112.74C92.9629 112.647 93.0763 112.6 93.2096 112.6H94.8296C94.9763 112.6 95.0896 112.647 95.1696 112.74C95.2629 112.82 95.3096 112.933 95.3096 113.08V126.32C95.3096 126.467 95.2629 126.58 95.1696 126.66C95.0896 126.753 94.9763 126.8 94.8296 126.8H93.0896ZM90.2896 121.04C91.0229 121.04 91.5829 120.807 91.9696 120.34C92.3696 119.873 92.5829 119.307 92.6096 118.64C92.6229 118.467 92.6296 118.207 92.6296 117.86C92.6296 117.513 92.6229 117.26 92.6096 117.1C92.5696 116.38 92.3629 115.78 91.9896 115.3C91.6163 114.807 91.0496 114.56 90.2896 114.56C88.8763 114.56 88.1229 115.44 88.0296 117.2C88.0163 117.333 88.0096 117.533 88.0096 117.8C88.0096 118.067 88.0163 118.267 88.0296 118.4C88.1229 120.16 88.8763 121.04 90.2896 121.04ZM101.815 123.2C100.588 123.2 99.6214 122.8 98.9148 122C98.2081 121.2 97.8548 120.1 97.8548 118.7V113.08C97.8548 112.933 97.9014 112.82 97.9948 112.74C98.0881 112.647 98.2014 112.6 98.3348 112.6H100.135C100.268 112.6 100.381 112.647 100.475 112.74C100.568 112.833 100.615 112.947 100.615 113.08V118.58C100.615 120.22 101.328 121.04 102.755 121.04C103.448 121.04 103.995 120.82 104.395 120.38C104.808 119.94 105.015 119.34 105.015 118.58V113.08C105.015 112.933 105.061 112.82 105.155 112.74C105.248 112.647 105.361 112.6 105.495 112.6H107.275C107.421 112.6 107.535 112.647 107.615 112.74C107.708 112.82 107.755 112.933 107.755 113.08V122.52C107.755 122.653 107.708 122.767 107.615 122.86C107.535 122.953 107.421 123 107.275 123H105.615C105.481 123 105.368 122.953 105.275 122.86C105.181 122.767 105.135 122.653 105.135 122.52V121.7C104.401 122.7 103.295 123.2 101.815 123.2ZM110.796 110.9C110.663 110.9 110.55 110.853 110.456 110.76C110.363 110.667 110.316 110.553 110.316 110.42V108.96C110.316 108.813 110.363 108.693 110.456 108.6C110.55 108.507 110.663 108.46 110.796 108.46H112.636C112.783 108.46 112.903 108.507 112.996 108.6C113.09 108.693 113.136 108.813 113.136 108.96V110.42C113.136 110.553 113.083 110.667 112.976 110.76C112.883 110.853 112.77 110.9 112.636 110.9H110.796ZM110.876 123C110.743 123 110.63 122.953 110.536 122.86C110.443 122.767 110.396 122.653 110.396 122.52V113.08C110.396 112.933 110.443 112.82 110.536 112.74C110.63 112.647 110.743 112.6 110.876 112.6H112.576C112.71 112.6 112.823 112.647 112.916 112.74C113.01 112.833 113.056 112.947 113.056 113.08V122.52C113.056 122.653 113.01 122.767 112.916 122.86C112.823 122.953 112.71 123 112.576 123H110.876ZM115.649 123C115.516 123 115.402 122.953 115.309 122.86C115.216 122.767 115.169 122.653 115.169 122.52V121.36C115.169 121.24 115.189 121.133 115.229 121.04C115.282 120.947 115.356 120.833 115.449 120.7L120.549 114.72H115.809C115.676 114.72 115.562 114.673 115.469 114.58C115.376 114.473 115.329 114.353 115.329 114.22V113.08C115.329 112.947 115.376 112.833 115.469 112.74C115.562 112.647 115.676 112.6 115.809 112.6H123.429C123.562 112.6 123.676 112.647 123.769 112.74C123.862 112.833 123.909 112.947 123.909 113.08V114.32C123.909 114.427 123.876 114.533 123.809 114.64C123.756 114.747 123.696 114.847 123.629 114.94L118.629 120.88H123.829C123.962 120.88 124.076 120.927 124.169 121.02C124.262 121.113 124.309 121.233 124.309 121.38V122.52C124.309 122.653 124.262 122.767 124.169 122.86C124.089 122.953 123.976 123 123.829 123H115.649ZM126.294 123C126.16 123 126.047 122.953 125.954 122.86C125.86 122.767 125.814 122.653 125.814 122.52V121.36C125.814 121.24 125.834 121.133 125.874 121.04C125.927 120.947 126 120.833 126.094 120.7L131.194 114.72H126.454C126.32 114.72 126.207 114.673 126.114 114.58C126.02 114.473 125.974 114.353 125.974 114.22V113.08C125.974 112.947 126.02 112.833 126.114 112.74C126.207 112.647 126.32 112.6 126.454 112.6H134.074C134.207 112.6 134.32 112.647 134.414 112.74C134.507 112.833 134.554 112.947 134.554 113.08V114.32C134.554 114.427 134.52 114.533 134.454 114.64C134.4 114.747 134.34 114.847 134.274 114.94L129.274 120.88H134.474C134.607 120.88 134.72 120.927 134.814 121.02C134.907 121.113 134.954 121.233 134.954 121.38V122.52C134.954 122.653 134.907 122.767 134.814 122.86C134.734 122.953 134.62 123 134.474 123H126.294ZM141.361 123.2C139.868 123.2 138.681 122.773 137.801 121.92C136.934 121.067 136.474 119.853 136.421 118.28L136.401 117.78C136.401 116.113 136.834 114.8 137.701 113.84C138.581 112.88 139.794 112.4 141.341 112.4C142.928 112.4 144.148 112.88 145.001 113.84C145.868 114.8 146.301 116.08 146.301 117.68V118.1C146.301 118.233 146.254 118.347 146.161 118.44C146.068 118.533 145.948 118.58 145.801 118.58H139.161V118.74C139.188 119.487 139.388 120.107 139.761 120.6C140.148 121.08 140.674 121.32 141.341 121.32C142.101 121.32 142.721 121.013 143.201 120.4C143.321 120.253 143.414 120.167 143.481 120.14C143.548 120.1 143.661 120.08 143.821 120.08H145.581C145.701 120.08 145.801 120.113 145.881 120.18C145.974 120.247 146.021 120.34 146.021 120.46C146.021 120.78 145.828 121.16 145.441 121.6C145.068 122.027 144.528 122.4 143.821 122.72C143.114 123.04 142.294 123.2 141.361 123.2ZM143.541 116.88V116.84C143.541 116.053 143.341 115.427 142.941 114.96C142.554 114.48 142.021 114.24 141.341 114.24C140.661 114.24 140.128 114.48 139.741 114.96C139.354 115.427 139.161 116.053 139.161 116.84V116.88H143.541ZM152.384 123.2C151.37 123.2 150.524 123.047 149.844 122.74C149.164 122.433 148.657 122.08 148.324 121.68C148.004 121.267 147.844 120.913 147.844 120.62C147.844 120.487 147.884 120.38 147.964 120.3C148.057 120.22 148.164 120.18 148.284 120.18H149.924C150.03 120.18 150.124 120.233 150.204 120.34C150.27 120.393 150.417 120.52 150.644 120.72C150.884 120.92 151.15 121.08 151.444 121.2C151.75 121.307 152.084 121.36 152.444 121.36C152.977 121.36 153.41 121.26 153.744 121.06C154.077 120.847 154.244 120.547 154.244 120.16C154.244 119.893 154.164 119.68 154.004 119.52C153.857 119.347 153.584 119.193 153.184 119.06C152.797 118.913 152.21 118.753 151.424 118.58C150.29 118.34 149.45 117.973 148.904 117.48C148.37 116.987 148.104 116.333 148.104 115.52C148.104 114.987 148.264 114.487 148.584 114.02C148.904 113.54 149.377 113.153 150.004 112.86C150.644 112.553 151.404 112.4 152.284 112.4C153.19 112.4 153.97 112.547 154.624 112.84C155.277 113.12 155.77 113.46 156.104 113.86C156.45 114.26 156.624 114.613 156.624 114.92C156.624 115.04 156.577 115.147 156.484 115.24C156.404 115.32 156.304 115.36 156.184 115.36H154.684C154.537 115.36 154.424 115.307 154.344 115.2C154.25 115.133 154.097 115.013 153.884 114.84C153.684 114.653 153.457 114.507 153.204 114.4C152.95 114.293 152.644 114.24 152.284 114.24C151.79 114.24 151.41 114.347 151.144 114.56C150.877 114.773 150.744 115.053 150.744 115.4C150.744 115.64 150.804 115.84 150.924 116C151.057 116.16 151.317 116.313 151.704 116.46C152.09 116.593 152.67 116.733 153.444 116.88C155.844 117.347 157.044 118.393 157.044 120.02C157.044 120.967 156.63 121.733 155.804 122.32C154.99 122.907 153.85 123.2 152.384 123.2Z" fill="#6A5AE0"/>
<path d="M220 28C220 21.3726 225.373 16 232 16H300C306.627 16 312 21.3726 312 28V38C312 44.6274 306.627 50 300 50H232C225.373 50 220 44.6274 220 38V28Z" fill="white"/>
<path d="M233.224 37C233.144 37 233.076 36.972 233.02 36.916C232.964 36.86 232.936 36.792 232.936 36.712V28.9C232.936 28.812 232.96 28.74 233.008 28.684C233.064 28.628 233.136 28.6 233.224 28.6H234.196C234.348 28.6 234.468 28.676 234.556 28.828L236.872 33.124L239.188 28.828C239.276 28.676 239.396 28.6 239.548 28.6H240.508C240.596 28.6 240.668 28.628 240.724 28.684C240.78 28.74 240.808 28.812 240.808 28.9V36.712C240.808 36.8 240.78 36.872 240.724 36.928C240.668 36.976 240.596 37 240.508 37H239.476C239.396 37 239.328 36.972 239.272 36.916C239.216 36.86 239.188 36.792 239.188 36.712V31.552L237.52 34.72C237.432 34.896 237.3 34.984 237.124 34.984H236.62C236.452 34.984 236.316 34.896 236.212 34.72L234.544 31.552V36.712C234.544 36.792 234.516 36.86 234.46 36.916C234.412 36.972 234.344 37 234.256 37H233.224ZM245.302 37.12C244.358 37.12 243.63 36.88 243.118 36.4C242.606 35.92 242.33 35.256 242.29 34.408L242.278 33.88L242.29 33.352C242.33 32.512 242.61 31.852 243.13 31.372C243.65 30.884 244.374 30.64 245.302 30.64C246.222 30.64 246.942 30.884 247.462 31.372C247.982 31.852 248.262 32.512 248.302 33.352C248.31 33.448 248.314 33.624 248.314 33.88C248.314 34.136 248.31 34.312 248.302 34.408C248.262 35.256 247.986 35.92 247.474 36.4C246.962 36.88 246.238 37.12 245.302 37.12ZM245.302 35.908C245.726 35.908 246.05 35.776 246.274 35.512C246.506 35.248 246.63 34.86 246.646 34.348C246.654 34.268 246.658 34.112 246.658 33.88C246.658 33.648 246.654 33.492 246.646 33.412C246.63 32.9 246.506 32.512 246.274 32.248C246.042 31.976 245.718 31.84 245.302 31.84C244.878 31.84 244.55 31.976 244.318 32.248C244.086 32.512 243.962 32.9 243.946 33.412L243.934 33.88L243.946 34.348C243.962 34.86 244.086 35.248 244.318 35.512C244.55 35.776 244.878 35.908 245.302 35.908ZM249.932 37C249.852 37 249.784 36.972 249.728 36.916C249.672 36.86 249.644 36.792 249.644 36.712V31.048C249.644 30.96 249.672 30.892 249.728 30.844C249.784 30.788 249.852 30.76 249.932 30.76H250.928C251.016 30.76 251.084 30.788 251.132 30.844C251.188 30.892 251.216 30.96 251.216 31.048V31.54C251.704 30.94 252.372 30.64 253.22 30.64C253.956 30.64 254.54 30.88 254.972 31.36C255.404 31.84 255.62 32.5 255.62 33.34V36.712C255.62 36.792 255.592 36.86 255.536 36.916C255.488 36.972 255.42 37 255.332 37H254.252C254.172 37 254.104 36.972 254.048 36.916C253.992 36.86 253.964 36.792 253.964 36.712V33.412C253.964 32.948 253.848 32.588 253.616 32.332C253.392 32.068 253.068 31.936 252.644 31.936C252.236 31.936 251.908 32.068 251.66 32.332C251.412 32.596 251.288 32.956 251.288 33.412V36.712C251.288 36.792 251.26 36.86 251.204 36.916C251.156 36.972 251.088 37 251 37H249.932ZM259.905 37C259.177 37 258.629 36.812 258.261 36.436C257.893 36.052 257.709 35.492 257.709 34.756V32.044H256.761C256.681 32.044 256.613 32.016 256.557 31.96C256.501 31.904 256.473 31.836 256.473 31.756V31.048C256.473 30.968 256.501 30.9 256.557 30.844C256.613 30.788 256.681 30.76 256.761 30.76H257.709V28.768C257.709 28.68 257.737 28.612 257.793 28.564C257.849 28.508 257.917 28.48 257.997 28.48H258.993C259.081 28.48 259.149 28.508 259.197 28.564C259.253 28.612 259.281 28.68 259.281 28.768V30.76H260.781C260.861 30.76 260.929 30.788 260.985 30.844C261.041 30.9 261.069 30.968 261.069 31.048V31.756C261.069 31.836 261.041 31.904 260.985 31.96C260.929 32.016 260.861 32.044 260.781 32.044H259.281V34.624C259.281 34.968 259.341 35.228 259.461 35.404C259.581 35.58 259.777 35.668 260.049 35.668H260.889C260.977 35.668 261.045 35.696 261.093 35.752C261.149 35.8 261.177 35.868 261.177 35.956V36.712C261.177 36.792 261.149 36.86 261.093 36.916C261.045 36.972 260.977 37 260.889 37H259.905ZM262.541 37C262.461 37 262.393 36.972 262.337 36.916C262.281 36.86 262.253 36.792 262.253 36.712V28.768C262.253 28.68 262.281 28.612 262.337 28.564C262.393 28.508 262.461 28.48 262.541 28.48H263.633C263.721 28.48 263.789 28.508 263.837 28.564C263.893 28.612 263.921 28.68 263.921 28.768V31.504C264.401 30.928 265.045 30.64 265.853 30.64C266.589 30.64 267.177 30.884 267.617 31.372C268.057 31.852 268.277 32.508 268.277 33.34V36.712C268.277 36.792 268.249 36.86 268.193 36.916C268.145 36.972 268.077 37 267.989 37H266.897C266.809 37 266.737 36.972 266.681 36.916C266.625 36.86 266.597 36.792 266.597 36.712V33.412C266.597 32.948 266.481 32.588 266.249 32.332C266.025 32.068 265.701 31.936 265.277 31.936C264.869 31.936 264.541 32.068 264.293 32.332C264.045 32.596 263.921 32.956 263.921 33.412V36.712C263.921 36.792 263.893 36.86 263.837 36.916C263.789 36.972 263.721 37 263.633 37H262.541ZM270.1 37C270.02 37 269.952 36.972 269.896 36.916C269.84 36.86 269.812 36.792 269.812 36.712V28.768C269.812 28.68 269.84 28.612 269.896 28.564C269.952 28.508 270.02 28.48 270.1 28.48H271.108C271.196 28.48 271.264 28.508 271.312 28.564C271.368 28.612 271.396 28.68 271.396 28.768V36.712C271.396 36.792 271.368 36.86 271.312 36.916C271.264 36.972 271.196 37 271.108 37H270.1ZM274.115 39.28C274.051 39.28 273.991 39.256 273.935 39.208C273.887 39.16 273.863 39.104 273.863 39.04C273.863 38.984 273.879 38.92 273.911 38.848L274.859 36.628L272.555 31.192C272.523 31.12 272.507 31.064 272.507 31.024C272.515 30.952 272.543 30.892 272.591 30.844C272.639 30.788 272.699 30.76 272.771 30.76H273.767C273.911 30.76 274.015 30.836 274.079 30.988L275.675 34.9L277.295 30.988C277.375 30.836 277.487 30.76 277.631 30.76H278.603C278.675 30.76 278.735 30.784 278.783 30.832C278.831 30.88 278.855 30.936 278.855 31C278.855 31.056 278.839 31.12 278.807 31.192L275.411 39.052C275.347 39.204 275.235 39.28 275.075 39.28H274.115Z" fill="#0C092A"/>
<path d="M288 31L292 35L296 31" stroke="#6A5AE0" stroke-width="2" stroke-linecap="round" stroke-linejoin="round"/>
<path d="M232 17.5H300V14.5H232V17.5ZM310.5 28V38H313.5V28H310.5ZM300 48.5H232V51.5H300V48.5ZM221.5 38V28H218.5V38H221.5ZM232 48.5C226.201 48.5 221.5 43.799 221.5 38H218.5C218.5 45.4558 224.544 51.5 232 51.5V48.5ZM310.5 38C310.5 43.799 305.799 48.5 300 48.5V51.5C307.456 51.5 313.5 45.4558 313.5 38H310.5ZM300 17.5C305.799 17.5 310.5 22.201 310.5 28H313.5C313.5 20.5442 307.456 14.5 300 14.5V17.5ZM232 14.5C224.544 14.5 218.5 20.5442 218.5 28H221.5C221.5 22.201 226.201 17.5 232 17.5V14.5Z" fill="#EFEEFC"/>
</svg>
