<svg width="28" height="30" viewBox="0 0 28 30" fill="none" xmlns="http://www.w3.org/2000/svg">
<g filter="url(#filter0_d_269_7207)">
<path d="M14.8484 2.75149C14.6234 2.52652 14.3182 2.40015 14 2.40015C13.6818 2.40015 13.3766 2.52652 13.1516 2.75149L4.75159 11.1515C4.533 11.3778 4.41205 11.6809 4.41478 11.9956C4.41751 12.3102 4.54372 12.6112 4.76621 12.8337C4.9887 13.0562 5.28967 13.1824 5.60431 13.1851C5.91894 13.1878 6.22207 13.0669 6.44839 12.8483L6.79999 12.4967V20.3999C6.79999 20.7181 6.92642 21.0234 7.15146 21.2484C7.3765 21.4735 7.68173 21.5999 7.99999 21.5999H10.4C10.7182 21.5999 11.0235 21.4735 11.2485 21.2484C11.4736 21.0234 11.6 20.7181 11.6 20.3999V17.9999C11.6 17.6816 11.7264 17.3764 11.9515 17.1514C12.1765 16.9263 12.4817 16.7999 12.8 16.7999H15.2C15.5182 16.7999 15.8235 16.9263 16.0485 17.1514C16.2736 17.3764 16.4 17.6816 16.4 17.9999V20.3999C16.4 20.7181 16.5264 21.0234 16.7515 21.2484C16.9765 21.4735 17.2817 21.5999 17.6 21.5999H20C20.3182 21.5999 20.6235 21.4735 20.8485 21.2484C21.0736 21.0234 21.2 20.7181 21.2 20.3999V12.4967L21.5516 12.8483C21.7779 13.0669 22.081 13.1878 22.3957 13.1851C22.7103 13.1824 23.0113 13.0562 23.2338 12.8337C23.4563 12.6112 23.5825 12.3102 23.5852 11.9956C23.5879 11.6809 23.467 11.3778 23.2484 11.1515L14.8484 2.75149V2.75149Z" fill="#0C092A"/>
</g>
<defs>
<filter id="filter0_d_269_7207" x="-2" y="0" width="32" height="32" filterUnits="userSpaceOnUse" color-interpolation-filters="sRGB">
<feFlood flood-opacity="0" result="BackgroundImageFix"/>
<feColorMatrix in="SourceAlpha" type="matrix" values="0 0 0 0 0 0 0 0 0 0 0 0 0 0 0 0 0 0 127 0" result="hardAlpha"/>
<feOffset dy="4"/>
<feGaussianBlur stdDeviation="2"/>
<feComposite in2="hardAlpha" operator="out"/>
<feColorMatrix type="matrix" values="0 0 0 0 0 0 0 0 0 0 0 0 0 0 0 0 0 0 0.25 0"/>
<feBlend mode="normal" in2="BackgroundImageFix" result="effect1_dropShadow_269_7207"/>
<feBlend mode="normal" in="SourceGraphic" in2="effect1_dropShadow_269_7207" result="shape"/>
</filter>
</defs>
</svg>
